<svg xmlns="http://www.w3.org/2000/svg" width="807.9969482421875" height="212.05511474609375" style="
        width:807.9969482421875px;
        height:212.05511474609375px;
        background: transparent;
        fill: none;
">
        
        
        <svg xmlns="http://www.w3.org/2000/svg" class="role-diagram-draw-area"><g class="shapes-region" style="stroke: black; fill: none;"><g class="arrow-line"><path class="connection real" stroke-dasharray="" d="  M30,29.56 L30,119.56" style="stroke: rgb(0, 0, 0); stroke-width: 1; fill: none;"/></g><g class="composite-shape"><path class="real" d=" M10,59.56 L50,59.56 L50,89.56 L10,89.56 Z" style="stroke-width: 1; stroke: rgb(0, 0, 0); fill: rgb(255, 255, 255);"/></g><g class="arrow-line"><path class="connection real" stroke-dasharray="" d="  M30,29.56 L30,46.56" style="stroke: rgb(0, 0, 0); stroke-width: 1; fill: none;"/><g stroke="none" fill="#000" transform="matrix(-1.8369701987210297e-16,-1,1,-1.8369701987210297e-16,30,49.55903625488281)" style="stroke: none; fill: rgb(0, 0, 0); stroke-width: 1;"><path d=" M8.93,-4.29 L0,0 L8.93,4.29 Z"/></g></g><g class="arrow-line"><path class="connection real" stroke-dasharray="" d="  M30,89.56 L30,106.56" style="stroke: rgb(0, 0, 0); stroke-width: 1; fill: none;"/><g stroke="none" fill="#000" transform="matrix(-1.8369701987210297e-16,-1,1,-1.8369701987210297e-16,30,109.55903625488281)" style="stroke: none; fill: rgb(0, 0, 0); stroke-width: 1;"><path d=" M8.93,-4.29 L0,0 L8.93,4.29 Z"/></g></g><g class="arrow-line"><path class="connection real" stroke-dasharray="" d="  M200,29.56 L200,179.56" style="stroke: rgb(0, 0, 0); stroke-width: 1; fill: none;"/></g><g class="composite-shape"><path class="real" d=" M180,59.56 L220,59.56 L220,89.56 L180,89.56 Z" style="stroke-width: 1; stroke: rgb(0, 0, 0); fill: rgb(255, 255, 255);"/></g><g class="arrow-line"><path class="connection real" stroke-dasharray="" d="  M200,29.56 L200,46.56" style="stroke: rgb(0, 0, 0); stroke-width: 1; fill: none;"/><g stroke="none" fill="#000" transform="matrix(-1.8369701987210297e-16,-1,1,-1.8369701987210297e-16,200,49.55903625488281)" style="stroke: none; fill: rgb(0, 0, 0); stroke-width: 1;"><path d=" M8.93,-4.29 L0,0 L8.93,4.29 Z"/></g></g><g class="arrow-line"><path class="connection real" stroke-dasharray="" d="  M200,89.56 L200,106.56" style="stroke: rgb(0, 0, 0); stroke-width: 1; fill: none;"/><g stroke="none" fill="#000" transform="matrix(-1.8369701987210297e-16,-1,1,-1.8369701987210297e-16,200,109.55903625488278)" style="stroke: none; fill: rgb(0, 0, 0); stroke-width: 1;"><path d=" M8.93,-4.29 L0,0 L8.93,4.29 Z"/></g></g><g class="composite-shape"><path class="real" d=" M180,119.56 L220,119.56 L220,149.56 L180,149.56 Z" style="stroke-width: 1; stroke: rgb(0, 0, 0); fill: rgb(255, 255, 255);"/></g><g class="arrow-line"><path class="connection real" stroke-dasharray="" d="  M200,149.56 L200,166.56" style="stroke: rgb(0, 0, 0); stroke-width: 1; fill: none;"/><g stroke="none" fill="#000" transform="matrix(-1.8369701987210297e-16,-1,1,-1.8369701987210297e-16,200,169.55903625488278)" style="stroke: none; fill: rgb(0, 0, 0); stroke-width: 1;"><path d=" M8.93,-4.29 L0,0 L8.93,4.29 Z"/></g></g><g class="arrow-line"><path class="connection real" stroke-dasharray="" d="  M120,29.56 L120,179.56" style="stroke: rgb(0, 0, 0); stroke-width: 1; fill: none;"/></g><g class="composite-shape"><path class="real" d=" M100,59.56 L140,59.56 L140,149.56 L100,149.56 Z" style="stroke-width: 1; stroke: rgb(0, 0, 0); fill: rgb(255, 255, 255);"/></g><g class="arrow-line"><path class="connection real" stroke-dasharray="" d="  M120,29.56 L120,46.56" style="stroke: rgb(0, 0, 0); stroke-width: 1; fill: none;"/><g stroke="none" fill="#000" transform="matrix(-1.8369701987210297e-16,-1,1,-1.8369701987210297e-16,120,49.5590362548828)" style="stroke: none; fill: rgb(0, 0, 0); stroke-width: 1;"><path d=" M8.93,-4.29 L0,0 L8.93,4.29 Z"/></g></g><g class="arrow-line"><path class="connection real" stroke-dasharray="" d="  M120,149.56 L120,166.56" style="stroke: rgb(0, 0, 0); stroke-width: 1; fill: none;"/><g stroke="none" fill="#000" transform="matrix(-1.8369701987210297e-16,-1,1,-1.8369701987210297e-16,120,169.55903625488278)" style="stroke: none; fill: rgb(0, 0, 0); stroke-width: 1;"><path d=" M8.93,-4.29 L0,0 L8.93,4.29 Z"/></g></g><g/></g><g/><g/><g/></svg>
        <svg xmlns="http://www.w3.org/2000/svg" width="806.0004272460938" height="210.05857849121094" style="width:806.0004272460938px;height:210.05857849121094px;font-family:Asana-Math, Asana;background:transparent;"><g><g><g style="transform:matrix(1,0,0,1,24.7667236328125,81.48567199707031);"><path d="M345 437L329 437L350 549C366 635 394 673 440 673C470 673 497 658 512 634L522 638C527 654 537 685 545 705L550 720C534 727 503 733 480 733C469 733 453 730 445 726C421 715 339 654 316 630C294 608 282 578 271 521L256 442C215 422 195 414 170 405L165 383L246 383L237 327C207 132 170 -54 148 -123C130 -182 100 -213 64 -213C41 -213 30 -206 12 -184L-2 -188C-6 -211 -20 -259 -25 -268C-16 -273 -1 -276 10 -276C51 -276 105 -245 144 -198C215 -114 235 -18 319 383L423 383C427 402 434 425 440 439L436 446C407 439 408 437 345 437Z" stroke="rgb(0, 0, 0)" stroke-width="8" fill="rgb(0, 0, 0)" style="transform:matrix(0.017,0,0,-0.017,0,0);"></path></g></g></g><g><g><g style="transform:matrix(1,0,0,1,21.864166259765625,135.98870849609375);"><path d="M310 96L239 624C237 646 241 661 281 662L323 664L323 692L282 691C245 690 217 689 199 689C181 689 153 690 116 691L75 692L75 664L100 662C144 659 152 651 159 614L247 -8L296 -8L674 611C699 651 707 658 736 662L754 664L754 692L724 691C697 690 674 689 658 689C648 689 621 690 580 691L534 692L534 664L560 662C598 659 617 649 617 630C617 619 613 608 601 588Z" stroke="rgb(0, 0, 0)" stroke-width="8" fill="rgb(0, 0, 0)" style="transform:matrix(0.017,0,0,-0.017,0,0);"></path></g></g></g><g><g><g style="transform:matrix(1,0,0,1,22.4718017578125,25.984375);"><path d="M303 692L264 691C226 689 202 689 182 689C170 689 148 690 110 691L71 692L71 664L89 662C130 656 138 645 142 588L174 158C179 92 181 44 182 -8L232 -8C246 27 264 66 282 102L506 546L618 154C633 102 644 53 657 -8L708 -8L715 18C725 58 733 85 746 124L917 631C923 648 938 660 960 662L980 664L980 692L948 691C919 690 897 689 883 689C870 689 848 690 818 691L785 692L780 664L819 662C848 661 860 653 860 639C860 626 857 608 851 590L704 128L546 700L528 700C516 673 494 624 476 588L252 132L221 616C221 646 234 660 266 662L303 664Z" stroke="rgb(0, 0, 0)" stroke-width="8" fill="rgb(0, 0, 0)" style="transform:matrix(0.017,0,0,-0.017,0,0);"></path></g></g></g><g><g><g style="transform:matrix(1,0,0,1,194.775390625,141.47915649414062);"><path d="M345 437L329 437L350 549C366 635 394 673 440 673C470 673 497 658 512 634L522 638C527 654 537 685 545 705L550 720C534 727 503 733 480 733C469 733 453 730 445 726C421 715 339 654 316 630C294 608 282 578 271 521L256 442C215 422 195 414 170 405L165 383L246 383L237 327C207 132 170 -54 148 -123C130 -182 100 -213 64 -213C41 -213 30 -206 12 -184L-2 -188C-6 -211 -20 -259 -25 -268C-16 -273 -1 -276 10 -276C51 -276 105 -245 144 -198C215 -114 235 -18 319 383L423 383C427 402 434 425 440 439L436 446C407 439 408 437 345 437Z" stroke="rgb(0, 0, 0)" stroke-width="8" fill="rgb(0, 0, 0)" style="transform:matrix(0.017,0,0,-0.017,0,0);"></path></g></g></g><g><g><g style="transform:matrix(1,0,0,1,191.86196899414062,196.98045349121094);"><path d="M310 96L239 624C237 646 241 661 281 662L323 664L323 692L282 691C245 690 217 689 199 689C181 689 153 690 116 691L75 692L75 664L100 662C144 659 152 651 159 614L247 -8L296 -8L674 611C699 651 707 658 736 662L754 664L754 692L724 691C697 690 674 689 658 689C648 689 621 690 580 691L534 692L534 664L560 662C598 659 617 649 617 630C617 619 613 608 601 588Z" stroke="rgb(0, 0, 0)" stroke-width="8" fill="rgb(0, 0, 0)" style="transform:matrix(0.017,0,0,-0.017,0,0);"></path></g></g></g><g><g><g style="transform:matrix(1,0,0,1,211.48001098632812,106.98480224609375);"><path d="M303 692L264 691C226 689 202 689 182 689C170 689 148 690 110 691L71 692L71 664L89 662C130 656 138 645 142 588L174 158C179 92 181 44 182 -8L232 -8C246 27 264 66 282 102L506 546L618 154C633 102 644 53 657 -8L708 -8L715 18C725 58 733 85 746 124L917 631C923 648 938 660 960 662L980 664L980 692L948 691C919 690 897 689 883 689C870 689 848 690 818 691L785 692L780 664L819 662C848 661 860 653 860 639C860 626 857 608 851 590L704 128L546 700L528 700C516 673 494 624 476 588L252 132L221 616C221 646 234 660 266 662L303 664Z" stroke="rgb(0, 0, 0)" stroke-width="8" fill="rgb(0, 0, 0)" style="transform:matrix(0.017,0,0,-0.017,0,0);"></path></g></g></g><g><g><g style="transform:matrix(1,0,0,1,194.775390625,81.48567199707031);"><path d="M275 482C208 482 55 419 55 259C55 182 100 136 177 136C185 136 196 136 207 137L166 99C150 84 139 66 139 52C139 42 146 31 160 19C91 -4 -37 -48 -37 -159C-37 -230 33 -276 142 -276C271 -276 384 -204 384 -121C384 -85 363 -49 320 -14L260 35C226 62 213 81 213 100C213 114 228 128 240 146C338 170 409 253 409 342C409 357 406 376 405 380C422 378 430 378 439 378C456 378 466 379 489 382L498 427L495 433C467 426 447 424 393 424C393 425 369 482 275 482ZM176 1L253 -58C299 -94 318 -121 318 -154C318 -206 249 -248 166 -248C84 -248 27 -206 27 -145C27 -43 137 -11 176 1ZM250 448C308 448 337 412 337 341C337 238 289 168 219 168C158 168 126 209 126 288C126 383 177 448 250 448Z" stroke="rgb(0, 0, 0)" stroke-width="8" fill="rgb(0, 0, 0)" style="transform:matrix(0.017,0,0,-0.017,0,0);"></path></g></g></g><g><g><g style="transform:matrix(1,0,0,1,191.86196899414062,26.982635498046875);"><path d="M416 25L416 -3C464 -1 509 0 551 0C591 0 636 -1 684 -3L684 25L659 27C618 30 605 37 591 61L420 368L641 620C671 653 680 659 706 662L734 664L734 692L620 689C608 689 594 689 505 692L505 664L538 662C570 660 583 655 583 643C583 632 578 623 560 601L399 405L295 604C286 622 281 634 281 642C281 654 294 660 324 662L361 664L361 692L315 691C274 690 244 689 228 689C211 689 181 690 140 691L95 692L95 664L121 662C170 657 182 650 202 613L348 343L110 61C95 43 72 31 48 28L20 25L20 -3C69 -1 110 0 145 0C181 0 221 -1 264 -3L264 25L232 28C194 32 177 38 177 50C177 58 181 67 187 75L369 306L488 80C497 62 502 49 502 40C502 32 495 29 470 29L454 28Z" stroke="rgb(0, 0, 0)" stroke-width="8" fill="rgb(0, 0, 0)" style="transform:matrix(0.017,0,0,-0.017,0,0);"></path></g></g></g><g><g><g style="transform:matrix(1,0,0,1,111.85980224609375,26.982635498046875);"><path d="M416 25L416 -3C464 -1 509 0 551 0C591 0 636 -1 684 -3L684 25L659 27C618 30 605 37 591 61L420 368L641 620C671 653 680 659 706 662L734 664L734 692L620 689C608 689 594 689 505 692L505 664L538 662C570 660 583 655 583 643C583 632 578 623 560 601L399 405L295 604C286 622 281 634 281 642C281 654 294 660 324 662L361 664L361 692L315 691C274 690 244 689 228 689C211 689 181 690 140 691L95 692L95 664L121 662C170 657 182 650 202 613L348 343L110 61C95 43 72 31 48 28L20 25L20 -3C69 -1 110 0 145 0C181 0 221 -1 264 -3L264 25L232 28C194 32 177 38 177 50C177 58 181 67 187 75L369 306L488 80C497 62 502 49 502 40C502 32 495 29 470 29L454 28Z" stroke="rgb(0, 0, 0)" stroke-width="8" fill="rgb(0, 0, 0)" style="transform:matrix(0.017,0,0,-0.017,0,0);"></path></g></g></g><g><g><g style="transform:matrix(1,0,0,1,104.38369750976562,111.48783874511719);"><path d="M345 437L329 437L350 549C366 635 394 673 440 673C470 673 497 658 512 634L522 638C527 654 537 685 545 705L550 720C534 727 503 733 480 733C469 733 453 730 445 726C421 715 339 654 316 630C294 608 282 578 271 521L256 442C215 422 195 414 170 405L165 383L246 383L237 327C207 132 170 -54 148 -123C130 -182 100 -213 64 -213C41 -213 30 -206 12 -184L-2 -188C-6 -211 -20 -259 -25 -268C-16 -273 -1 -276 10 -276C51 -276 105 -245 144 -198C215 -114 235 -18 319 383L423 383C427 402 434 425 440 439L436 446C407 439 408 437 345 437Z" stroke="rgb(0, 0, 0)" stroke-width="8" fill="rgb(0, 0, 0)" style="transform:matrix(0.017,0,0,-0.017,0,0);"></path></g><g style="transform:matrix(1,0,0,1,116.50390625,111.48783874511719);"><path d="M342 271C342 352 277 417 195 417C112 417 47 352 47 271C47 188 112 124 195 124C277 124 342 188 342 271ZM304 271C304 209 254 161 195 161C133 161 85 209 85 271C85 331 133 380 195 380C254 380 304 331 304 271Z" stroke="rgb(0, 0, 0)" stroke-width="8" fill="rgb(0, 0, 0)" style="transform:matrix(0.017,0,0,-0.017,0,0);"></path></g><g style="transform:matrix(1,0,0,1,125.86807250976562,111.48783874511719);"><path d="M275 482C208 482 55 419 55 259C55 182 100 136 177 136C185 136 196 136 207 137L166 99C150 84 139 66 139 52C139 42 146 31 160 19C91 -4 -37 -48 -37 -159C-37 -230 33 -276 142 -276C271 -276 384 -204 384 -121C384 -85 363 -49 320 -14L260 35C226 62 213 81 213 100C213 114 228 128 240 146C338 170 409 253 409 342C409 357 406 376 405 380C422 378 430 378 439 378C456 378 466 379 489 382L498 427L495 433C467 426 447 424 393 424C393 425 369 482 275 482ZM176 1L253 -58C299 -94 318 -121 318 -154C318 -206 249 -248 166 -248C84 -248 27 -206 27 -145C27 -43 137 -11 176 1ZM250 448C308 448 337 412 337 341C337 238 289 168 219 168C158 168 126 209 126 288C126 383 177 448 250 448Z" stroke="rgb(0, 0, 0)" stroke-width="8" fill="rgb(0, 0, 0)" style="transform:matrix(0.017,0,0,-0.017,0,0);"></path></g></g></g><g><g><g style="transform:matrix(1,0,0,1,111.85980224609375,196.98045349121094);"><path d="M310 96L239 624C237 646 241 661 281 662L323 664L323 692L282 691C245 690 217 689 199 689C181 689 153 690 116 691L75 692L75 664L100 662C144 659 152 651 159 614L247 -8L296 -8L674 611C699 651 707 658 736 662L754 664L754 692L724 691C697 690 674 689 658 689C648 689 621 690 580 691L534 692L534 664L560 662C598 659 617 649 617 630C617 619 613 608 601 588Z" stroke="rgb(0, 0, 0)" stroke-width="8" fill="rgb(0, 0, 0)" style="transform:matrix(0.017,0,0,-0.017,0,0);"></path></g></g></g><g><g><g style="transform:matrix(1,0,0,1,156.58096313476562,106.98480224609375);"><path d="M604 347L604 406L65 406L65 347ZM604 134L604 193L65 193L65 134Z" stroke="rgb(0, 0, 0)" stroke-width="8" fill="rgb(0, 0, 0)" style="transform:matrix(0.017,0,0,-0.017,0,0);"></path></g></g></g></svg>
</svg>
