<svg xmlns="http://www.w3.org/2000/svg" width="807.96875" height="139.16665649414062" style="
        width:807.96875px;
        height:139.16665649414062px;
        background: transparent;
        fill: none;
">
        
        
        <svg xmlns="http://www.w3.org/2000/svg" class="role-diagram-draw-area"><g class="shapes-region" style="stroke: black; fill: none;"><g class="composite-shape"><path class="real" d=" M80,48.62 L120,48.62 L120,78.62 L80,78.62 Z" style="stroke-width: 1; stroke: rgb(0, 0, 0); fill: rgb(255, 255, 255);"/></g><g class="arrow-line"><path class="connection real" stroke-dasharray="" d="  M100,28.94 L100,49.11" style="stroke: rgb(0, 0, 0); stroke-width: 1; fill: none;"/></g><g class="arrow-line"><path class="connection real" stroke-dasharray="" d="  M140,29.02 L140,78.62" style="stroke: rgb(0, 0, 0); stroke-width: 1; fill: none;"/></g><g class="composite-shape"><path class="real" d=" M100,28.3 C100.17,17.4 109.06,8.62 120,8.62 C131.05,8.62 140,17.57 140,28.62 C140,28.72 140,28.83 140,28.94 L120,28.62 Z" style="stroke-width: 1; stroke: none; fill: none;"/><path class="real" d=" M100,28.3 C100.17,17.4 109.06,8.62 120,8.62 C131.05,8.62 140,17.57 140,28.62 C140,28.72 140,28.83 140,28.94" style="stroke-width: 1; stroke: rgb(0, 0, 0); fill: none;"/></g><g class="arrow-line"><path class="connection real" stroke-dasharray="" d="  M100,28.44 L100,36.11" style="stroke: rgb(0, 0, 0); stroke-width: 1; fill: none;"/><g stroke="none" fill="#000" transform="matrix(0.0003490658433098913,-0.9999999390765166,0.9999999390765166,0.0003490658433098913,99.99678305545564,39.11065632877343)" style="stroke: none; fill: rgb(0, 0, 0); stroke-width: 1;"><path d=" M8.93,-4.29 L0,0 L8.93,4.29 Z"/></g></g><g class="arrow-line"><path class="connection real" stroke-dasharray="" d="  M140,61.94 L140,69.11" style="stroke: rgb(0, 0, 0); stroke-width: 1; fill: none;"/><g stroke="none" fill="#000" transform="matrix(6.123233995736766e-17,1,-1,6.123233995736766e-17,139.99752874137664,58.936125480460646)" style="stroke: none; fill: rgb(0, 0, 0); stroke-width: 1;"><path d=" M8.93,-4.29 L0,0 L8.93,4.29 Z"/></g></g><g class="arrow-line"><path class="connection real" stroke-dasharray="" d="  M140,98.88 L140,78.62" style="stroke: rgb(0, 0, 0); stroke-width: 1; fill: none;"/></g><g class="arrow-line"><path class="connection real" stroke-dasharray="" d="  M100,98.79 L100,78.62" style="stroke: rgb(0, 0, 0); stroke-width: 1; fill: none;"/></g><g class="composite-shape"><path class="real" d=" M140,99.37 C139.9,110.34 130.98,119.2 120,119.2 C108.95,119.2 100,110.24 100,99.2 C100,99.09 100,98.99 100,98.88 L120,99.2 Z" style="stroke-width: 1; stroke: none; fill: none;"/><path class="real" d=" M140,99.37 C139.9,110.34 130.98,119.2 120,119.2 C108.95,119.2 100,110.24 100,99.2 C100,99.09 100,98.99 100,98.88" style="stroke-width: 1; stroke: rgb(0, 0, 0); fill: none;"/></g><g class="arrow-line"><path class="connection real" stroke-dasharray="" d="  M100,95.88 L100,88.71" style="stroke: rgb(0, 0, 0); stroke-width: 1; fill: none;"/><g stroke="none" fill="#000" transform="matrix(-1.8369701987210297e-16,-1,1,-1.8369701987210297e-16,99.99925431407877,98.88028436997318)" style="stroke: none; fill: rgb(0, 0, 0); stroke-width: 1;"><path d=" M8.93,-4.29 L0,0 L8.93,4.29 Z"/></g></g><g class="composite-shape"><path class="real" d=" M370,48.62 L330,48.62 L330,78.62 L370,78.62 Z" style="stroke-width: 1; stroke: rgb(0, 0, 0); fill: rgb(255, 255, 255);"/></g><g class="arrow-line"><path class="connection real" stroke-dasharray="" d="  M350,28.94 L350,49.11" style="stroke: rgb(0, 0, 0); stroke-width: 1; fill: none;"/></g><g class="arrow-line"><path class="connection real" stroke-dasharray="" d="  M310,29.02 L310,78.62" style="stroke: rgb(0, 0, 0); stroke-width: 1; fill: none;"/></g><g class="composite-shape"><path class="real" d=" M350,28.3 C349.83,17.4 340.94,8.62 330,8.62 C318.95,8.62 310,17.57 310,28.62 C310,28.72 310,28.83 310,28.94 L330,28.62 Z" style="stroke-width: 1; stroke: none; fill: none;"/><path class="real" d=" M350,28.3 C349.83,17.4 340.94,8.62 330,8.62 C318.95,8.62 310,17.57 310,28.62 C310,28.72 310,28.83 310,28.94" style="stroke-width: 1; stroke: rgb(0, 0, 0); fill: none;"/></g><g class="arrow-line"><path class="connection real" stroke-dasharray="" d="  M350,28.44 L350,36.11" style="stroke: rgb(0, 0, 0); stroke-width: 1; fill: none;"/><g stroke="none" fill="#000" transform="matrix(-0.0003490658433093705,-0.9999999390765166,0.9999999390765166,-0.0003490658433093705,350.00321694454436,39.110656328773416)" style="stroke: none; fill: rgb(0, 0, 0); stroke-width: 1;"><path d=" M8.93,-4.29 L0,0 L8.93,4.29 Z"/></g></g><g class="arrow-line"><path class="connection real" stroke-dasharray="" d="  M310,61.94 L310,69.11" style="stroke: rgb(0, 0, 0); stroke-width: 1; fill: none;"/><g stroke="none" fill="#000" transform="matrix(6.123233995736766e-17,1,-1,6.123233995736766e-17,310.00247125862336,58.936125480460646)" style="stroke: none; fill: rgb(0, 0, 0); stroke-width: 1;"><path d=" M8.93,-4.29 L0,0 L8.93,4.29 Z"/></g></g><g class="arrow-line"><path class="connection real" stroke-dasharray="" d="  M310,98.88 L310,78.62" style="stroke: rgb(0, 0, 0); stroke-width: 1; fill: none;"/></g><g class="arrow-line"><path class="connection real" stroke-dasharray="" d="  M350,98.79 L350,78.62" style="stroke: rgb(0, 0, 0); stroke-width: 1; fill: none;"/></g><g class="composite-shape"><path class="real" d=" M310,99.37 C310.1,110.34 319.02,119.2 330,119.2 C341.05,119.2 350,110.24 350,99.2 C350,99.09 350,98.99 350,98.88 L330,99.2 Z" style="stroke-width: 1; stroke: none; fill: none;"/><path class="real" d=" M310,99.37 C310.1,110.34 319.02,119.2 330,119.2 C341.05,119.2 350,110.24 350,99.2 C350,99.09 350,98.99 350,98.88" style="stroke-width: 1; stroke: rgb(0, 0, 0); fill: none;"/></g><g class="arrow-line"><path class="connection real" stroke-dasharray="" d="  M350,95.88 L350,88.71" style="stroke: rgb(0, 0, 0); stroke-width: 1; fill: none;"/><g stroke="none" fill="#000" transform="matrix(-1.8369701987210297e-16,-1,1,-1.8369701987210297e-16,350.00074568592123,98.8802843699732)" style="stroke: none; fill: rgb(0, 0, 0); stroke-width: 1;"><path d=" M8.93,-4.29 L0,0 L8.93,4.29 Z"/></g></g><g/></g><g/><g/><g/></svg>
        <svg xmlns="http://www.w3.org/2000/svg" width="805.9895629882812" height="137.1875" style="width:805.9895629882812px;height:137.1875px;font-family:Asana-Math, Asana;background:transparent;"><g><g><g style="transform:matrix(1,0,0,1,94.77212524414062,70.60678100585938);"><path d="M345 437L329 437L350 549C366 635 394 673 440 673C470 673 497 658 512 634L522 638C527 654 537 685 545 705L550 720C534 727 503 733 480 733C469 733 453 730 445 726C421 715 339 654 316 630C294 608 282 578 271 521L256 442C215 422 195 414 170 405L165 383L246 383L237 327C207 132 170 -54 148 -123C130 -182 100 -213 64 -213C41 -213 30 -206 12 -184L-2 -188C-6 -211 -20 -259 -25 -268C-16 -273 -1 -276 10 -276C51 -276 105 -245 144 -198C215 -114 235 -18 319 383L423 383C427 402 434 425 440 439L436 446C407 439 408 437 345 437Z" stroke="rgb(0, 0, 0)" stroke-width="8" fill="rgb(0, 0, 0)" style="transform:matrix(0.017,0,0,-0.017,0,0);"></path></g></g></g><g><g><g style="transform:matrix(1,0,0,1,56.725250244140625,66.11459350585938);"><path d="M604 347L604 406L65 406L65 347ZM604 134L604 193L65 193L65 134Z" stroke="rgb(0, 0, 0)" stroke-width="8" fill="rgb(0, 0, 0)" style="transform:matrix(0.017,0,0,-0.017,0,0);"></path></g></g></g><g><g><g style="transform:matrix(1,0,0,1,344.7720947265625,70.60678100585938);"><path d="M345 437L329 437L350 549C366 635 394 673 440 673C470 673 497 658 512 634L522 638C527 654 537 685 545 705L550 720C534 727 503 733 480 733C469 733 453 730 445 726C421 715 339 654 316 630C294 608 282 578 271 521L256 442C215 422 195 414 170 405L165 383L246 383L237 327C207 132 170 -54 148 -123C130 -182 100 -213 64 -213C41 -213 30 -206 12 -184L-2 -188C-6 -211 -20 -259 -25 -268C-16 -273 -1 -276 10 -276C51 -276 105 -245 144 -198C215 -114 235 -18 319 383L423 383C427 402 434 425 440 439L436 446C407 439 408 437 345 437Z" stroke="rgb(0, 0, 0)" stroke-width="8" fill="rgb(0, 0, 0)" style="transform:matrix(0.017,0,0,-0.017,0,0);"></path></g></g></g><g><g><g style="transform:matrix(1,0,0,1,12.037750244140625,65.4765625);"><path d="M98 382L98 94C98 20 131 -12 208 -12C231 -12 255 -7 261 0L309 53L296 70C271 56 256 51 237 51C198 51 182 71 182 120L182 382L310 382L319 436L182 430L182 468C182 510 185 546 193 610L181 621C157 606 127 593 96 583C99 553 100 534 100 504L100 434L22 399L22 378ZM348 400L385 400C425 400 429 393 429 327L429 102C429 39 426 32 392 30L346 27L346 -3C418 -1 444 0 469 0C489 0 489 0 612 -3L612 27L560 30C515 33 513 36 513 102L513 274C513 334 553 384 602 384C632 384 653 370 669 338L690 338L699 458C688 465 670 469 652 469C622 469 590 453 569 428L513 362L513 465L504 469C453 448 401 434 348 428Z" stroke="rgb(0, 0, 0)" stroke-width="8" fill="rgb(0, 0, 0)" style="transform:matrix(0.017,0,0,-0.017,0,0);"></path></g><g><g><g><g style="transform:matrix(1,0,0,1,24.75909423828125,68.47553100585938);"><path d="M23 661L79 661C97 661 104 650 104 620L104 102C104 39 101 32 67 30L21 27L21 -3C121 0 121 0 146 0C171 0 171 0 271 -3L271 27L225 30C191 32 188 39 188 102L188 718L179 726C135 709 102 701 23 689Z" stroke="rgb(0, 0, 0)" stroke-width="8" fill="rgb(0, 0, 0)" style="transform:matrix(0.0119,0,0,-0.0119,0,0);"></path></g></g></g></g><g style="transform:matrix(1,0,0,1,29.23828125,65.4765625);"><path d="M146 266C146 526 243 632 301 700L282 726C225 675 60 542 60 266C60 159 85 58 133 -32C168 -99 200 -138 282 -215L301 -194C255 -137 146 -15 146 266Z" stroke="rgb(0, 0, 0)" stroke-width="8" fill="rgb(0, 0, 0)" style="transform:matrix(0.017,0,0,-0.017,0,0);"></path></g><g style="transform:matrix(1,0,0,1,34.889312744140625,65.4765625);"><path d="M345 437L329 437L350 549C366 635 394 673 440 673C470 673 497 658 512 634L522 638C527 654 537 685 545 705L550 720C534 727 503 733 480 733C469 733 453 730 445 726C421 715 339 654 316 630C294 608 282 578 271 521L256 442C215 422 195 414 170 405L165 383L246 383L237 327C207 132 170 -54 148 -123C130 -182 100 -213 64 -213C41 -213 30 -206 12 -184L-2 -188C-6 -211 -20 -259 -25 -268C-16 -273 -1 -276 10 -276C51 -276 105 -245 144 -198C215 -114 235 -18 319 383L423 383C427 402 434 425 440 439L436 446C407 439 408 437 345 437Z" stroke="rgb(0, 0, 0)" stroke-width="8" fill="rgb(0, 0, 0)" style="transform:matrix(0.017,0,0,-0.017,0,0);"></path></g><g style="transform:matrix(1,0,0,1,44.23828125,65.4765625);"><path d="M51 726L32 700C87 636 187 526 187 266C187 -10 83 -131 32 -194L51 -215C104 -165 273 -23 273 265C273 542 108 675 51 726Z" stroke="rgb(0, 0, 0)" stroke-width="8" fill="rgb(0, 0, 0)" style="transform:matrix(0.017,0,0,-0.017,0,0);"></path></g></g></g><g><g><g style="transform:matrix(1,0,0,1,231.92706298828125,65.4765625);"><path d="M98 382L98 94C98 20 131 -12 208 -12C231 -12 255 -7 261 0L309 53L296 70C271 56 256 51 237 51C198 51 182 71 182 120L182 382L310 382L319 436L182 430L182 468C182 510 185 546 193 610L181 621C157 606 127 593 96 583C99 553 100 534 100 504L100 434L22 399L22 378ZM348 400L385 400C425 400 429 393 429 327L429 102C429 39 426 32 392 30L346 27L346 -3C418 -1 444 0 469 0C489 0 489 0 612 -3L612 27L560 30C515 33 513 36 513 102L513 274C513 334 553 384 602 384C632 384 653 370 669 338L690 338L699 458C688 465 670 469 652 469C622 469 590 453 569 428L513 362L513 465L504 469C453 448 401 434 348 428Z" stroke="rgb(0, 0, 0)" stroke-width="8" fill="rgb(0, 0, 0)" style="transform:matrix(0.017,0,0,-0.017,0,0);"></path></g><g><g><g><g style="transform:matrix(1,0,0,1,244.6484375,68.47553100585938);"><path d="M23 400L60 400C100 400 104 393 104 327L104 102C104 39 101 32 67 30L21 27L21 -3C93 -1 119 0 144 0C164 0 164 0 287 -3L287 27L235 30C190 33 188 36 188 102L188 274C188 334 228 384 277 384C307 384 328 370 344 338L365 338L374 458C363 465 345 469 327 469C297 469 265 453 244 428L188 362L188 465L179 469C128 448 76 434 23 428Z" stroke="rgb(0, 0, 0)" stroke-width="8" fill="rgb(0, 0, 0)" style="transform:matrix(0.0119,0,0,-0.0119,0,0);"></path></g></g></g></g><g style="transform:matrix(1,0,0,1,250.36456298828125,65.4765625);"><path d="M146 266C146 526 243 632 301 700L282 726C225 675 60 542 60 266C60 159 85 58 133 -32C168 -99 200 -138 282 -215L301 -194C255 -137 146 -15 146 266Z" stroke="rgb(0, 0, 0)" stroke-width="8" fill="rgb(0, 0, 0)" style="transform:matrix(0.017,0,0,-0.017,0,0);"></path></g><g style="transform:matrix(1,0,0,1,256.015625,65.4765625);"><path d="M345 437L329 437L350 549C366 635 394 673 440 673C470 673 497 658 512 634L522 638C527 654 537 685 545 705L550 720C534 727 503 733 480 733C469 733 453 730 445 726C421 715 339 654 316 630C294 608 282 578 271 521L256 442C215 422 195 414 170 405L165 383L246 383L237 327C207 132 170 -54 148 -123C130 -182 100 -213 64 -213C41 -213 30 -206 12 -184L-2 -188C-6 -211 -20 -259 -25 -268C-16 -273 -1 -276 10 -276C51 -276 105 -245 144 -198C215 -114 235 -18 319 383L423 383C427 402 434 425 440 439L436 446C407 439 408 437 345 437Z" stroke="rgb(0, 0, 0)" stroke-width="8" fill="rgb(0, 0, 0)" style="transform:matrix(0.017,0,0,-0.017,0,0);"></path></g><g style="transform:matrix(1,0,0,1,265.36456298828125,65.4765625);"><path d="M51 726L32 700C87 636 187 526 187 266C187 -10 83 -131 32 -194L51 -215C104 -165 273 -23 273 265C273 542 108 675 51 726Z" stroke="rgb(0, 0, 0)" stroke-width="8" fill="rgb(0, 0, 0)" style="transform:matrix(0.017,0,0,-0.017,0,0);"></path></g></g></g><g><g><g style="transform:matrix(1,0,0,1,286.7252197265625,66.11459350585938);"><path d="M604 347L604 406L65 406L65 347ZM604 134L604 193L65 193L65 134Z" stroke="rgb(0, 0, 0)" stroke-width="8" fill="rgb(0, 0, 0)" style="transform:matrix(0.017,0,0,-0.017,0,0);"></path></g></g></g></svg>
</svg>
