<svg xmlns="http://www.w3.org/2000/svg" width="810.0043334960938" height="186.1979217529297" style="
        width:810.0043334960938px;
        height:186.1979217529297px;
        background: transparent;
        fill: none;
">
        
        
        <svg xmlns="http://www.w3.org/2000/svg" class="role-diagram-draw-area"><g class="shapes-region" style="stroke: black; fill: none;"><g class="grouped-shape"><g class="grouped-shape"><g class="arrow-line"><path class="connection real" stroke-dasharray="" d="  M436,40.32 C435.52,110.19 355.52,70.19 356,140.32" style="stroke: rgb(255, 255, 255); stroke-width: 7; fill: none;"/></g><g class="arrow-line"><path class="connection real" stroke-dasharray="" d="  M436,40.32 C435.52,110.19 355.52,70.19 356,140.32" style="stroke: rgb(0, 0, 0); stroke-width: 1; fill: none;"/></g></g><g class="grouped-shape"><g class="arrow-line"><path class="connection real" stroke-dasharray="" d="  M416,40.32 C416,110.19 416,70.19 416,140.32" style="stroke: rgb(255, 255, 255); stroke-width: 7; fill: none;"/></g><g class="arrow-line"><path class="connection real" stroke-dasharray="" d="  M416,40.32 C416,110.19 416,70.19 416,140.32" style="stroke: rgb(0, 0, 0); stroke-width: 1; fill: none;"/></g></g><g class="grouped-shape"><g class="arrow-line"><path class="connection real" stroke-dasharray="" d="  M396,40.32 C395.88,110.19 375.88,70.19 376,140.32" style="stroke: rgb(255, 255, 255); stroke-width: 7; fill: none;"/></g><g class="arrow-line"><path class="connection real" stroke-dasharray="" d="  M396,40.32 C395.88,110.19 375.88,70.19 376,140.32" style="stroke: rgb(0, 0, 0); stroke-width: 1; fill: none;"/></g></g><g class="grouped-shape"><g class="arrow-line"><path class="connection real" stroke-dasharray="" d="  M376,40.32 C376.36,110.19 436.36,70.19 436,140.32" style="stroke: rgb(255, 255, 255); stroke-width: 7; fill: none;"/></g><g class="arrow-line"><path class="connection real" stroke-dasharray="" d="  M376,40.32 C376.36,110.19 436.36,70.19 436,140.32" style="stroke: rgb(0, 0, 0); stroke-width: 1; fill: none;"/></g></g><g class="grouped-shape"><g class="arrow-line"><path class="connection real" stroke-dasharray="" d="  M356,40.32 C356.24,110.19 396.24,70.19 396,140.32" style="stroke: rgb(255, 255, 255); stroke-width: 7; fill: none;"/></g><g class="arrow-line"><path class="connection real" stroke-dasharray="" d="  M356,40.32 C356.24,110.19 396.24,70.19 396,140.32" style="stroke: rgb(0, 0, 0); stroke-width: 1; fill: none;"/></g></g></g><g class="grouped-shape"><g class="arrow-line"><path class="connection real" stroke-dasharray="" d="  M596,10.32 C595.92,26.97 576.42,13.64 576.5,30.32" style="stroke: rgb(0, 0, 0); stroke-width: 1; fill: none;"/></g><g class="arrow-line"><path class="connection real" stroke-dasharray="" d="  M576.5,10.32 C576.58,26.97 596.08,13.64 596,30.32" style="stroke: rgb(255, 255, 255); stroke-width: 6; fill: none;"/></g><g class="arrow-line"><path class="connection real" stroke-dasharray="" d="  M576.5,10.32 C576.58,26.97 596.08,13.64 596,30.32" style="stroke: rgb(0, 0, 0); stroke-width: 1; fill: none;"/></g></g><g class="grouped-shape"><g class="arrow-line"><path class="connection real" stroke-dasharray="" d="  M576,30.32 C575.92,46.97 556.42,33.64 556.5,50.32" style="stroke: rgb(0, 0, 0); stroke-width: 1; fill: none;"/></g><g class="arrow-line"><path class="connection real" stroke-dasharray="" d="  M556.5,30.32 C556.58,46.97 576.08,33.64 576,50.32" style="stroke: rgb(255, 255, 255); stroke-width: 6; fill: none;"/></g><g class="arrow-line"><path class="connection real" stroke-dasharray="" d="  M556.5,30.32 C556.58,46.97 576.08,33.64 576,50.32" style="stroke: rgb(0, 0, 0); stroke-width: 1; fill: none;"/></g></g><g class="grouped-shape"><g class="arrow-line"><path class="connection real" stroke-dasharray="" d="  M556,50.32 C555.92,66.97 536.42,53.64 536.5,70.32" style="stroke: rgb(0, 0, 0); stroke-width: 1; fill: none;"/></g><g class="arrow-line"><path class="connection real" stroke-dasharray="" d="  M536.5,50.32 C536.58,66.97 556.08,53.64 556,70.32" style="stroke: rgb(255, 255, 255); stroke-width: 6; fill: none;"/></g><g class="arrow-line"><path class="connection real" stroke-dasharray="" d="  M536.5,50.32 C536.58,66.97 556.08,53.64 556,70.32" style="stroke: rgb(0, 0, 0); stroke-width: 1; fill: none;"/></g></g><g class="grouped-shape"><g class="arrow-line"><path class="connection real" stroke-dasharray="" d="  M536,70.32 C535.92,86.97 516.42,73.64 516.5,90.32" style="stroke: rgb(0, 0, 0); stroke-width: 1; fill: none;"/></g><g class="arrow-line"><path class="connection real" stroke-dasharray="" d="  M516.5,70.32 C516.58,86.97 536.08,73.64 536,90.32" style="stroke: rgb(255, 255, 255); stroke-width: 6; fill: none;"/></g><g class="arrow-line"><path class="connection real" stroke-dasharray="" d="  M516.5,70.32 C516.58,86.97 536.08,73.64 536,90.32" style="stroke: rgb(0, 0, 0); stroke-width: 1; fill: none;"/></g></g><g class="grouped-shape"><g class="arrow-line"><path class="connection real" stroke-dasharray="" d="  M576,110.32 C575.92,126.97 556.42,113.64 556.5,130.32" style="stroke: rgb(0, 0, 0); stroke-width: 1; fill: none;"/></g><g class="arrow-line"><path class="connection real" stroke-dasharray="" d="  M556.5,110.32 C556.58,126.97 576.08,113.64 576,130.32" style="stroke: rgb(255, 255, 255); stroke-width: 6; fill: none;"/></g><g class="arrow-line"><path class="connection real" stroke-dasharray="" d="  M556.5,110.32 C556.58,126.97 576.08,113.64 576,130.32" style="stroke: rgb(0, 0, 0); stroke-width: 1; fill: none;"/></g></g><g class="grouped-shape"><g class="arrow-line"><path class="connection real" stroke-dasharray="" d="  M556,130.32 C555.92,146.97 536.42,133.64 536.5,150.32" style="stroke: rgb(0, 0, 0); stroke-width: 1; fill: none;"/></g><g class="arrow-line"><path class="connection real" stroke-dasharray="" d="  M536.5,130.32 C536.58,146.97 556.08,133.64 556,150.32" style="stroke: rgb(255, 255, 255); stroke-width: 6; fill: none;"/></g><g class="arrow-line"><path class="connection real" stroke-dasharray="" d="  M536.5,130.32 C536.58,146.97 556.08,133.64 556,150.32" style="stroke: rgb(0, 0, 0); stroke-width: 1; fill: none;"/></g></g><g class="grouped-shape"><g class="arrow-line"><path class="connection real" stroke-dasharray="" d="  M596,150.32 C595.92,166.97 576.42,153.64 576.5,170.32" style="stroke: rgb(0, 0, 0); stroke-width: 1; fill: none;"/></g><g class="arrow-line"><path class="connection real" stroke-dasharray="" d="  M576.5,150.32 C576.58,166.97 596.08,153.64 596,170.32" style="stroke: rgb(255, 255, 255); stroke-width: 6; fill: none;"/></g><g class="arrow-line"><path class="connection real" stroke-dasharray="" d="  M576.5,150.32 C576.58,166.97 596.08,153.64 596,170.32" style="stroke: rgb(0, 0, 0); stroke-width: 1; fill: none;"/></g></g><g class="arrow-line"><path class="connection real" stroke-dasharray="" d="  M516,10.32 L516.5,70.32" style="stroke: rgb(0, 0, 0); stroke-width: 1; fill: none;"/></g><g class="arrow-line"><path class="connection real" stroke-dasharray="" d="  M536,10.32 L536.5,50.32" style="stroke: rgb(0, 0, 0); stroke-width: 1; fill: none;"/></g><g class="arrow-line"><path class="connection real" stroke-dasharray="" d="  M556,10.32 L556.5,30.32" style="stroke: rgb(0, 0, 0); stroke-width: 1; fill: none;"/></g><g class="arrow-line"><path class="connection real" stroke-dasharray="" d="  M596,30.32 L596,150.32" style="stroke: rgb(0, 0, 0); stroke-width: 1; fill: none;"/></g><g class="arrow-line"><path class="connection real" stroke-dasharray="" d="  M576,50.32 L576,110.32" style="stroke: rgb(0, 0, 0); stroke-width: 1; fill: none;"/></g><g class="arrow-line"><path class="connection real" stroke-dasharray="" d="  M556,70.32 L556.5,110.32" style="stroke: rgb(0, 0, 0); stroke-width: 1; fill: none;"/></g><g class="arrow-line"><path class="connection real" stroke-dasharray="" d="  M536,90.32 L536,130.32" style="stroke: rgb(0, 0, 0); stroke-width: 1; fill: none;"/></g><g class="arrow-line"><path class="connection real" stroke-dasharray="" d="  M516,170.32 L516.5,90.32" style="stroke: rgb(0, 0, 0); stroke-width: 1; fill: none;"/></g><g class="arrow-line"><path class="connection real" stroke-dasharray="" d="  M536.5,150.32 L536,170.32" style="stroke: rgb(0, 0, 0); stroke-width: 1; fill: none;"/></g><g class="arrow-line"><path class="connection real" stroke-dasharray="" d="  M556,150.32 L556,170.32" style="stroke: rgb(0, 0, 0); stroke-width: 1; fill: none;"/></g><g class="arrow-line"><path class="connection real" stroke-dasharray="" d="  M576,130.32 L576.5,150.32" style="stroke: rgb(0, 0, 0); stroke-width: 1; fill: none;"/></g><g/></g><g/><g/><g/></svg>
        <svg xmlns="http://www.w3.org/2000/svg" width="808.0150146484375" height="184.2086181640625" style="width:808.0150146484375px;height:184.2086181640625px;font-family:Asana-Math, Asana;background:transparent;"><g><g><text x="12.9078369140625" y="81.71476745605469" style="white-space:pre;stroke:none;fill:rgb(0, 0, 0);font-size:15px;font-family:Arial, Helvetica, sans-serif;font-weight:400;font-style:normal;dominant-baseline:text-before-edge;text-decoration:none solid rgb(0, 0, 0);">levels = (1,2,3,4,5), permutation = (5,3,1,4,2): </text></g></g><g><g><g style="transform:matrix(1,0,0,1,467.34844970703125,97.18663024902344);"><path d="M604 347L604 406L65 406L65 347ZM604 134L604 193L65 193L65 134Z" stroke="rgb(0, 0, 0)" stroke-width="8" fill="rgb(0, 0, 0)" style="transform:matrix(0.017,0,0,-0.017,0,0);"></path></g></g></g></svg>
</svg>
