<svg xmlns="http://www.w3.org/2000/svg" width="780" height="361" style="
        width:780px;
        height:361px;
        background: transparent;
        fill: none;
">
        
        
        <svg xmlns="http://www.w3.org/2000/svg" class="role-diagram-draw-area"><g class="shapes-region" style="stroke: black; fill: none;"><g class="composite-shape"><path class="real" d=" M450,263.5 L470,263.5 L470,273.5 L450,273.5 Z" style="stroke-width: 1; stroke: none; fill: rgb(126, 211, 33);"/></g><g class="composite-shape"><path class="real" d=" M470,273.5 L490,273.5 L490,283.5 L470,283.5 Z" style="stroke-width: 1; stroke: none; fill: rgb(126, 211, 33);"/></g><g class="composite-shape"><path class="real" d=" M490,283.5 L510,283.5 L510,293.5 L490,293.5 Z" style="stroke-width: 1; stroke: none; fill: rgb(126, 211, 33);"/></g><g class="composite-shape"><path class="real" d=" M510,293.5 L530,293.5 L530,303.5 L510,303.5 Z" style="stroke-width: 1; stroke: none; fill: rgb(126, 211, 33);"/></g><g class="composite-shape"><path class="real" d=" M530,303.5 L550,303.5 L550,313.5 L530,313.5 Z" style="stroke-width: 1; stroke: none; fill: rgb(126, 211, 33);"/></g><g class="composite-shape"><path class="real" d=" M220,73.5 L250,73.5 L250,123.5 L220,123.5 Z" style="stroke-width: 1; stroke: none; fill: rgb(126, 211, 33);"/></g><g class="composite-shape"><path class="real" d=" M250,123.5 L280,123.5 L280,173.5 L250,173.5 Z" style="stroke-width: 1; stroke: none; fill: rgb(126, 211, 33);"/></g><g class="composite-shape"><path class="real" d=" M280,173.5 L310,173.5 L310,203.5 L280,203.5 Z" style="stroke-width: 1; stroke: none; fill: rgb(126, 211, 33);"/></g><g class="composite-shape"><path class="real" d=" M310,203.5 L340,203.5 L340,233.5 L310,233.5 Z" style="stroke-width: 1; stroke: none; fill: rgb(126, 211, 33);"/></g><g class="composite-shape"><path class="real" d=" M340,233.5 L370,233.5 L370,263.5 L340,263.5 Z" style="stroke-width: 1; stroke: none; fill: rgb(126, 211, 33);"/></g><g class="composite-shape"><path class="real" d=" M370,73.5 L390,73.5 L390,123.5 L370,123.5 Z" style="stroke-width: 1; stroke: none; fill: rgb(126, 211, 33);"/></g><g class="composite-shape"><path class="real" d=" M390,123.5 L410,123.5 L410,173.5 L390,173.5 Z" style="stroke-width: 1; stroke: none; fill: rgb(126, 211, 33);"/></g><g class="composite-shape"><path class="real" d=" M410,73.5 L430,73.5 L430,123.5 L410,123.5 Z" style="stroke-width: 1; stroke: none; fill: rgb(126, 211, 33);"/></g><g class="composite-shape"><path class="real" d=" M430,123.5 L450,123.5 L450,173.5 L430,173.5 Z" style="stroke-width: 1; stroke: none; fill: rgb(126, 211, 33);"/></g><g class="composite-shape"><path class="real" d=" M450,73.5 L550,73.5 L550,173.5 L450,173.5 Z" style="stroke-width: 1; stroke: none; fill: rgb(208, 2, 27);"/></g><g class="composite-shape"><path class="real" d=" M370,173.5 L550,173.5 L550,263.5 L370,263.5 Z" style="stroke-width: 1; stroke: none; fill: rgb(208, 2, 27);"/></g><g class="composite-shape"><path class="real" d=" M220,263.5 L450,263.5 L450,313.5 L220,313.5 Z" style="stroke-width: 1; stroke: none; fill: rgb(208, 2, 27);"/></g><g class="composite-shape"><path class="real" d=" M220,173.5 L280,173.5 L280,263.5 L220,263.5 Z" style="stroke-width: 1; stroke: none; fill: rgb(208, 2, 27);"/></g><g class="composite-shape"><path class="real" d=" M280,73.5 L370,73.5 L370,173.5 L280,173.5 Z" style="stroke-width: 1; stroke: none; fill: rgb(208, 2, 27);"/></g><g class="composite-shape"><path class="real" d=" M220,73.5 L550,73.5 L550,313.5 L220,313.5 Z" style="stroke-width: 3; stroke: rgb(0, 0, 0); fill: none;"/></g><g class="arrow-line"><path class="connection real" stroke-dasharray="" d="  M220,173.5 Q222.5,171 225,173.5 Q227.5,176 230,173.5 Q232.5,171 235,173.5 Q237.5,176 240,173.5 Q242.5,171 245,173.5 Q247.5,176 250,173.5 Q252.5,171 255,173.5 Q257.5,176 260,173.5 Q262.5,171 265,173.5 Q267.5,176 270,173.5 Q272.5,171 275,173.5 Q277.5,176 280,173.5 Q282.5,171 285,173.5 Q287.5,176 290,173.5 Q292.5,171 295,173.5 Q297.5,176 300,173.5 Q302.5,171 305,173.5 Q307.5,176 310,173.5 Q312.5,171 315,173.5 Q317.5,176 320,173.5 Q322.5,171 325,173.5 Q327.5,176 330,173.5 Q332.5,171 335,173.5 Q337.5,176 340,173.5 Q342.5,171 345,173.5 Q347.5,176 350,173.5 Q352.5,171 355,173.5 Q357.5,176 360,173.5 Q362.5,171 365,173.5 Q367.5,176 370,173.5 Q372.5,171 375,173.5 Q377.5,176 380,173.5 Q382.5,171 385,173.5 Q387.5,176 390,173.5 Q392.5,171 395,173.5 Q397.5,176 400,173.5 Q402.5,171 405,173.5 Q407.5,176 410,173.5 Q412.5,171 415,173.5 Q417.5,176 420,173.5 Q422.5,171 425,173.5 Q427.5,176 430,173.5 Q432.5,171 435,173.5 Q437.5,176 440,173.5 Q442.5,171 445,173.5 Q447.5,176 450,173.5 Q452.5,171 455,173.5 Q457.5,176 460,173.5 Q462.5,171 465,173.5 Q467.5,176 470,173.5 Q472.5,171 475,173.5 Q477.5,176 480,173.5 Q482.5,171 485,173.5 Q487.5,176 490,173.5 Q492.5,171 495,173.5 Q497.5,176 500,173.5 Q502.5,171 505,173.5 Q507.5,176 510,173.5 Q512.5,171 515,173.5 Q517.5,176 520,173.5 Q522.5,171 525,173.5 Q527.5,176 530,173.5 Q532.5,171 535,173.5 Q537.5,176 540,173.5 Q542.5,171 545,173.5 Q547.5,176 550,173.5 L550,173.5" style="stroke: rgb(0, 0, 0); stroke-width: 3; fill: none;"/></g><g class="arrow-line"><path class="connection real" stroke-dasharray="" d="  M220,263.5 Q222.5,261 225,263.5 Q227.5,266 230,263.5 Q232.5,261 235,263.5 Q237.5,266 240,263.5 Q242.5,261 245,263.5 Q247.5,266 250,263.5 Q252.5,261 255,263.5 Q257.5,266 260,263.5 Q262.5,261 265,263.5 Q267.5,266 270,263.5 Q272.5,261 275,263.5 Q277.5,266 280,263.5 Q282.5,261 285,263.5 Q287.5,266 290,263.5 Q292.5,261 295,263.5 Q297.5,266 300,263.5 Q302.5,261 305,263.5 Q307.5,266 310,263.5 Q312.5,261 315,263.5 Q317.5,266 320,263.5 Q322.5,261 325,263.5 Q327.5,266 330,263.5 Q332.5,261 335,263.5 Q337.5,266 340,263.5 Q342.5,261 345,263.5 Q347.5,266 350,263.5 Q352.5,261 355,263.5 Q357.5,266 360,263.5 Q362.5,261 365,263.5 Q367.5,266 370,263.5 Q372.5,261 375,263.5 Q377.5,266 380,263.5 Q382.5,261 385,263.5 Q387.5,266 390,263.5 Q392.5,261 395,263.5 Q397.5,266 400,263.5 Q402.5,261 405,263.5 Q407.5,266 410,263.5 Q412.5,261 415,263.5 Q417.5,266 420,263.5 Q422.5,261 425,263.5 Q427.5,266 430,263.5 Q432.5,261 435,263.5 Q437.5,266 440,263.5 Q442.5,261 445,263.5 Q447.5,266 450,263.5 Q452.5,261 455,263.5 Q457.5,266 460,263.5 Q462.5,261 465,263.5 Q467.5,266 470,263.5 Q472.5,261 475,263.5 Q477.5,266 480,263.5 Q482.5,261 485,263.5 Q487.5,266 490,263.5 Q492.5,261 495,263.5 Q497.5,266 500,263.5 Q502.5,261 505,263.5 Q507.5,266 510,263.5 Q512.5,261 515,263.5 Q517.5,266 520,263.5 Q522.5,261 525,263.5 Q527.5,266 530,263.5 Q532.5,261 535,263.5 Q537.5,266 540,263.5 Q542.5,261 545,263.5 Q547.5,266 550,263.5 L550,263.5" style="stroke: rgb(0, 0, 0); stroke-width: 3; fill: none;"/></g><g class="arrow-line"><path class="connection real" stroke-dasharray="1.125 3.35" d="  M220,123.5 L550,123.5" style="stroke: rgb(0, 0, 0); stroke-width: 1; fill: none;"/></g><g class="arrow-line"><path class="connection real" stroke-dasharray="1.125 3.35" d="  M310,173.5 L310,263.5" style="stroke: rgb(0, 0, 0); stroke-width: 1; fill: none;"/></g><g class="arrow-line"><path class="connection real" stroke-dasharray="" d="  M370,73.5 L370,313.5" style="stroke: rgb(0, 0, 0); stroke-width: 5; fill: none;"/></g><g class="arrow-line"><path class="connection real" stroke-dasharray="6 6" d="  M280,73.5 L280,313.5" style="stroke: rgb(0, 0, 0); stroke-width: 1; fill: none;"/></g><g class="arrow-line"><path class="connection real" stroke-dasharray="6 6" d="  M410,73.5 L410,313.5" style="stroke: rgb(0, 0, 0); stroke-width: 1; fill: none;"/></g><g class="arrow-line"><path class="connection real" stroke-dasharray="6 6" d="  M450,73.5 L450,313.5" style="stroke: rgb(0, 0, 0); stroke-width: 1; fill: none;"/></g><g class="composite-shape"><path class="real" d=" M221.96,130.65 Q221.96,136.21 227.52,136.21 L227.52,136.21 Q235.46,136.21 235.46,141.77 Q235.46,136.21 243.4,136.21 M241.02,136.21 L243.4,136.21 Q248.96,136.21 248.96,130.65" style="stroke-width: 1; stroke: rgb(0, 0, 0); fill: none;"/><!-- react-text: 150726 -->/&gt;<!-- /react-text --></g><g class="composite-shape"><path class="real" d=" M558,120.23 Q565,120.23 565,113.23 L565,108.73 Q565,98.73 572,98.73 Q565,98.73 565,88.73 M565,91.73 L565,84.23 Q565,77.23 558,77.23" style="stroke-width: 1; stroke: rgb(0, 0, 0); fill: none;"/><!-- react-text: 150730 -->/&gt;<!-- /react-text --></g><g class="composite-shape"><path class="real" d=" M561.5,202.04 Q566.76,202.04 566.76,196.78 L566.76,196.78 Q566.76,189.27 572.02,189.27 Q566.76,189.27 566.76,181.76 M566.76,184.01 L566.76,181.76 Q566.76,176.5 561.5,176.5" style="stroke-width: 1; stroke: rgb(0, 0, 0); fill: none;"/><!-- react-text: 150734 -->/&gt;<!-- /react-text --></g><g class="composite-shape"><path class="real" d=" M558.5,284.04 Q560.46,284.04 560.46,282.08 L560.46,282.08 Q560.46,279.27 562.43,279.27 Q560.46,279.27 560.46,276.46 M560.46,277.31 L560.46,276.46 Q560.46,274.5 558.5,274.5" style="stroke-width: 1; stroke: rgb(0, 0, 0); fill: none;"/><!-- react-text: 150738 -->/&gt;<!-- /react-text --></g><g class="arrow-line"><path class="connection real" stroke-dasharray="1.125 3.35" d="  M250,173.5 L250,73.5" style="stroke: rgb(0, 0, 0); stroke-width: 1; fill: none;"/></g><g class="arrow-line"><path class="connection real" stroke-dasharray="1.125 3.35" d="  M340,173.5 L340,263.5" style="stroke: rgb(0, 0, 0); stroke-width: 1; fill: none;"/></g><g class="arrow-line"><path class="connection real" stroke-dasharray="1.125 3.35" d="  M220,203.5 L550,203.5" style="stroke: rgb(0, 0, 0); stroke-width: 1; fill: none;"/></g><g class="arrow-line"><path class="connection real" stroke-dasharray="1.125 3.35" d="  M220,233.5 L550,233.5" style="stroke: rgb(0, 0, 0); stroke-width: 1; fill: none;"/></g><g class="arrow-line"><path class="connection real" stroke-dasharray="1.125 3.35" d="  M390,173.5 L390,73.5" style="stroke: rgb(0, 0, 0); stroke-width: 1; fill: none;"/></g><g class="arrow-line"><path class="connection real" stroke-dasharray="1.125 3.35" d="  M430,173.5 L430,73.5" style="stroke: rgb(0, 0, 0); stroke-width: 1; fill: none;"/></g><g class="arrow-line"><path class="connection real" stroke-dasharray="1.125 3.35" d="  M220,273.5 L550,273.5" style="stroke: rgb(0, 0, 0); stroke-width: 1; fill: none;"/></g><g class="arrow-line"><path class="connection real" stroke-dasharray="1.125 3.35" d="  M220,283.5 L550,283.5" style="stroke: rgb(0, 0, 0); stroke-width: 1; fill: none;"/></g><g class="arrow-line"><path class="connection real" stroke-dasharray="1.125 3.35" d="  M220,293.5 L550,293.5" style="stroke: rgb(0, 0, 0); stroke-width: 1; fill: none;"/></g><g class="arrow-line"><path class="connection real" stroke-dasharray="1.125 3.35" d="  M220,303.5 L550,303.5" style="stroke: rgb(0, 0, 0); stroke-width: 1; fill: none;"/></g><g class="arrow-line"><path class="connection real" stroke-dasharray="1.125 3.35" d="  M470,263.5 L470,313.5" style="stroke: rgb(0, 0, 0); stroke-width: 1; fill: none;"/></g><g class="arrow-line"><path class="connection real" stroke-dasharray="1.125 3.35" d="  M510,263.5 L510,313.5" style="stroke: rgb(0, 0, 0); stroke-width: 1; fill: none;"/></g><g class="arrow-line"><path class="connection real" stroke-dasharray="1.125 3.35" d="  M530,263.5 L530,313.5" style="stroke: rgb(0, 0, 0); stroke-width: 1; fill: none;"/></g><g class="arrow-line"><path class="connection real" stroke-dasharray="1.125 3.35" d="  M490,263.5 L490,313.5" style="stroke: rgb(0, 0, 0); stroke-width: 1; fill: none;"/></g><g class="composite-shape"><path class="real" d=" M280.5,205.04 Q280.5,210.69 286.15,210.69 L286.15,210.69 Q294.23,210.69 294.23,216.35 Q294.23,210.69 302.31,210.69 M299.88,210.69 L302.31,210.69 Q307.96,210.69 307.96,205.04" style="stroke-width: 1; stroke: rgb(0, 0, 0); fill: none;"/><!-- react-text: 150784 -->/&gt;<!-- /react-text --></g><g class="composite-shape"><path class="real" d=" M372.5,129.04 Q372.5,132.43 375.89,132.43 L375.89,132.43 Q380.73,132.43 380.73,135.82 Q380.73,132.43 385.57,132.43 M384.12,132.43 L385.57,132.43 Q388.96,132.43 388.96,129.04" style="stroke-width: 1; stroke: rgb(0, 0, 0); fill: none;"/><!-- react-text: 150788 -->/&gt;<!-- /react-text --></g><g/></g><g/><g/><g/></svg>
        <svg xmlns="http://www.w3.org/2000/svg" width="778" height="359" style="width:778px;height:359px;font-family:Asana-Math, Asana;background:transparent;"><g><g><g style="transform:matrix(1,0,0,1,155.1875,120.5);"><path d="M146 266C146 526 243 632 301 700L282 726C225 675 60 542 60 266C60 159 85 58 133 -32C168 -99 200 -138 282 -215L301 -194C255 -137 146 -15 146 266Z" stroke="rgb(0, 0, 0)" stroke-width="8" fill="rgb(0, 0, 0)" style="transform:matrix(0.017,0,0,-0.017,0,0);"></path></g><g style="transform:matrix(1,0,0,1,160.84375,120.5);"><path d="M271 204L242 77C238 60 236 42 236 26C236 4 245 -9 260 -9C283 -9 324 17 406 85L399 106C375 86 346 59 324 59C315 59 309 68 309 82C309 87 309 90 310 93L402 472L392 481L359 463C318 478 301 482 274 482C246 482 226 477 199 464C137 433 104 403 79 354C35 265 4 145 4 67C4 23 19 -11 38 -11C75 -11 155 41 271 204ZM319 414C297 305 278 253 244 201C187 117 126 59 94 59C82 59 76 72 76 99C76 163 104 280 139 360C163 415 186 433 234 433C257 433 275 429 319 414Z" stroke="rgb(0, 0, 0)" stroke-width="8" fill="rgb(0, 0, 0)" style="transform:matrix(0.017,0,0,-0.017,0,0);"></path></g><g style="transform:matrix(1,0,0,1,171.359375,120.5);"><path d="M499 116C469 116 442 88 442 58C442 28 469 0 498 0C530 0 558 27 558 58C558 88 530 116 499 116ZM166 116C136 116 109 88 109 58C109 28 136 0 165 0C197 0 225 27 225 58C225 88 197 116 166 116ZM832 116C802 116 775 88 775 58C775 28 802 0 831 0C863 0 891 27 891 58C891 88 863 116 832 116Z" stroke="rgb(0, 0, 0)" stroke-width="8" fill="rgb(0, 0, 0)" style="transform:matrix(0.017,0,0,-0.017,0,0);"></path></g><g style="transform:matrix(1,0,0,1,191.359375,120.5);"><path d="M51 726L32 700C87 636 187 526 187 266C187 -10 83 -131 32 -194L51 -215C104 -165 273 -23 273 265C273 542 108 675 51 726Z" stroke="rgb(0, 0, 0)" stroke-width="8" fill="rgb(0, 0, 0)" style="transform:matrix(0.017,0,0,-0.017,0,0);"></path></g></g></g><g><g><g style="transform:matrix(1,0,0,1,152.828125,220.5);"><path d="M146 266C146 526 243 632 301 700L282 726C225 675 60 542 60 266C60 159 85 58 133 -32C168 -99 200 -138 282 -215L301 -194C255 -137 146 -15 146 266Z" stroke="rgb(0, 0, 0)" stroke-width="8" fill="rgb(0, 0, 0)" style="transform:matrix(0.017,0,0,-0.017,0,0);"></path></g><g style="transform:matrix(1,0,0,1,158.484375,220.5);"><path d="M271 204L242 77C238 60 236 42 236 26C236 4 245 -9 260 -9C283 -9 324 17 406 85L399 106C375 86 346 59 324 59C315 59 309 68 309 82C309 87 309 90 310 93L402 472L392 481L359 463C318 478 301 482 274 482C246 482 226 477 199 464C137 433 104 403 79 354C35 265 4 145 4 67C4 23 19 -11 38 -11C75 -11 155 41 271 204ZM319 414C297 305 278 253 244 201C187 117 126 59 94 59C82 59 76 72 76 99C76 163 104 280 139 360C163 415 186 433 234 433C257 433 275 429 319 414Z" stroke="rgb(0, 0, 0)" stroke-width="8" fill="rgb(0, 0, 0)" style="transform:matrix(0.017,0,0,-0.017,0,0);"></path></g><g style="transform:matrix(1,0,0,1,169,220.5);"><path d="M499 116C469 116 442 88 442 58C442 28 469 0 498 0C530 0 558 27 558 58C558 88 530 116 499 116ZM166 116C136 116 109 88 109 58C109 28 136 0 165 0C197 0 225 27 225 58C225 88 197 116 166 116ZM832 116C802 116 775 88 775 58C775 28 802 0 831 0C863 0 891 27 891 58C891 88 863 116 832 116Z" stroke="rgb(0, 0, 0)" stroke-width="8" fill="rgb(0, 0, 0)" style="transform:matrix(0.017,0,0,-0.017,0,0);"></path></g><g style="transform:matrix(1,0,0,1,189,220.5);"><path d="M51 726L32 700C87 636 187 526 187 266C187 -10 83 -131 32 -194L51 -215C104 -165 273 -23 273 265C273 542 108 675 51 726Z" stroke="rgb(0, 0, 0)" stroke-width="8" fill="rgb(0, 0, 0)" style="transform:matrix(0.017,0,0,-0.017,0,0);"></path></g><g style="transform:matrix(1,0,0,1,194.65625,220.5);"><path d="M104 470C161 543 199 610 233 696L220 709C184 697 174 694 123 679C117 599 93 533 45 456L60 446Z" stroke="rgb(0, 0, 0)" stroke-width="8" fill="rgb(0, 0, 0)" style="transform:matrix(0.017,0,0,-0.017,0,0);"></path></g></g></g><g><g><g style="transform:matrix(1,0,0,1,155.9765625,300.5);"><path d="M146 266C146 526 243 632 301 700L282 726C225 675 60 542 60 266C60 159 85 58 133 -32C168 -99 200 -138 282 -215L301 -194C255 -137 146 -15 146 266Z" stroke="rgb(0, 0, 0)" stroke-width="8" fill="rgb(0, 0, 0)" style="transform:matrix(0.017,0,0,-0.017,0,0);"></path></g><g style="transform:matrix(1,0,0,1,161.6328125,300.5);"><path d="M271 204L242 77C238 60 236 42 236 26C236 4 245 -9 260 -9C283 -9 324 17 406 85L399 106C375 86 346 59 324 59C315 59 309 68 309 82C309 87 309 90 310 93L402 472L392 481L359 463C318 478 301 482 274 482C246 482 226 477 199 464C137 433 104 403 79 354C35 265 4 145 4 67C4 23 19 -11 38 -11C75 -11 155 41 271 204ZM319 414C297 305 278 253 244 201C187 117 126 59 94 59C82 59 76 72 76 99C76 163 104 280 139 360C163 415 186 433 234 433C257 433 275 429 319 414Z" stroke="rgb(0, 0, 0)" stroke-width="8" fill="rgb(0, 0, 0)" style="transform:matrix(0.017,0,0,-0.017,0,0);"></path></g><g style="transform:matrix(1,0,0,1,172.1484375,300.5);"><path d="M499 116C469 116 442 88 442 58C442 28 469 0 498 0C530 0 558 27 558 58C558 88 530 116 499 116ZM166 116C136 116 109 88 109 58C109 28 136 0 165 0C197 0 225 27 225 58C225 88 197 116 166 116ZM832 116C802 116 775 88 775 58C775 28 802 0 831 0C863 0 891 27 891 58C891 88 863 116 832 116Z" stroke="rgb(0, 0, 0)" stroke-width="8" fill="rgb(0, 0, 0)" style="transform:matrix(0.017,0,0,-0.017,0,0);"></path></g><g style="transform:matrix(1,0,0,1,192.1484375,300.5);"><path d="M51 726L32 700C87 636 187 526 187 266C187 -10 83 -131 32 -194L51 -215C104 -165 273 -23 273 265C273 542 108 675 51 726Z" stroke="rgb(0, 0, 0)" stroke-width="8" fill="rgb(0, 0, 0)" style="transform:matrix(0.017,0,0,-0.017,0,0);"></path></g><g style="transform:matrix(1,0,0,1,197.8046875,300.5);"><path d="M104 470C161 543 199 610 233 696L220 709C184 697 174 694 123 679C117 599 93 533 45 456L60 446ZM381 470C438 543 476 610 510 696L497 709C461 697 451 694 400 679C394 599 370 533 322 456L337 446Z" stroke="rgb(0, 0, 0)" stroke-width="8" fill="rgb(0, 0, 0)" style="transform:matrix(0.017,0,0,-0.017,0,0);"></path></g></g></g><g><g><g style="transform:matrix(1,0,0,1,242.1796875,60.5);"><path d="M342 330L365 330C373 395 380 432 389 458C365 473 330 482 293 482C248 483 175 463 118 400C64 352 25 241 25 136C25 40 67 -11 147 -11C201 -11 249 9 304 54L354 95L346 115L331 105C259 57 221 40 186 40C130 40 101 80 101 159C101 267 136 371 185 409C206 425 230 433 261 433C306 433 342 414 342 390Z" stroke="rgb(0, 0, 0)" stroke-width="8" fill="rgb(0, 0, 0)" style="transform:matrix(0.017,0,0,-0.017,0,0);"></path></g><g style="transform:matrix(1,0,0,1,249.0703125,60.5);"><path d="M204 123C177 114 159 108 106 93C99 17 74 -48 16 -144L30 -155L71 -136C152 -31 190 32 218 109Z" stroke="rgb(0, 0, 0)" stroke-width="8" fill="rgb(0, 0, 0)" style="transform:matrix(0.017,0,0,-0.017,0,0);"></path></g><g style="transform:matrix(1,0,0,1,256.2890625,60.5);"><path d="M400 -16C446 -16 513 54 545 84L545 97L532 97C513 79 489 55 462 55C417 55 424 184 424 216C474 278 520 343 558 413C551 428 544 444 536 459L525 459C511 391 456 315 420 257C422 336 445 472 332 473C164 473 27 243 24 93C23 33 43 -16 111 -16C203 -16 297 64 357 131C357 96 348 -15 400 -16ZM284 437C371 437 358 224 357 164C314 113 233 28 162 28C109 28 98 70 99 115C100 202 175 437 284 437Z" stroke="rgb(0, 0, 0)" stroke-width="8" fill="rgb(0, 0, 0)" style="transform:matrix(0.017,0,0,-0.017,0,0);"></path></g></g></g><g><g><g style="transform:matrix(1,0,0,1,301.828125,60.5);"><path d="M342 330L365 330C373 395 380 432 389 458C365 473 330 482 293 482C248 483 175 463 118 400C64 352 25 241 25 136C25 40 67 -11 147 -11C201 -11 249 9 304 54L354 95L346 115L331 105C259 57 221 40 186 40C130 40 101 80 101 159C101 267 136 371 185 409C206 425 230 433 261 433C306 433 342 414 342 390Z" stroke="rgb(0, 0, 0)" stroke-width="8" fill="rgb(0, 0, 0)" style="transform:matrix(0.017,0,0,-0.017,0,0);"></path></g><g style="transform:matrix(1,0,0,1,308.71875,60.5);"><path d="M204 123C177 114 159 108 106 93C99 17 74 -48 16 -144L30 -155L71 -136C152 -31 190 32 218 109Z" stroke="rgb(0, 0, 0)" stroke-width="8" fill="rgb(0, 0, 0)" style="transform:matrix(0.017,0,0,-0.017,0,0);"></path></g><g style="transform:matrix(1,0,0,1,315.9375,60.5);"><path d="M400 -16C446 -16 513 54 545 84L545 97L532 97C513 79 489 55 462 55C417 55 424 184 424 216C474 278 520 343 558 413C551 428 544 444 536 459L525 459C511 391 456 315 420 257C422 336 445 472 332 473C164 473 27 243 24 93C23 33 43 -16 111 -16C203 -16 297 64 357 131C357 96 348 -15 400 -16ZM284 437C371 437 358 224 357 164C314 113 233 28 162 28C109 28 98 70 99 115C100 202 175 437 284 437ZM698 470C755 543 793 610 827 696L814 709C778 697 768 694 717 679C711 599 687 533 639 456L654 446Z" stroke="rgb(0, 0, 0)" stroke-width="8" fill="rgb(0, 0, 0)" style="transform:matrix(0.017,0,0,-0.017,0,0);"></path></g></g></g><g><g><g style="transform:matrix(1,0,0,1,359.8203125,60.5);"><path d="M342 330L365 330C373 395 380 432 389 458C365 473 330 482 293 482C248 483 175 463 118 400C64 352 25 241 25 136C25 40 67 -11 147 -11C201 -11 249 9 304 54L354 95L346 115L331 105C259 57 221 40 186 40C130 40 101 80 101 159C101 267 136 371 185 409C206 425 230 433 261 433C306 433 342 414 342 390ZM510 470C567 543 605 610 639 696L626 709C590 697 580 694 529 679C523 599 499 533 451 456L466 446Z" stroke="rgb(0, 0, 0)" stroke-width="8" fill="rgb(0, 0, 0)" style="transform:matrix(0.017,0,0,-0.017,0,0);"></path></g><g style="transform:matrix(1,0,0,1,371.4296875,60.5);"><path d="M204 123C177 114 159 108 106 93C99 17 74 -48 16 -144L30 -155L71 -136C152 -31 190 32 218 109Z" stroke="rgb(0, 0, 0)" stroke-width="8" fill="rgb(0, 0, 0)" style="transform:matrix(0.017,0,0,-0.017,0,0);"></path></g><g style="transform:matrix(1,0,0,1,378.6484375,60.5);"><path d="M400 -16C446 -16 513 54 545 84L545 97L532 97C513 79 489 55 462 55C417 55 424 184 424 216C474 278 520 343 558 413C551 428 544 444 536 459L525 459C511 391 456 315 420 257C422 336 445 472 332 473C164 473 27 243 24 93C23 33 43 -16 111 -16C203 -16 297 64 357 131C357 96 348 -15 400 -16ZM284 437C371 437 358 224 357 164C314 113 233 28 162 28C109 28 98 70 99 115C100 202 175 437 284 437Z" stroke="rgb(0, 0, 0)" stroke-width="8" fill="rgb(0, 0, 0)" style="transform:matrix(0.017,0,0,-0.017,0,0);"></path></g></g></g><g><g><g style="transform:matrix(1,0,0,1,406.46875,60.5);"><path d="M342 330L365 330C373 395 380 432 389 458C365 473 330 482 293 482C248 483 175 463 118 400C64 352 25 241 25 136C25 40 67 -11 147 -11C201 -11 249 9 304 54L354 95L346 115L331 105C259 57 221 40 186 40C130 40 101 80 101 159C101 267 136 371 185 409C206 425 230 433 261 433C306 433 342 414 342 390ZM510 470C567 543 605 610 639 696L626 709C590 697 580 694 529 679C523 599 499 533 451 456L466 446Z" stroke="rgb(0, 0, 0)" stroke-width="8" fill="rgb(0, 0, 0)" style="transform:matrix(0.017,0,0,-0.017,0,0);"></path></g><g style="transform:matrix(1,0,0,1,418.078125,60.5);"><path d="M204 123C177 114 159 108 106 93C99 17 74 -48 16 -144L30 -155L71 -136C152 -31 190 32 218 109Z" stroke="rgb(0, 0, 0)" stroke-width="8" fill="rgb(0, 0, 0)" style="transform:matrix(0.017,0,0,-0.017,0,0);"></path></g><g style="transform:matrix(1,0,0,1,425.296875,60.5);"><path d="M400 -16C446 -16 513 54 545 84L545 97L532 97C513 79 489 55 462 55C417 55 424 184 424 216C474 278 520 343 558 413C551 428 544 444 536 459L525 459C511 391 456 315 420 257C422 336 445 472 332 473C164 473 27 243 24 93C23 33 43 -16 111 -16C203 -16 297 64 357 131C357 96 348 -15 400 -16ZM284 437C371 437 358 224 357 164C314 113 233 28 162 28C109 28 98 70 99 115C100 202 175 437 284 437ZM698 470C755 543 793 610 827 696L814 709C778 697 768 694 717 679C711 599 687 533 639 456L654 446Z" stroke="rgb(0, 0, 0)" stroke-width="8" fill="rgb(0, 0, 0)" style="transform:matrix(0.017,0,0,-0.017,0,0);"></path></g></g></g><g><g><g style="transform:matrix(1,0,0,1,475.109375,60.5);"><path d="M342 330L365 330C373 395 380 432 389 458C365 473 330 482 293 482C248 483 175 463 118 400C64 352 25 241 25 136C25 40 67 -11 147 -11C201 -11 249 9 304 54L354 95L346 115L331 105C259 57 221 40 186 40C130 40 101 80 101 159C101 267 136 371 185 409C206 425 230 433 261 433C306 433 342 414 342 390ZM510 470C567 543 605 610 639 696L626 709C590 697 580 694 529 679C523 599 499 533 451 456L466 446Z" stroke="rgb(0, 0, 0)" stroke-width="8" fill="rgb(0, 0, 0)" style="transform:matrix(0.017,0,0,-0.017,0,0);"></path></g><g style="transform:matrix(1,0,0,1,486.71875,60.5);"><path d="M204 123C177 114 159 108 106 93C99 17 74 -48 16 -144L30 -155L71 -136C152 -31 190 32 218 109Z" stroke="rgb(0, 0, 0)" stroke-width="8" fill="rgb(0, 0, 0)" style="transform:matrix(0.017,0,0,-0.017,0,0);"></path></g><g style="transform:matrix(1,0,0,1,493.9375,60.5);"><path d="M400 -16C446 -16 513 54 545 84L545 97L532 97C513 79 489 55 462 55C417 55 424 184 424 216C474 278 520 343 558 413C551 428 544 444 536 459L525 459C511 391 456 315 420 257C422 336 445 472 332 473C164 473 27 243 24 93C23 33 43 -16 111 -16C203 -16 297 64 357 131C357 96 348 -15 400 -16ZM284 437C371 437 358 224 357 164C314 113 233 28 162 28C109 28 98 70 99 115C100 202 175 437 284 437ZM698 470C755 543 793 610 827 696L814 709C778 697 768 694 717 679C711 599 687 533 639 456L654 446ZM975 470C1032 543 1070 610 1104 696L1091 709C1055 697 1045 694 994 679C988 599 964 533 916 456L931 446Z" stroke="rgb(0, 0, 0)" stroke-width="8" fill="rgb(0, 0, 0)" style="transform:matrix(0.017,0,0,-0.017,0,0);"></path></g></g></g><g><g><g style="transform:matrix(1,0,0,1,226.0625,157.4453125);"><path d="M483 722L471 733C419 707 383 698 311 691L307 670L355 670C379 670 389 663 389 646C389 638 388 629 387 622L359 468C329 477 302 482 277 482C208 482 114 410 68 323C37 265 17 170 17 86C17 21 32 -11 61 -11C88 -11 125 6 159 33C213 77 246 116 313 217L290 126C279 82 274 50 274 24C274 3 283 -9 300 -9C317 -9 341 3 375 28L456 88L446 107L402 76C388 66 372 59 363 59C355 59 349 68 349 82C349 90 350 99 357 128ZM114 59C98 59 89 73 89 98C89 224 135 380 184 418C197 428 216 433 243 433C287 433 316 427 349 410L337 351C300 171 159 59 114 59Z" stroke="rgb(0, 0, 0)" stroke-width="8" fill="rgb(0, 0, 0)" style="transform:matrix(0.017,0,0,-0.017,0,0);"></path></g><g><g><g><g style="transform:matrix(1,0,0,1,235.03125,160.4546875);"><path d="M342 330L365 330C373 395 380 432 389 458C365 473 330 482 293 482C248 483 175 463 118 400C64 352 25 241 25 136C25 40 67 -11 147 -11C201 -11 249 9 304 54L354 95L346 115L331 105C259 57 221 40 186 40C130 40 101 80 101 159C101 267 136 371 185 409C206 425 230 433 261 433C306 433 342 414 342 390Z" stroke="rgb(0, 0, 0)" stroke-width="8" fill="rgb(0, 0, 0)" style="transform:matrix(0.0119,0,0,-0.0119,0,0);"></path></g></g></g></g></g></g><g><g><g style="transform:matrix(1,0,0,1,283.0625,230.4453125);"><path d="M483 722L471 733C419 707 383 698 311 691L307 670L355 670C379 670 389 663 389 646C389 638 388 629 387 622L359 468C329 477 302 482 277 482C208 482 114 410 68 323C37 265 17 170 17 86C17 21 32 -11 61 -11C88 -11 125 6 159 33C213 77 246 116 313 217L290 126C279 82 274 50 274 24C274 3 283 -9 300 -9C317 -9 341 3 375 28L456 88L446 107L402 76C388 66 372 59 363 59C355 59 349 68 349 82C349 90 350 99 357 128ZM114 59C98 59 89 73 89 98C89 224 135 380 184 418C197 428 216 433 243 433C287 433 316 427 349 410L337 351C300 171 159 59 114 59Z" stroke="rgb(0, 0, 0)" stroke-width="8" fill="rgb(0, 0, 0)" style="transform:matrix(0.017,0,0,-0.017,0,0);"></path></g><g><g><g><g style="transform:matrix(1,0,0,1,292.03125,233.4546875);"><path d="M342 330L365 330C373 395 380 432 389 458C365 473 330 482 293 482C248 483 175 463 118 400C64 352 25 241 25 136C25 40 67 -11 147 -11C201 -11 249 9 304 54L354 95L346 115L331 105C259 57 221 40 186 40C130 40 101 80 101 159C101 267 136 371 185 409C206 425 230 433 261 433C306 433 342 414 342 390Z" stroke="rgb(0, 0, 0)" stroke-width="8" fill="rgb(0, 0, 0)" style="transform:matrix(0.0119,0,0,-0.0119,0,0);"></path></g></g></g></g></g></g><g><g><g style="transform:matrix(1,0,0,1,372.3203125,340.8515625);"><path d="M416 25L416 -3C464 -1 509 0 551 0C591 0 636 -1 684 -3L684 25L659 27C618 30 605 37 591 61L420 368L641 620C671 653 680 659 706 662L734 664L734 692L620 689C608 689 594 689 505 692L505 664L538 662C570 660 583 655 583 643C583 632 578 623 560 601L399 405L295 604C286 622 281 634 281 642C281 654 294 660 324 662L361 664L361 692L315 691C274 690 244 689 228 689C211 689 181 690 140 691L95 692L95 664L121 662C170 657 182 650 202 613L348 343L110 61C95 43 72 31 48 28L20 25L20 -3C69 -1 110 0 145 0C181 0 221 -1 264 -3L264 25L232 28C194 32 177 38 177 50C177 58 181 67 187 75L369 306L488 80C497 62 502 49 502 40C502 32 495 29 470 29L454 28Z" stroke="rgb(0, 0, 0)" stroke-width="8" fill="rgb(0, 0, 0)" style="transform:matrix(0.017,0,0,-0.017,0,0);"></path></g><g><g><g><g style="transform:matrix(1,0,0,1,385.5390625,334.2828125);"><path d="M146 266C146 526 243 632 301 700L282 726C225 675 60 542 60 266C60 159 85 58 133 -32C168 -99 200 -138 282 -215L301 -194C255 -137 146 -15 146 266Z" stroke="rgb(0, 0, 0)" stroke-width="8" fill="rgb(0, 0, 0)" style="transform:matrix(0.0119,0,0,-0.0119,0,0);"></path></g><g style="transform:matrix(1,0,0,1,389.4921875,334.2828125);"><path d="M271 204L242 77C238 60 236 42 236 26C236 4 245 -9 260 -9C283 -9 324 17 406 85L399 106C375 86 346 59 324 59C315 59 309 68 309 82C309 87 309 90 310 93L402 472L392 481L359 463C318 478 301 482 274 482C246 482 226 477 199 464C137 433 104 403 79 354C35 265 4 145 4 67C4 23 19 -11 38 -11C75 -11 155 41 271 204ZM319 414C297 305 278 253 244 201C187 117 126 59 94 59C82 59 76 72 76 99C76 163 104 280 139 360C163 415 186 433 234 433C257 433 275 429 319 414ZM942 116C912 116 885 88 885 58C885 28 912 0 941 0C973 0 1001 27 1001 58C1001 88 973 116 942 116ZM609 116C579 116 552 88 552 58C552 28 579 0 608 0C640 0 668 27 668 58C668 88 640 116 609 116ZM1275 116C1245 116 1218 88 1218 58C1218 28 1245 0 1274 0C1306 0 1334 27 1334 58C1334 88 1306 116 1275 116Z" stroke="rgb(0, 0, 0)" stroke-width="8" fill="rgb(0, 0, 0)" style="transform:matrix(0.0119,0,0,-0.0119,0,0);"></path></g><g style="transform:matrix(1,0,0,1,406.6484375,334.2828125);"><path d="M51 726L32 700C87 636 187 526 187 266C187 -10 83 -131 32 -194L51 -215C104 -165 273 -23 273 265C273 542 108 675 51 726Z" stroke="rgb(0, 0, 0)" stroke-width="8" fill="rgb(0, 0, 0)" style="transform:matrix(0.0119,0,0,-0.0119,0,0);"></path></g></g></g><g><g><g style="transform:matrix(1,0,0,1,385.0703125,345.5171875);"><path d="M342 330L365 330C373 395 380 432 389 458C365 473 330 482 293 482C248 483 175 463 118 400C64 352 25 241 25 136C25 40 67 -11 147 -11C201 -11 249 9 304 54L354 95L346 115L331 105C259 57 221 40 186 40C130 40 101 80 101 159C101 267 136 371 185 409C206 425 230 433 261 433C306 433 342 414 342 390ZM510 470C567 543 605 610 639 696L626 709C590 697 580 694 529 679C523 599 499 533 451 456L466 446ZM887 123C860 114 842 108 789 93C782 17 757 -48 699 -144L713 -155L754 -136C835 -31 873 32 901 109ZM1332 -16C1378 -16 1445 54 1477 84L1477 97L1464 97C1445 79 1421 55 1394 55C1349 55 1356 184 1356 216C1406 278 1452 343 1490 413C1483 428 1476 444 1468 459L1457 459C1443 391 1388 315 1352 257C1354 336 1377 472 1264 473C1096 473 959 243 956 93C955 33 975 -16 1043 -16C1135 -16 1229 64 1289 131C1289 96 1280 -15 1332 -16ZM1216 437C1303 437 1290 224 1289 164C1246 113 1165 28 1094 28C1041 28 1030 70 1031 115C1032 202 1107 437 1216 437Z" stroke="rgb(0, 0, 0)" stroke-width="8" fill="rgb(0, 0, 0)" style="transform:matrix(0.0119,0,0,-0.0119,0,0);"></path></g></g></g></g></g></g><g><g><g style="transform:matrix(1,0,0,1,228.3203125,340.8515625);"><path d="M416 25L416 -3C464 -1 509 0 551 0C591 0 636 -1 684 -3L684 25L659 27C618 30 605 37 591 61L420 368L641 620C671 653 680 659 706 662L734 664L734 692L620 689C608 689 594 689 505 692L505 664L538 662C570 660 583 655 583 643C583 632 578 623 560 601L399 405L295 604C286 622 281 634 281 642C281 654 294 660 324 662L361 664L361 692L315 691C274 690 244 689 228 689C211 689 181 690 140 691L95 692L95 664L121 662C170 657 182 650 202 613L348 343L110 61C95 43 72 31 48 28L20 25L20 -3C69 -1 110 0 145 0C181 0 221 -1 264 -3L264 25L232 28C194 32 177 38 177 50C177 58 181 67 187 75L369 306L488 80C497 62 502 49 502 40C502 32 495 29 470 29L454 28Z" stroke="rgb(0, 0, 0)" stroke-width="8" fill="rgb(0, 0, 0)" style="transform:matrix(0.017,0,0,-0.017,0,0);"></path></g><g><g><g><g style="transform:matrix(1,0,0,1,241.5390625,334.2828125);"><path d="M146 266C146 526 243 632 301 700L282 726C225 675 60 542 60 266C60 159 85 58 133 -32C168 -99 200 -138 282 -215L301 -194C255 -137 146 -15 146 266Z" stroke="rgb(0, 0, 0)" stroke-width="8" fill="rgb(0, 0, 0)" style="transform:matrix(0.0119,0,0,-0.0119,0,0);"></path></g><g style="transform:matrix(1,0,0,1,245.4921875,334.2828125);"><path d="M271 204L242 77C238 60 236 42 236 26C236 4 245 -9 260 -9C283 -9 324 17 406 85L399 106C375 86 346 59 324 59C315 59 309 68 309 82C309 87 309 90 310 93L402 472L392 481L359 463C318 478 301 482 274 482C246 482 226 477 199 464C137 433 104 403 79 354C35 265 4 145 4 67C4 23 19 -11 38 -11C75 -11 155 41 271 204ZM319 414C297 305 278 253 244 201C187 117 126 59 94 59C82 59 76 72 76 99C76 163 104 280 139 360C163 415 186 433 234 433C257 433 275 429 319 414ZM942 116C912 116 885 88 885 58C885 28 912 0 941 0C973 0 1001 27 1001 58C1001 88 973 116 942 116ZM609 116C579 116 552 88 552 58C552 28 579 0 608 0C640 0 668 27 668 58C668 88 640 116 609 116ZM1275 116C1245 116 1218 88 1218 58C1218 28 1245 0 1274 0C1306 0 1334 27 1334 58C1334 88 1306 116 1275 116Z" stroke="rgb(0, 0, 0)" stroke-width="8" fill="rgb(0, 0, 0)" style="transform:matrix(0.0119,0,0,-0.0119,0,0);"></path></g><g style="transform:matrix(1,0,0,1,262.6484375,334.2828125);"><path d="M51 726L32 700C87 636 187 526 187 266C187 -10 83 -131 32 -194L51 -215C104 -165 273 -23 273 265C273 542 108 675 51 726Z" stroke="rgb(0, 0, 0)" stroke-width="8" fill="rgb(0, 0, 0)" style="transform:matrix(0.0119,0,0,-0.0119,0,0);"></path></g></g></g><g><g><g style="transform:matrix(1,0,0,1,241.0703125,345.5171875);"><path d="M342 330L365 330C373 395 380 432 389 458C365 473 330 482 293 482C248 483 175 463 118 400C64 352 25 241 25 136C25 40 67 -11 147 -11C201 -11 249 9 304 54L354 95L346 115L331 105C259 57 221 40 186 40C130 40 101 80 101 159C101 267 136 371 185 409C206 425 230 433 261 433C306 433 342 414 342 390ZM510 470C567 543 605 610 639 696L626 709C590 697 580 694 529 679C523 599 499 533 451 456L466 446ZM887 123C860 114 842 108 789 93C782 17 757 -48 699 -144L713 -155L754 -136C835 -31 873 32 901 109ZM1332 -16C1378 -16 1445 54 1477 84L1477 97L1464 97C1445 79 1421 55 1394 55C1349 55 1356 184 1356 216C1406 278 1452 343 1490 413C1483 428 1476 444 1468 459L1457 459C1443 391 1388 315 1352 257C1354 336 1377 472 1264 473C1096 473 959 243 956 93C955 33 975 -16 1043 -16C1135 -16 1229 64 1289 131C1289 96 1280 -15 1332 -16ZM1216 437C1303 437 1290 224 1289 164C1246 113 1165 28 1094 28C1041 28 1030 70 1031 115C1032 202 1107 437 1216 437ZM1630 470C1687 543 1725 610 1759 696L1746 709C1710 697 1700 694 1649 679C1643 599 1619 533 1571 456L1586 446Z" stroke="rgb(0, 0, 0)" stroke-width="8" fill="rgb(0, 0, 0)" style="transform:matrix(0.0119,0,0,-0.0119,0,0);"></path></g></g></g></g></g></g><g><g><g style="transform:matrix(1,0,0,1,412.3203125,340.8515625);"><path d="M416 25L416 -3C464 -1 509 0 551 0C591 0 636 -1 684 -3L684 25L659 27C618 30 605 37 591 61L420 368L641 620C671 653 680 659 706 662L734 664L734 692L620 689C608 689 594 689 505 692L505 664L538 662C570 660 583 655 583 643C583 632 578 623 560 601L399 405L295 604C286 622 281 634 281 642C281 654 294 660 324 662L361 664L361 692L315 691C274 690 244 689 228 689C211 689 181 690 140 691L95 692L95 664L121 662C170 657 182 650 202 613L348 343L110 61C95 43 72 31 48 28L20 25L20 -3C69 -1 110 0 145 0C181 0 221 -1 264 -3L264 25L232 28C194 32 177 38 177 50C177 58 181 67 187 75L369 306L488 80C497 62 502 49 502 40C502 32 495 29 470 29L454 28Z" stroke="rgb(0, 0, 0)" stroke-width="8" fill="rgb(0, 0, 0)" style="transform:matrix(0.017,0,0,-0.017,0,0);"></path></g><g><g><g><g style="transform:matrix(1,0,0,1,425.5390625,334.2828125);"><path d="M146 266C146 526 243 632 301 700L282 726C225 675 60 542 60 266C60 159 85 58 133 -32C168 -99 200 -138 282 -215L301 -194C255 -137 146 -15 146 266Z" stroke="rgb(0, 0, 0)" stroke-width="8" fill="rgb(0, 0, 0)" style="transform:matrix(0.0119,0,0,-0.0119,0,0);"></path></g><g style="transform:matrix(1,0,0,1,429.4921875,334.2828125);"><path d="M271 204L242 77C238 60 236 42 236 26C236 4 245 -9 260 -9C283 -9 324 17 406 85L399 106C375 86 346 59 324 59C315 59 309 68 309 82C309 87 309 90 310 93L402 472L392 481L359 463C318 478 301 482 274 482C246 482 226 477 199 464C137 433 104 403 79 354C35 265 4 145 4 67C4 23 19 -11 38 -11C75 -11 155 41 271 204ZM319 414C297 305 278 253 244 201C187 117 126 59 94 59C82 59 76 72 76 99C76 163 104 280 139 360C163 415 186 433 234 433C257 433 275 429 319 414ZM942 116C912 116 885 88 885 58C885 28 912 0 941 0C973 0 1001 27 1001 58C1001 88 973 116 942 116ZM609 116C579 116 552 88 552 58C552 28 579 0 608 0C640 0 668 27 668 58C668 88 640 116 609 116ZM1275 116C1245 116 1218 88 1218 58C1218 28 1245 0 1274 0C1306 0 1334 27 1334 58C1334 88 1306 116 1275 116Z" stroke="rgb(0, 0, 0)" stroke-width="8" fill="rgb(0, 0, 0)" style="transform:matrix(0.0119,0,0,-0.0119,0,0);"></path></g><g style="transform:matrix(1,0,0,1,446.6484375,334.2828125);"><path d="M51 726L32 700C87 636 187 526 187 266C187 -10 83 -131 32 -194L51 -215C104 -165 273 -23 273 265C273 542 108 675 51 726Z" stroke="rgb(0, 0, 0)" stroke-width="8" fill="rgb(0, 0, 0)" style="transform:matrix(0.0119,0,0,-0.0119,0,0);"></path></g></g></g><g><g><g style="transform:matrix(1,0,0,1,425.0703125,345.5171875);"><path d="M342 330L365 330C373 395 380 432 389 458C365 473 330 482 293 482C248 483 175 463 118 400C64 352 25 241 25 136C25 40 67 -11 147 -11C201 -11 249 9 304 54L354 95L346 115L331 105C259 57 221 40 186 40C130 40 101 80 101 159C101 267 136 371 185 409C206 425 230 433 261 433C306 433 342 414 342 390ZM510 470C567 543 605 610 639 696L626 709C590 697 580 694 529 679C523 599 499 533 451 456L466 446ZM887 123C860 114 842 108 789 93C782 17 757 -48 699 -144L713 -155L754 -136C835 -31 873 32 901 109ZM1332 -16C1378 -16 1445 54 1477 84L1477 97L1464 97C1445 79 1421 55 1394 55C1349 55 1356 184 1356 216C1406 278 1452 343 1490 413C1483 428 1476 444 1468 459L1457 459C1443 391 1388 315 1352 257C1354 336 1377 472 1264 473C1096 473 959 243 956 93C955 33 975 -16 1043 -16C1135 -16 1229 64 1289 131C1289 96 1280 -15 1332 -16ZM1216 437C1303 437 1290 224 1289 164C1246 113 1165 28 1094 28C1041 28 1030 70 1031 115C1032 202 1107 437 1216 437ZM1630 470C1687 543 1725 610 1759 696L1746 709C1710 697 1700 694 1649 679C1643 599 1619 533 1571 456L1586 446Z" stroke="rgb(0, 0, 0)" stroke-width="8" fill="rgb(0, 0, 0)" style="transform:matrix(0.0119,0,0,-0.0119,0,0);"></path></g></g></g></g></g></g><g><g><g style="transform:matrix(1,0,0,1,578.21875,102.4453125);"><path d="M579 -3L579 27L533 30C499 32 496 39 496 102L496 718L487 726C443 709 410 701 331 689L331 661L387 661C405 661 412 650 412 620L412 437C384 472 346 486 306 486C183 486 34 351 34 229C34 149 62 70 111 30C145 1 192 -12 257 -12C277 -12 300 -8 305 -4L416 89L411 -3C460 -1 476 0 488 0C506 0 570 -3 579 -3ZM412 350L412 221C412 156 410 146 397 123C369 76 320 45 273 45C185 45 122 130 122 249C122 358 176 422 266 422C345 422 412 366 412 350ZM798 465L789 469C738 448 686 434 633 428L633 400L670 400C710 400 714 393 714 327L714 102C714 39 711 32 677 30L631 27L631 -3C731 0 731 0 756 0C781 0 781 0 881 -3L881 27L835 30C801 32 798 39 798 102ZM752 687C722 687 696 661 696 631C696 602 722 576 751 576C780 576 807 602 807 631C807 659 780 687 752 687ZM918 400L955 400C995 400 999 393 999 327L999 102C999 39 996 32 962 30L916 27L916 -3C1012 0 1015 0 1043 0C1071 0 1097 -1 1162 -3L1162 27L1120 30C1086 32 1083 39 1083 102L1083 314C1083 359 1149 408 1209 408C1263 408 1300 357 1300 281L1300 102C1300 39 1297 32 1263 30L1217 27L1217 -3C1317 0 1317 0 1342 0C1367 0 1367 0 1467 -3L1467 27L1421 30C1387 32 1384 39 1384 102L1384 314C1384 359 1450 408 1510 408C1564 408 1601 357 1601 281L1601 -3C1662 0 1663 0 1680 0C1693 0 1693 0 1769 -3L1769 27L1722 30C1688 32 1685 39 1685 102L1685 308C1685 407 1627 469 1535 469C1500 469 1471 460 1453 444L1377 376C1345 442 1304 469 1235 469C1198 469 1170 460 1152 444L1083 380L1083 465L1074 469C1023 448 971 434 918 428Z" stroke="rgb(0, 0, 0)" stroke-width="8" fill="rgb(0, 0, 0)" style="transform:matrix(0.017,0,0,-0.017,0,0);"></path></g><g style="transform:matrix(1,0,0,1,608.5,102.4453125);"><path d="M146 266C146 526 243 632 301 700L282 726C225 675 60 542 60 266C60 159 85 58 133 -32C168 -99 200 -138 282 -215L301 -194C255 -137 146 -15 146 266Z" stroke="rgb(0, 0, 0)" stroke-width="8" fill="rgb(0, 0, 0)" style="transform:matrix(0.017,0,0,-0.017,0,0);"></path></g><g style="transform:matrix(1,0,0,1,614.15625,102.4453125);"><path d="M105 664L161 662C185 661 196 653 196 635C196 621 192 589 187 559L112 125C96 34 94 32 54 28L13 25L9 -3L51 -2C98 0 117 0 141 0L238 -3L264 -3L267 25L218 28C191 30 182 38 182 58C182 67 183 76 186 93L287 648C316 654 336 656 363 656C450 656 496 617 496 543C496 448 418 378 314 378L270 378L267 367C401 172 432 124 507 -3L592 0C593 0 607 -1 626 -3L639 -3L639 24C599 29 588 37 559 79L375 354C430 364 459 376 495 402C553 444 584 499 584 560C584 646 520 693 409 691L108 691Z" stroke="rgb(0, 0, 0)" stroke-width="8" fill="rgb(0, 0, 0)" style="transform:matrix(0.017,0,0,-0.017,0,0);"></path></g><g><g><g><g style="transform:matrix(1,0,0,1,625.96875,105.4546875);"><path d="M146 266C146 526 243 632 301 700L282 726C225 675 60 542 60 266C60 159 85 58 133 -32C168 -99 200 -138 282 -215L301 -194C255 -137 146 -15 146 266Z" stroke="rgb(0, 0, 0)" stroke-width="8" fill="rgb(0, 0, 0)" style="transform:matrix(0.0119,0,0,-0.0119,0,0);"></path></g><g style="transform:matrix(1,0,0,1,629.921875,105.4546875);"><path d="M271 204L242 77C238 60 236 42 236 26C236 4 245 -9 260 -9C283 -9 324 17 406 85L399 106C375 86 346 59 324 59C315 59 309 68 309 82C309 87 309 90 310 93L402 472L392 481L359 463C318 478 301 482 274 482C246 482 226 477 199 464C137 433 104 403 79 354C35 265 4 145 4 67C4 23 19 -11 38 -11C75 -11 155 41 271 204ZM319 414C297 305 278 253 244 201C187 117 126 59 94 59C82 59 76 72 76 99C76 163 104 280 139 360C163 415 186 433 234 433C257 433 275 429 319 414ZM942 116C912 116 885 88 885 58C885 28 912 0 941 0C973 0 1001 27 1001 58C1001 88 973 116 942 116ZM609 116C579 116 552 88 552 58C552 28 579 0 608 0C640 0 668 27 668 58C668 88 640 116 609 116ZM1275 116C1245 116 1218 88 1218 58C1218 28 1245 0 1274 0C1306 0 1334 27 1334 58C1334 88 1306 116 1275 116Z" stroke="rgb(0, 0, 0)" stroke-width="8" fill="rgb(0, 0, 0)" style="transform:matrix(0.0119,0,0,-0.0119,0,0);"></path></g><g style="transform:matrix(1,0,0,1,647.078125,105.4546875);"><path d="M51 726L32 700C87 636 187 526 187 266C187 -10 83 -131 32 -194L51 -215C104 -165 273 -23 273 265C273 542 108 675 51 726Z" stroke="rgb(0, 0, 0)" stroke-width="8" fill="rgb(0, 0, 0)" style="transform:matrix(0.0119,0,0,-0.0119,0,0);"></path></g></g></g></g><g style="transform:matrix(1,0,0,1,652.0625,102.4453125);"><path d="M51 726L32 700C87 636 187 526 187 266C187 -10 83 -131 32 -194L51 -215C104 -165 273 -23 273 265C273 542 108 675 51 726Z" stroke="rgb(0, 0, 0)" stroke-width="8" fill="rgb(0, 0, 0)" style="transform:matrix(0.017,0,0,-0.017,0,0);"></path></g></g></g><g><g><g style="transform:matrix(1,0,0,1,580.0703125,193.4453125);"><path d="M579 -3L579 27L533 30C499 32 496 39 496 102L496 718L487 726C443 709 410 701 331 689L331 661L387 661C405 661 412 650 412 620L412 437C384 472 346 486 306 486C183 486 34 351 34 229C34 149 62 70 111 30C145 1 192 -12 257 -12C277 -12 300 -8 305 -4L416 89L411 -3C460 -1 476 0 488 0C506 0 570 -3 579 -3ZM412 350L412 221C412 156 410 146 397 123C369 76 320 45 273 45C185 45 122 130 122 249C122 358 176 422 266 422C345 422 412 366 412 350ZM798 465L789 469C738 448 686 434 633 428L633 400L670 400C710 400 714 393 714 327L714 102C714 39 711 32 677 30L631 27L631 -3C731 0 731 0 756 0C781 0 781 0 881 -3L881 27L835 30C801 32 798 39 798 102ZM752 687C722 687 696 661 696 631C696 602 722 576 751 576C780 576 807 602 807 631C807 659 780 687 752 687ZM918 400L955 400C995 400 999 393 999 327L999 102C999 39 996 32 962 30L916 27L916 -3C1012 0 1015 0 1043 0C1071 0 1097 -1 1162 -3L1162 27L1120 30C1086 32 1083 39 1083 102L1083 314C1083 359 1149 408 1209 408C1263 408 1300 357 1300 281L1300 102C1300 39 1297 32 1263 30L1217 27L1217 -3C1317 0 1317 0 1342 0C1367 0 1367 0 1467 -3L1467 27L1421 30C1387 32 1384 39 1384 102L1384 314C1384 359 1450 408 1510 408C1564 408 1601 357 1601 281L1601 -3C1662 0 1663 0 1680 0C1693 0 1693 0 1769 -3L1769 27L1722 30C1688 32 1685 39 1685 102L1685 308C1685 407 1627 469 1535 469C1500 469 1471 460 1453 444L1377 376C1345 442 1304 469 1235 469C1198 469 1170 460 1152 444L1083 380L1083 465L1074 469C1023 448 971 434 918 428Z" stroke="rgb(0, 0, 0)" stroke-width="8" fill="rgb(0, 0, 0)" style="transform:matrix(0.017,0,0,-0.017,0,0);"></path></g><g style="transform:matrix(1,0,0,1,610.3515625,193.4453125);"><path d="M146 266C146 526 243 632 301 700L282 726C225 675 60 542 60 266C60 159 85 58 133 -32C168 -99 200 -138 282 -215L301 -194C255 -137 146 -15 146 266Z" stroke="rgb(0, 0, 0)" stroke-width="8" fill="rgb(0, 0, 0)" style="transform:matrix(0.017,0,0,-0.017,0,0);"></path></g><g style="transform:matrix(1,0,0,1,616.0078125,193.4453125);"><path d="M105 664L161 662C185 661 196 653 196 635C196 621 192 589 187 559L112 125C96 34 94 32 54 28L13 25L9 -3L51 -2C98 0 117 0 141 0L238 -3L264 -3L267 25L218 28C191 30 182 38 182 58C182 67 183 76 186 93L287 648C316 654 336 656 363 656C450 656 496 617 496 543C496 448 418 378 314 378L270 378L267 367C401 172 432 124 507 -3L592 0C593 0 607 -1 626 -3L639 -3L639 24C599 29 588 37 559 79L375 354C430 364 459 376 495 402C553 444 584 499 584 560C584 646 520 693 409 691L108 691Z" stroke="rgb(0, 0, 0)" stroke-width="8" fill="rgb(0, 0, 0)" style="transform:matrix(0.017,0,0,-0.017,0,0);"></path></g><g><g><g><g style="transform:matrix(1,0,0,1,627.8203125,196.4546875);"><path d="M146 266C146 526 243 632 301 700L282 726C225 675 60 542 60 266C60 159 85 58 133 -32C168 -99 200 -138 282 -215L301 -194C255 -137 146 -15 146 266Z" stroke="rgb(0, 0, 0)" stroke-width="8" fill="rgb(0, 0, 0)" style="transform:matrix(0.0119,0,0,-0.0119,0,0);"></path></g><g style="transform:matrix(1,0,0,1,631.7734375,196.4546875);"><path d="M271 204L242 77C238 60 236 42 236 26C236 4 245 -9 260 -9C283 -9 324 17 406 85L399 106C375 86 346 59 324 59C315 59 309 68 309 82C309 87 309 90 310 93L402 472L392 481L359 463C318 478 301 482 274 482C246 482 226 477 199 464C137 433 104 403 79 354C35 265 4 145 4 67C4 23 19 -11 38 -11C75 -11 155 41 271 204ZM319 414C297 305 278 253 244 201C187 117 126 59 94 59C82 59 76 72 76 99C76 163 104 280 139 360C163 415 186 433 234 433C257 433 275 429 319 414ZM942 116C912 116 885 88 885 58C885 28 912 0 941 0C973 0 1001 27 1001 58C1001 88 973 116 942 116ZM609 116C579 116 552 88 552 58C552 28 579 0 608 0C640 0 668 27 668 58C668 88 640 116 609 116ZM1275 116C1245 116 1218 88 1218 58C1218 28 1245 0 1274 0C1306 0 1334 27 1334 58C1334 88 1306 116 1275 116Z" stroke="rgb(0, 0, 0)" stroke-width="8" fill="rgb(0, 0, 0)" style="transform:matrix(0.0119,0,0,-0.0119,0,0);"></path></g><g style="transform:matrix(1,0,0,1,648.9296875,196.4546875);"><path d="M51 726L32 700C87 636 187 526 187 266C187 -10 83 -131 32 -194L51 -215C104 -165 273 -23 273 265C273 542 108 675 51 726Z" stroke="rgb(0, 0, 0)" stroke-width="8" fill="rgb(0, 0, 0)" style="transform:matrix(0.0119,0,0,-0.0119,0,0);"></path></g><g style="transform:matrix(1,0,0,1,652.8828125,196.4546875);"><path d="M104 470C161 543 199 610 233 696L220 709C184 697 174 694 123 679C117 599 93 533 45 456L60 446Z" stroke="rgb(0, 0, 0)" stroke-width="8" fill="rgb(0, 0, 0)" style="transform:matrix(0.0119,0,0,-0.0119,0,0);"></path></g></g></g></g><g style="transform:matrix(1,0,0,1,657.2109375,193.4453125);"><path d="M51 726L32 700C87 636 187 526 187 266C187 -10 83 -131 32 -194L51 -215C104 -165 273 -23 273 265C273 542 108 675 51 726Z" stroke="rgb(0, 0, 0)" stroke-width="8" fill="rgb(0, 0, 0)" style="transform:matrix(0.017,0,0,-0.017,0,0);"></path></g></g></g><g><g><g style="transform:matrix(1,0,0,1,567.921875,284.4453125);"><path d="M579 -3L579 27L533 30C499 32 496 39 496 102L496 718L487 726C443 709 410 701 331 689L331 661L387 661C405 661 412 650 412 620L412 437C384 472 346 486 306 486C183 486 34 351 34 229C34 149 62 70 111 30C145 1 192 -12 257 -12C277 -12 300 -8 305 -4L416 89L411 -3C460 -1 476 0 488 0C506 0 570 -3 579 -3ZM412 350L412 221C412 156 410 146 397 123C369 76 320 45 273 45C185 45 122 130 122 249C122 358 176 422 266 422C345 422 412 366 412 350ZM798 465L789 469C738 448 686 434 633 428L633 400L670 400C710 400 714 393 714 327L714 102C714 39 711 32 677 30L631 27L631 -3C731 0 731 0 756 0C781 0 781 0 881 -3L881 27L835 30C801 32 798 39 798 102ZM752 687C722 687 696 661 696 631C696 602 722 576 751 576C780 576 807 602 807 631C807 659 780 687 752 687ZM918 400L955 400C995 400 999 393 999 327L999 102C999 39 996 32 962 30L916 27L916 -3C1012 0 1015 0 1043 0C1071 0 1097 -1 1162 -3L1162 27L1120 30C1086 32 1083 39 1083 102L1083 314C1083 359 1149 408 1209 408C1263 408 1300 357 1300 281L1300 102C1300 39 1297 32 1263 30L1217 27L1217 -3C1317 0 1317 0 1342 0C1367 0 1367 0 1467 -3L1467 27L1421 30C1387 32 1384 39 1384 102L1384 314C1384 359 1450 408 1510 408C1564 408 1601 357 1601 281L1601 -3C1662 0 1663 0 1680 0C1693 0 1693 0 1769 -3L1769 27L1722 30C1688 32 1685 39 1685 102L1685 308C1685 407 1627 469 1535 469C1500 469 1471 460 1453 444L1377 376C1345 442 1304 469 1235 469C1198 469 1170 460 1152 444L1083 380L1083 465L1074 469C1023 448 971 434 918 428Z" stroke="rgb(0, 0, 0)" stroke-width="8" fill="rgb(0, 0, 0)" style="transform:matrix(0.017,0,0,-0.017,0,0);"></path></g><g style="transform:matrix(1,0,0,1,598.203125,284.4453125);"><path d="M146 266C146 526 243 632 301 700L282 726C225 675 60 542 60 266C60 159 85 58 133 -32C168 -99 200 -138 282 -215L301 -194C255 -137 146 -15 146 266Z" stroke="rgb(0, 0, 0)" stroke-width="8" fill="rgb(0, 0, 0)" style="transform:matrix(0.017,0,0,-0.017,0,0);"></path></g><g style="transform:matrix(1,0,0,1,603.859375,284.4453125);"><path d="M105 664L161 662C185 661 196 653 196 635C196 621 192 589 187 559L112 125C96 34 94 32 54 28L13 25L9 -3L51 -2C98 0 117 0 141 0L238 -3L264 -3L267 25L218 28C191 30 182 38 182 58C182 67 183 76 186 93L287 648C316 654 336 656 363 656C450 656 496 617 496 543C496 448 418 378 314 378L270 378L267 367C401 172 432 124 507 -3L592 0C593 0 607 -1 626 -3L639 -3L639 24C599 29 588 37 559 79L375 354C430 364 459 376 495 402C553 444 584 499 584 560C584 646 520 693 409 691L108 691Z" stroke="rgb(0, 0, 0)" stroke-width="8" fill="rgb(0, 0, 0)" style="transform:matrix(0.017,0,0,-0.017,0,0);"></path></g><g><g><g><g style="transform:matrix(1,0,0,1,615.671875,287.4546875);"><path d="M146 266C146 526 243 632 301 700L282 726C225 675 60 542 60 266C60 159 85 58 133 -32C168 -99 200 -138 282 -215L301 -194C255 -137 146 -15 146 266Z" stroke="rgb(0, 0, 0)" stroke-width="8" fill="rgb(0, 0, 0)" style="transform:matrix(0.0119,0,0,-0.0119,0,0);"></path></g><g style="transform:matrix(1,0,0,1,619.625,287.4546875);"><path d="M271 204L242 77C238 60 236 42 236 26C236 4 245 -9 260 -9C283 -9 324 17 406 85L399 106C375 86 346 59 324 59C315 59 309 68 309 82C309 87 309 90 310 93L402 472L392 481L359 463C318 478 301 482 274 482C246 482 226 477 199 464C137 433 104 403 79 354C35 265 4 145 4 67C4 23 19 -11 38 -11C75 -11 155 41 271 204ZM319 414C297 305 278 253 244 201C187 117 126 59 94 59C82 59 76 72 76 99C76 163 104 280 139 360C163 415 186 433 234 433C257 433 275 429 319 414ZM942 116C912 116 885 88 885 58C885 28 912 0 941 0C973 0 1001 27 1001 58C1001 88 973 116 942 116ZM609 116C579 116 552 88 552 58C552 28 579 0 608 0C640 0 668 27 668 58C668 88 640 116 609 116ZM1275 116C1245 116 1218 88 1218 58C1218 28 1245 0 1274 0C1306 0 1334 27 1334 58C1334 88 1306 116 1275 116Z" stroke="rgb(0, 0, 0)" stroke-width="8" fill="rgb(0, 0, 0)" style="transform:matrix(0.0119,0,0,-0.0119,0,0);"></path></g><g style="transform:matrix(1,0,0,1,636.78125,287.4546875);"><path d="M51 726L32 700C87 636 187 526 187 266C187 -10 83 -131 32 -194L51 -215C104 -165 273 -23 273 265C273 542 108 675 51 726Z" stroke="rgb(0, 0, 0)" stroke-width="8" fill="rgb(0, 0, 0)" style="transform:matrix(0.0119,0,0,-0.0119,0,0);"></path></g><g style="transform:matrix(1,0,0,1,640.734375,287.4546875);"><path d="M104 470C161 543 199 610 233 696L220 709C184 697 174 694 123 679C117 599 93 533 45 456L60 446ZM381 470C438 543 476 610 510 696L497 709C461 697 451 694 400 679C394 599 370 533 322 456L337 446Z" stroke="rgb(0, 0, 0)" stroke-width="8" fill="rgb(0, 0, 0)" style="transform:matrix(0.0119,0,0,-0.0119,0,0);"></path></g></g></g></g><g style="transform:matrix(1,0,0,1,648.359375,284.4453125);"><path d="M51 726L32 700C87 636 187 526 187 266C187 -10 83 -131 32 -194L51 -215C104 -165 273 -23 273 265C273 542 108 675 51 726Z" stroke="rgb(0, 0, 0)" stroke-width="8" fill="rgb(0, 0, 0)" style="transform:matrix(0.017,0,0,-0.017,0,0);"></path></g></g></g><g><g><g style="transform:matrix(1,0,0,1,566.4609375,150.4453125);"><path d="M24 388L31 368L63 389C100 412 103 414 110 414C121 414 128 404 128 389C128 338 87 145 46 2L53 -9C78 -2 101 4 123 8C142 134 163 199 209 268C263 352 338 414 383 414C394 414 400 405 400 390C400 372 397 351 389 319L337 107C328 70 324 47 324 31C324 6 335 -9 354 -9C380 -9 416 12 514 85L504 103L478 86C449 67 427 56 417 56C410 56 404 65 404 76C404 81 405 92 406 96L472 372C479 401 483 429 483 446C483 469 472 482 452 482C410 482 341 444 282 389C244 354 216 320 164 247L202 408C206 426 208 438 208 449C208 470 200 482 185 482C164 482 125 460 52 408Z" stroke="rgb(0, 0, 0)" stroke-width="8" fill="rgb(0, 0, 0)" style="transform:matrix(0.017,0,0,-0.017,0,0);"></path></g><g><g><g><g style="transform:matrix(1,0,0,1,576.3828125,153.4546875);"><path d="M146 266C146 526 243 632 301 700L282 726C225 675 60 542 60 266C60 159 85 58 133 -32C168 -99 200 -138 282 -215L301 -194C255 -137 146 -15 146 266Z" stroke="rgb(0, 0, 0)" stroke-width="8" fill="rgb(0, 0, 0)" style="transform:matrix(0.0119,0,0,-0.0119,0,0);"></path></g><g style="transform:matrix(1,0,0,1,580.3359375,153.4546875);"><path d="M271 204L242 77C238 60 236 42 236 26C236 4 245 -9 260 -9C283 -9 324 17 406 85L399 106C375 86 346 59 324 59C315 59 309 68 309 82C309 87 309 90 310 93L402 472L392 481L359 463C318 478 301 482 274 482C246 482 226 477 199 464C137 433 104 403 79 354C35 265 4 145 4 67C4 23 19 -11 38 -11C75 -11 155 41 271 204ZM319 414C297 305 278 253 244 201C187 117 126 59 94 59C82 59 76 72 76 99C76 163 104 280 139 360C163 415 186 433 234 433C257 433 275 429 319 414ZM942 116C912 116 885 88 885 58C885 28 912 0 941 0C973 0 1001 27 1001 58C1001 88 973 116 942 116ZM609 116C579 116 552 88 552 58C552 28 579 0 608 0C640 0 668 27 668 58C668 88 640 116 609 116ZM1275 116C1245 116 1218 88 1218 58C1218 28 1245 0 1274 0C1306 0 1334 27 1334 58C1334 88 1306 116 1275 116Z" stroke="rgb(0, 0, 0)" stroke-width="8" fill="rgb(0, 0, 0)" style="transform:matrix(0.0119,0,0,-0.0119,0,0);"></path></g><g style="transform:matrix(1,0,0,1,597.4921875,153.4546875);"><path d="M51 726L32 700C87 636 187 526 187 266C187 -10 83 -131 32 -194L51 -215C104 -165 273 -23 273 265C273 542 108 675 51 726Z" stroke="rgb(0, 0, 0)" stroke-width="8" fill="rgb(0, 0, 0)" style="transform:matrix(0.0119,0,0,-0.0119,0,0);"></path></g></g></g></g><g style="transform:matrix(1,0,0,1,602.4765625,150.4453125);"><path d="" stroke="rgb(0, 0, 0)" stroke-width="8" fill="rgb(0, 0, 0)" style="transform:matrix(0.017,0,0,-0.017,0,0);"></path></g><g style="transform:matrix(1,0,0,1,606.6953125,150.4453125);"><path d="M98 382L98 94C98 20 131 -12 208 -12C231 -12 255 -7 261 0L309 53L296 70C271 56 256 51 237 51C198 51 182 71 182 120L182 382L310 382L319 436L182 430L182 468C182 510 185 546 193 610L181 621C157 606 127 593 96 583C99 553 100 534 100 504L100 434L22 399L22 378ZM513 465L504 469C453 448 401 434 348 428L348 400L385 400C425 400 429 393 429 327L429 102C429 39 426 32 392 30L346 27L346 -3C446 0 446 0 471 0C496 0 496 0 596 -3L596 27L550 30C516 32 513 39 513 102ZM467 687C437 687 411 661 411 631C411 602 437 576 466 576C495 576 522 602 522 631C522 659 495 687 467 687ZM633 400L670 400C710 400 714 393 714 327L714 102C714 39 711 32 677 30L631 27L631 -3C727 0 730 0 758 0C786 0 812 -1 877 -3L877 27L835 30C801 32 798 39 798 102L798 314C798 359 864 408 924 408C978 408 1015 357 1015 281L1015 102C1015 39 1012 32 978 30L932 27L932 -3C1032 0 1032 0 1057 0C1082 0 1082 0 1182 -3L1182 27L1136 30C1102 32 1099 39 1099 102L1099 314C1099 359 1165 408 1225 408C1279 408 1316 357 1316 281L1316 -3C1377 0 1378 0 1395 0C1408 0 1408 0 1484 -3L1484 27L1437 30C1403 32 1400 39 1400 102L1400 308C1400 407 1342 469 1250 469C1215 469 1186 460 1168 444L1092 376C1060 442 1019 469 950 469C913 469 885 460 867 444L798 380L798 465L789 469C738 448 686 434 633 428ZM1747 -20C1812 -20 1902 18 1914 36L1934 70L1921 80C1857 42 1834 33 1791 33C1726 33 1672 62 1644 111C1625 144 1618 172 1616 230C1637 227 1667 226 1701 226C1787 226 1896 234 1943 244C1944 258 1945 267 1945 279C1945 394 1871 469 1759 469C1722 469 1677 464 1637 440C1555 392 1523 323 1523 219C1523 25 1658 -20 1747 -20ZM1856 267C1832 264 1781 261 1730 261C1687 261 1644 264 1618 270C1618 317 1622 339 1635 365C1656 409 1699 436 1747 436C1780 436 1806 423 1824 396C1846 363 1853 334 1856 267ZM2016 143C2016 74 2013 44 2005 4C2057 -13 2096 -20 2142 -20C2273 -20 2366 50 2366 148C2366 321 2082 228 2082 358C2082 408 2117 436 2178 436C2245 436 2296 401 2296 354L2296 331L2324 331C2325 389 2326 413 2329 444C2276 462 2240 469 2199 469C2083 469 2012 414 2012 324C2012 276 2034 242 2080 221C2198 169 2292 195 2292 109C2292 55 2242 17 2171 17C2098 17 2046 52 2046 102L2046 143Z" stroke="rgb(0, 0, 0)" stroke-width="8" fill="rgb(0, 0, 0)" style="transform:matrix(0.017,0,0,-0.017,0,0);"></path></g></g></g><g><g><g style="transform:matrix(1,0,0,1,583.3125,228.4453125);"><path d="M24 388L31 368L63 389C100 412 103 414 110 414C121 414 128 404 128 389C128 338 87 145 46 2L53 -9C78 -2 101 4 123 8C142 134 163 199 209 268C263 352 338 414 383 414C394 414 400 405 400 390C400 372 397 351 389 319L337 107C328 70 324 47 324 31C324 6 335 -9 354 -9C380 -9 416 12 514 85L504 103L478 86C449 67 427 56 417 56C410 56 404 65 404 76C404 81 405 92 406 96L472 372C479 401 483 429 483 446C483 469 472 482 452 482C410 482 341 444 282 389C244 354 216 320 164 247L202 408C206 426 208 438 208 449C208 470 200 482 185 482C164 482 125 460 52 408Z" stroke="rgb(0, 0, 0)" stroke-width="8" fill="rgb(0, 0, 0)" style="transform:matrix(0.017,0,0,-0.017,0,0);"></path></g><g><g><g><g style="transform:matrix(1,0,0,1,593.234375,231.4546875);"><path d="M146 266C146 526 243 632 301 700L282 726C225 675 60 542 60 266C60 159 85 58 133 -32C168 -99 200 -138 282 -215L301 -194C255 -137 146 -15 146 266Z" stroke="rgb(0, 0, 0)" stroke-width="8" fill="rgb(0, 0, 0)" style="transform:matrix(0.0119,0,0,-0.0119,0,0);"></path></g><g style="transform:matrix(1,0,0,1,597.1875,231.4546875);"><path d="M271 204L242 77C238 60 236 42 236 26C236 4 245 -9 260 -9C283 -9 324 17 406 85L399 106C375 86 346 59 324 59C315 59 309 68 309 82C309 87 309 90 310 93L402 472L392 481L359 463C318 478 301 482 274 482C246 482 226 477 199 464C137 433 104 403 79 354C35 265 4 145 4 67C4 23 19 -11 38 -11C75 -11 155 41 271 204ZM319 414C297 305 278 253 244 201C187 117 126 59 94 59C82 59 76 72 76 99C76 163 104 280 139 360C163 415 186 433 234 433C257 433 275 429 319 414ZM942 116C912 116 885 88 885 58C885 28 912 0 941 0C973 0 1001 27 1001 58C1001 88 973 116 942 116ZM609 116C579 116 552 88 552 58C552 28 579 0 608 0C640 0 668 27 668 58C668 88 640 116 609 116ZM1275 116C1245 116 1218 88 1218 58C1218 28 1245 0 1274 0C1306 0 1334 27 1334 58C1334 88 1306 116 1275 116Z" stroke="rgb(0, 0, 0)" stroke-width="8" fill="rgb(0, 0, 0)" style="transform:matrix(0.0119,0,0,-0.0119,0,0);"></path></g><g style="transform:matrix(1,0,0,1,614.34375,231.4546875);"><path d="M51 726L32 700C87 636 187 526 187 266C187 -10 83 -131 32 -194L51 -215C104 -165 273 -23 273 265C273 542 108 675 51 726Z" stroke="rgb(0, 0, 0)" stroke-width="8" fill="rgb(0, 0, 0)" style="transform:matrix(0.0119,0,0,-0.0119,0,0);"></path></g><g style="transform:matrix(1,0,0,1,618.296875,231.4546875);"><path d="M104 470C161 543 199 610 233 696L220 709C184 697 174 694 123 679C117 599 93 533 45 456L60 446Z" stroke="rgb(0, 0, 0)" stroke-width="8" fill="rgb(0, 0, 0)" style="transform:matrix(0.0119,0,0,-0.0119,0,0);"></path></g></g></g></g><g style="transform:matrix(1,0,0,1,622.625,228.4453125);"><path d="" stroke="rgb(0, 0, 0)" stroke-width="8" fill="rgb(0, 0, 0)" style="transform:matrix(0.017,0,0,-0.017,0,0);"></path></g><g style="transform:matrix(1,0,0,1,626.84375,228.4453125);"><path d="M98 382L98 94C98 20 131 -12 208 -12C231 -12 255 -7 261 0L309 53L296 70C271 56 256 51 237 51C198 51 182 71 182 120L182 382L310 382L319 436L182 430L182 468C182 510 185 546 193 610L181 621C157 606 127 593 96 583C99 553 100 534 100 504L100 434L22 399L22 378ZM513 465L504 469C453 448 401 434 348 428L348 400L385 400C425 400 429 393 429 327L429 102C429 39 426 32 392 30L346 27L346 -3C446 0 446 0 471 0C496 0 496 0 596 -3L596 27L550 30C516 32 513 39 513 102ZM467 687C437 687 411 661 411 631C411 602 437 576 466 576C495 576 522 602 522 631C522 659 495 687 467 687ZM633 400L670 400C710 400 714 393 714 327L714 102C714 39 711 32 677 30L631 27L631 -3C727 0 730 0 758 0C786 0 812 -1 877 -3L877 27L835 30C801 32 798 39 798 102L798 314C798 359 864 408 924 408C978 408 1015 357 1015 281L1015 102C1015 39 1012 32 978 30L932 27L932 -3C1032 0 1032 0 1057 0C1082 0 1082 0 1182 -3L1182 27L1136 30C1102 32 1099 39 1099 102L1099 314C1099 359 1165 408 1225 408C1279 408 1316 357 1316 281L1316 -3C1377 0 1378 0 1395 0C1408 0 1408 0 1484 -3L1484 27L1437 30C1403 32 1400 39 1400 102L1400 308C1400 407 1342 469 1250 469C1215 469 1186 460 1168 444L1092 376C1060 442 1019 469 950 469C913 469 885 460 867 444L798 380L798 465L789 469C738 448 686 434 633 428ZM1747 -20C1812 -20 1902 18 1914 36L1934 70L1921 80C1857 42 1834 33 1791 33C1726 33 1672 62 1644 111C1625 144 1618 172 1616 230C1637 227 1667 226 1701 226C1787 226 1896 234 1943 244C1944 258 1945 267 1945 279C1945 394 1871 469 1759 469C1722 469 1677 464 1637 440C1555 392 1523 323 1523 219C1523 25 1658 -20 1747 -20ZM1856 267C1832 264 1781 261 1730 261C1687 261 1644 264 1618 270C1618 317 1622 339 1635 365C1656 409 1699 436 1747 436C1780 436 1806 423 1824 396C1846 363 1853 334 1856 267ZM2016 143C2016 74 2013 44 2005 4C2057 -13 2096 -20 2142 -20C2273 -20 2366 50 2366 148C2366 321 2082 228 2082 358C2082 408 2117 436 2178 436C2245 436 2296 401 2296 354L2296 331L2324 331C2325 389 2326 413 2329 444C2276 462 2240 469 2199 469C2083 469 2012 414 2012 324C2012 276 2034 242 2080 221C2198 169 2292 195 2292 109C2292 55 2242 17 2171 17C2098 17 2046 52 2046 102L2046 143Z" stroke="rgb(0, 0, 0)" stroke-width="8" fill="rgb(0, 0, 0)" style="transform:matrix(0.017,0,0,-0.017,0,0);"></path></g></g></g><g><g><g style="transform:matrix(1,0,0,1,564.6640625,305.4453125);"><path d="M24 388L31 368L63 389C100 412 103 414 110 414C121 414 128 404 128 389C128 338 87 145 46 2L53 -9C78 -2 101 4 123 8C142 134 163 199 209 268C263 352 338 414 383 414C394 414 400 405 400 390C400 372 397 351 389 319L337 107C328 70 324 47 324 31C324 6 335 -9 354 -9C380 -9 416 12 514 85L504 103L478 86C449 67 427 56 417 56C410 56 404 65 404 76C404 81 405 92 406 96L472 372C479 401 483 429 483 446C483 469 472 482 452 482C410 482 341 444 282 389C244 354 216 320 164 247L202 408C206 426 208 438 208 449C208 470 200 482 185 482C164 482 125 460 52 408Z" stroke="rgb(0, 0, 0)" stroke-width="8" fill="rgb(0, 0, 0)" style="transform:matrix(0.017,0,0,-0.017,0,0);"></path></g><g><g><g><g style="transform:matrix(1,0,0,1,574.5859375,308.4546875);"><path d="M146 266C146 526 243 632 301 700L282 726C225 675 60 542 60 266C60 159 85 58 133 -32C168 -99 200 -138 282 -215L301 -194C255 -137 146 -15 146 266Z" stroke="rgb(0, 0, 0)" stroke-width="8" fill="rgb(0, 0, 0)" style="transform:matrix(0.0119,0,0,-0.0119,0,0);"></path></g><g style="transform:matrix(1,0,0,1,578.5390625,308.4546875);"><path d="M271 204L242 77C238 60 236 42 236 26C236 4 245 -9 260 -9C283 -9 324 17 406 85L399 106C375 86 346 59 324 59C315 59 309 68 309 82C309 87 309 90 310 93L402 472L392 481L359 463C318 478 301 482 274 482C246 482 226 477 199 464C137 433 104 403 79 354C35 265 4 145 4 67C4 23 19 -11 38 -11C75 -11 155 41 271 204ZM319 414C297 305 278 253 244 201C187 117 126 59 94 59C82 59 76 72 76 99C76 163 104 280 139 360C163 415 186 433 234 433C257 433 275 429 319 414ZM942 116C912 116 885 88 885 58C885 28 912 0 941 0C973 0 1001 27 1001 58C1001 88 973 116 942 116ZM609 116C579 116 552 88 552 58C552 28 579 0 608 0C640 0 668 27 668 58C668 88 640 116 609 116ZM1275 116C1245 116 1218 88 1218 58C1218 28 1245 0 1274 0C1306 0 1334 27 1334 58C1334 88 1306 116 1275 116Z" stroke="rgb(0, 0, 0)" stroke-width="8" fill="rgb(0, 0, 0)" style="transform:matrix(0.0119,0,0,-0.0119,0,0);"></path></g><g style="transform:matrix(1,0,0,1,595.6953125,308.4546875);"><path d="M51 726L32 700C87 636 187 526 187 266C187 -10 83 -131 32 -194L51 -215C104 -165 273 -23 273 265C273 542 108 675 51 726Z" stroke="rgb(0, 0, 0)" stroke-width="8" fill="rgb(0, 0, 0)" style="transform:matrix(0.0119,0,0,-0.0119,0,0);"></path></g><g style="transform:matrix(1,0,0,1,599.6484375,308.4546875);"><path d="M104 470C161 543 199 610 233 696L220 709C184 697 174 694 123 679C117 599 93 533 45 456L60 446ZM381 470C438 543 476 610 510 696L497 709C461 697 451 694 400 679C394 599 370 533 322 456L337 446Z" stroke="rgb(0, 0, 0)" stroke-width="8" fill="rgb(0, 0, 0)" style="transform:matrix(0.0119,0,0,-0.0119,0,0);"></path></g></g></g></g><g style="transform:matrix(1,0,0,1,607.2734375,305.4453125);"><path d="" stroke="rgb(0, 0, 0)" stroke-width="8" fill="rgb(0, 0, 0)" style="transform:matrix(0.017,0,0,-0.017,0,0);"></path></g><g style="transform:matrix(1,0,0,1,611.4921875,305.4453125);"><path d="M98 382L98 94C98 20 131 -12 208 -12C231 -12 255 -7 261 0L309 53L296 70C271 56 256 51 237 51C198 51 182 71 182 120L182 382L310 382L319 436L182 430L182 468C182 510 185 546 193 610L181 621C157 606 127 593 96 583C99 553 100 534 100 504L100 434L22 399L22 378ZM513 465L504 469C453 448 401 434 348 428L348 400L385 400C425 400 429 393 429 327L429 102C429 39 426 32 392 30L346 27L346 -3C446 0 446 0 471 0C496 0 496 0 596 -3L596 27L550 30C516 32 513 39 513 102ZM467 687C437 687 411 661 411 631C411 602 437 576 466 576C495 576 522 602 522 631C522 659 495 687 467 687ZM633 400L670 400C710 400 714 393 714 327L714 102C714 39 711 32 677 30L631 27L631 -3C727 0 730 0 758 0C786 0 812 -1 877 -3L877 27L835 30C801 32 798 39 798 102L798 314C798 359 864 408 924 408C978 408 1015 357 1015 281L1015 102C1015 39 1012 32 978 30L932 27L932 -3C1032 0 1032 0 1057 0C1082 0 1082 0 1182 -3L1182 27L1136 30C1102 32 1099 39 1099 102L1099 314C1099 359 1165 408 1225 408C1279 408 1316 357 1316 281L1316 -3C1377 0 1378 0 1395 0C1408 0 1408 0 1484 -3L1484 27L1437 30C1403 32 1400 39 1400 102L1400 308C1400 407 1342 469 1250 469C1215 469 1186 460 1168 444L1092 376C1060 442 1019 469 950 469C913 469 885 460 867 444L798 380L798 465L789 469C738 448 686 434 633 428ZM1747 -20C1812 -20 1902 18 1914 36L1934 70L1921 80C1857 42 1834 33 1791 33C1726 33 1672 62 1644 111C1625 144 1618 172 1616 230C1637 227 1667 226 1701 226C1787 226 1896 234 1943 244C1944 258 1945 267 1945 279C1945 394 1871 469 1759 469C1722 469 1677 464 1637 440C1555 392 1523 323 1523 219C1523 25 1658 -20 1747 -20ZM1856 267C1832 264 1781 261 1730 261C1687 261 1644 264 1618 270C1618 317 1622 339 1635 365C1656 409 1699 436 1747 436C1780 436 1806 423 1824 396C1846 363 1853 334 1856 267ZM2016 143C2016 74 2013 44 2005 4C2057 -13 2096 -20 2142 -20C2273 -20 2366 50 2366 148C2366 321 2082 228 2082 358C2082 408 2117 436 2178 436C2245 436 2296 401 2296 354L2296 331L2324 331C2325 389 2326 413 2329 444C2276 462 2240 469 2199 469C2083 469 2012 414 2012 324C2012 276 2034 242 2080 221C2198 169 2292 195 2292 109C2292 55 2242 17 2171 17C2098 17 2046 52 2046 102L2046 143Z" stroke="rgb(0, 0, 0)" stroke-width="8" fill="rgb(0, 0, 0)" style="transform:matrix(0.017,0,0,-0.017,0,0);"></path></g></g></g><g><g><g style="transform:matrix(1,0,0,1,371.9140625,153.4453125);"><path d="M483 722L471 733C419 707 383 698 311 691L307 670L355 670C379 670 389 663 389 646C389 638 388 629 387 622L359 468C329 477 302 482 277 482C208 482 114 410 68 323C37 265 17 170 17 86C17 21 32 -11 61 -11C88 -11 125 6 159 33C213 77 246 116 313 217L290 126C279 82 274 50 274 24C274 3 283 -9 300 -9C317 -9 341 3 375 28L456 88L446 107L402 76C388 66 372 59 363 59C355 59 349 68 349 82C349 90 350 99 357 128ZM114 59C98 59 89 73 89 98C89 224 135 380 184 418C197 428 216 433 243 433C287 433 316 427 349 410L337 351C300 171 159 59 114 59Z" stroke="rgb(0, 0, 0)" stroke-width="8" fill="rgb(0, 0, 0)" style="transform:matrix(0.017,0,0,-0.017,0,0);"></path></g><g><g><g><g style="transform:matrix(1,0,0,1,380.8828125,156.4546875);"><path d="M342 330L365 330C373 395 380 432 389 458C365 473 330 482 293 482C248 483 175 463 118 400C64 352 25 241 25 136C25 40 67 -11 147 -11C201 -11 249 9 304 54L354 95L346 115L331 105C259 57 221 40 186 40C130 40 101 80 101 159C101 267 136 371 185 409C206 425 230 433 261 433C306 433 342 414 342 390ZM510 470C567 543 605 610 639 696L626 709C590 697 580 694 529 679C523 599 499 533 451 456L466 446Z" stroke="rgb(0, 0, 0)" stroke-width="8" fill="rgb(0, 0, 0)" style="transform:matrix(0.0119,0,0,-0.0119,0,0);"></path></g></g></g></g></g></g><g><g><g style="transform:matrix(1,0,0,1,482.0234375,341.8515625);"><path d="M416 25L416 -3C464 -1 509 0 551 0C591 0 636 -1 684 -3L684 25L659 27C618 30 605 37 591 61L420 368L641 620C671 653 680 659 706 662L734 664L734 692L620 689C608 689 594 689 505 692L505 664L538 662C570 660 583 655 583 643C583 632 578 623 560 601L399 405L295 604C286 622 281 634 281 642C281 654 294 660 324 662L361 664L361 692L315 691C274 690 244 689 228 689C211 689 181 690 140 691L95 692L95 664L121 662C170 657 182 650 202 613L348 343L110 61C95 43 72 31 48 28L20 25L20 -3C69 -1 110 0 145 0C181 0 221 -1 264 -3L264 25L232 28C194 32 177 38 177 50C177 58 181 67 187 75L369 306L488 80C497 62 502 49 502 40C502 32 495 29 470 29L454 28Z" stroke="rgb(0, 0, 0)" stroke-width="8" fill="rgb(0, 0, 0)" style="transform:matrix(0.017,0,0,-0.017,0,0);"></path></g><g><g><g><g style="transform:matrix(1,0,0,1,495.2421875,335.2828125);"><path d="M146 266C146 526 243 632 301 700L282 726C225 675 60 542 60 266C60 159 85 58 133 -32C168 -99 200 -138 282 -215L301 -194C255 -137 146 -15 146 266Z" stroke="rgb(0, 0, 0)" stroke-width="8" fill="rgb(0, 0, 0)" style="transform:matrix(0.0119,0,0,-0.0119,0,0);"></path></g><g style="transform:matrix(1,0,0,1,499.1953125,335.2828125);"><path d="M271 204L242 77C238 60 236 42 236 26C236 4 245 -9 260 -9C283 -9 324 17 406 85L399 106C375 86 346 59 324 59C315 59 309 68 309 82C309 87 309 90 310 93L402 472L392 481L359 463C318 478 301 482 274 482C246 482 226 477 199 464C137 433 104 403 79 354C35 265 4 145 4 67C4 23 19 -11 38 -11C75 -11 155 41 271 204ZM319 414C297 305 278 253 244 201C187 117 126 59 94 59C82 59 76 72 76 99C76 163 104 280 139 360C163 415 186 433 234 433C257 433 275 429 319 414ZM942 116C912 116 885 88 885 58C885 28 912 0 941 0C973 0 1001 27 1001 58C1001 88 973 116 942 116ZM609 116C579 116 552 88 552 58C552 28 579 0 608 0C640 0 668 27 668 58C668 88 640 116 609 116ZM1275 116C1245 116 1218 88 1218 58C1218 28 1245 0 1274 0C1306 0 1334 27 1334 58C1334 88 1306 116 1275 116Z" stroke="rgb(0, 0, 0)" stroke-width="8" fill="rgb(0, 0, 0)" style="transform:matrix(0.0119,0,0,-0.0119,0,0);"></path></g><g style="transform:matrix(1,0,0,1,516.3515625,335.2828125);"><path d="M51 726L32 700C87 636 187 526 187 266C187 -10 83 -131 32 -194L51 -215C104 -165 273 -23 273 265C273 542 108 675 51 726Z" stroke="rgb(0, 0, 0)" stroke-width="8" fill="rgb(0, 0, 0)" style="transform:matrix(0.0119,0,0,-0.0119,0,0);"></path></g><g style="transform:matrix(1,0,0,1,520.3046875,335.2828125);"><path d="M104 470C161 543 199 610 233 696L220 709C184 697 174 694 123 679C117 599 93 533 45 456L60 446ZM381 470C438 543 476 610 510 696L497 709C461 697 451 694 400 679C394 599 370 533 322 456L337 446Z" stroke="rgb(0, 0, 0)" stroke-width="8" fill="rgb(0, 0, 0)" style="transform:matrix(0.0119,0,0,-0.0119,0,0);"></path></g></g></g><g><g><g style="transform:matrix(1,0,0,1,494.7734375,346.5171875);"><path d="M342 330L365 330C373 395 380 432 389 458C365 473 330 482 293 482C248 483 175 463 118 400C64 352 25 241 25 136C25 40 67 -11 147 -11C201 -11 249 9 304 54L354 95L346 115L331 105C259 57 221 40 186 40C130 40 101 80 101 159C101 267 136 371 185 409C206 425 230 433 261 433C306 433 342 414 342 390ZM510 470C567 543 605 610 639 696L626 709C590 697 580 694 529 679C523 599 499 533 451 456L466 446ZM887 123C860 114 842 108 789 93C782 17 757 -48 699 -144L713 -155L754 -136C835 -31 873 32 901 109ZM1332 -16C1378 -16 1445 54 1477 84L1477 97L1464 97C1445 79 1421 55 1394 55C1349 55 1356 184 1356 216C1406 278 1452 343 1490 413C1483 428 1476 444 1468 459L1457 459C1443 391 1388 315 1352 257C1354 336 1377 472 1264 473C1096 473 959 243 956 93C955 33 975 -16 1043 -16C1135 -16 1229 64 1289 131C1289 96 1280 -15 1332 -16ZM1216 437C1303 437 1290 224 1289 164C1246 113 1165 28 1094 28C1041 28 1030 70 1031 115C1032 202 1107 437 1216 437ZM1630 470C1687 543 1725 610 1759 696L1746 709C1710 697 1700 694 1649 679C1643 599 1619 533 1571 456L1586 446ZM1907 470C1964 543 2002 610 2036 696L2023 709C1987 697 1977 694 1926 679C1920 599 1896 533 1848 456L1863 446Z" stroke="rgb(0, 0, 0)" stroke-width="8" fill="rgb(0, 0, 0)" style="transform:matrix(0.0119,0,0,-0.0119,0,0);"></path></g></g></g></g></g></g><g><g><g style="transform:matrix(1,0,0,1,305.171875,338.8515625);"><path d="M416 25L416 -3C464 -1 509 0 551 0C591 0 636 -1 684 -3L684 25L659 27C618 30 605 37 591 61L420 368L641 620C671 653 680 659 706 662L734 664L734 692L620 689C608 689 594 689 505 692L505 664L538 662C570 660 583 655 583 643C583 632 578 623 560 601L399 405L295 604C286 622 281 634 281 642C281 654 294 660 324 662L361 664L361 692L315 691C274 690 244 689 228 689C211 689 181 690 140 691L95 692L95 664L121 662C170 657 182 650 202 613L348 343L110 61C95 43 72 31 48 28L20 25L20 -3C69 -1 110 0 145 0C181 0 221 -1 264 -3L264 25L232 28C194 32 177 38 177 50C177 58 181 67 187 75L369 306L488 80C497 62 502 49 502 40C502 32 495 29 470 29L454 28Z" stroke="rgb(0, 0, 0)" stroke-width="8" fill="rgb(0, 0, 0)" style="transform:matrix(0.017,0,0,-0.017,0,0);"></path></g><g><g><g><g style="transform:matrix(1,0,0,1,318.390625,332.2828125);"><path d="M146 266C146 526 243 632 301 700L282 726C225 675 60 542 60 266C60 159 85 58 133 -32C168 -99 200 -138 282 -215L301 -194C255 -137 146 -15 146 266Z" stroke="rgb(0, 0, 0)" stroke-width="8" fill="rgb(0, 0, 0)" style="transform:matrix(0.0119,0,0,-0.0119,0,0);"></path></g><g style="transform:matrix(1,0,0,1,322.34375,332.2828125);"><path d="M271 204L242 77C238 60 236 42 236 26C236 4 245 -9 260 -9C283 -9 324 17 406 85L399 106C375 86 346 59 324 59C315 59 309 68 309 82C309 87 309 90 310 93L402 472L392 481L359 463C318 478 301 482 274 482C246 482 226 477 199 464C137 433 104 403 79 354C35 265 4 145 4 67C4 23 19 -11 38 -11C75 -11 155 41 271 204ZM319 414C297 305 278 253 244 201C187 117 126 59 94 59C82 59 76 72 76 99C76 163 104 280 139 360C163 415 186 433 234 433C257 433 275 429 319 414ZM942 116C912 116 885 88 885 58C885 28 912 0 941 0C973 0 1001 27 1001 58C1001 88 973 116 942 116ZM609 116C579 116 552 88 552 58C552 28 579 0 608 0C640 0 668 27 668 58C668 88 640 116 609 116ZM1275 116C1245 116 1218 88 1218 58C1218 28 1245 0 1274 0C1306 0 1334 27 1334 58C1334 88 1306 116 1275 116Z" stroke="rgb(0, 0, 0)" stroke-width="8" fill="rgb(0, 0, 0)" style="transform:matrix(0.0119,0,0,-0.0119,0,0);"></path></g><g style="transform:matrix(1,0,0,1,339.5,332.2828125);"><path d="M51 726L32 700C87 636 187 526 187 266C187 -10 83 -131 32 -194L51 -215C104 -165 273 -23 273 265C273 542 108 675 51 726Z" stroke="rgb(0, 0, 0)" stroke-width="8" fill="rgb(0, 0, 0)" style="transform:matrix(0.0119,0,0,-0.0119,0,0);"></path></g><g style="transform:matrix(1,0,0,1,343.453125,332.2828125);"><path d="M104 470C161 543 199 610 233 696L220 709C184 697 174 694 123 679C117 599 93 533 45 456L60 446Z" stroke="rgb(0, 0, 0)" stroke-width="8" fill="rgb(0, 0, 0)" style="transform:matrix(0.0119,0,0,-0.0119,0,0);"></path></g></g></g><g><g><g style="transform:matrix(1,0,0,1,317.921875,343.5171875);"><path d="M342 330L365 330C373 395 380 432 389 458C365 473 330 482 293 482C248 483 175 463 118 400C64 352 25 241 25 136C25 40 67 -11 147 -11C201 -11 249 9 304 54L354 95L346 115L331 105C259 57 221 40 186 40C130 40 101 80 101 159C101 267 136 371 185 409C206 425 230 433 261 433C306 433 342 414 342 390ZM610 123C583 114 565 108 512 93C505 17 480 -48 422 -144L436 -155L477 -136C558 -31 596 32 624 109ZM1055 -16C1101 -16 1168 54 1200 84L1200 97L1187 97C1168 79 1144 55 1117 55C1072 55 1079 184 1079 216C1129 278 1175 343 1213 413C1206 428 1199 444 1191 459L1180 459C1166 391 1111 315 1075 257C1077 336 1100 472 987 473C819 473 682 243 679 93C678 33 698 -16 766 -16C858 -16 952 64 1012 131C1012 96 1003 -15 1055 -16ZM939 437C1026 437 1013 224 1012 164C969 113 888 28 817 28C764 28 753 70 754 115C755 202 830 437 939 437ZM1353 470C1410 543 1448 610 1482 696L1469 709C1433 697 1423 694 1372 679C1366 599 1342 533 1294 456L1309 446Z" stroke="rgb(0, 0, 0)" stroke-width="8" fill="rgb(0, 0, 0)" style="transform:matrix(0.0119,0,0,-0.0119,0,0);"></path></g></g></g></g></g></g><g><g><g style="transform:matrix(1,0,0,1,12.03125,27.5);"><path d="M1235 259C1235 576 977 833 660 833C343 833 86 576 86 259C86 -56 343 -316 660 -316C977 -316 1235 -56 1235 259ZM1180 300L688 300L688 779C952 754 1151 560 1180 300ZM629 300L141 300C171 562 367 754 629 779ZM1181 236C1159 -34 957 -236 688 -260L688 236ZM629 -261C360 -234 162 -32 140 236L629 236Z" stroke="rgb(0, 0, 0)" stroke-width="8" fill="rgb(0, 0, 0)" style="transform:matrix(0.017,0,0,-0.017,0,0);"></path></g><g><g><g><g style="transform:matrix(1,0,0,1,34.96875,30.509375);"><path d="M271 204L242 77C238 60 236 42 236 26C236 4 245 -9 260 -9C283 -9 324 17 406 85L399 106C375 86 346 59 324 59C315 59 309 68 309 82C309 87 309 90 310 93L402 472L392 481L359 463C318 478 301 482 274 482C246 482 226 477 199 464C137 433 104 403 79 354C35 265 4 145 4 67C4 23 19 -11 38 -11C75 -11 155 41 271 204ZM319 414C297 305 278 253 244 201C187 117 126 59 94 59C82 59 76 72 76 99C76 163 104 280 139 360C163 415 186 433 234 433C257 433 275 429 319 414Z" stroke="rgb(0, 0, 0)" stroke-width="8" fill="rgb(0, 0, 0)" style="transform:matrix(0.0119,0,0,-0.0119,0,0);"></path></g><g><g><g><g style="transform:matrix(1,0,0,1,40.578125,32.61125);"><path d="M418 -3L418 27L366 30C311 33 301 44 301 96L301 700L60 598L67 548L217 614L217 96C217 44 206 33 152 30L96 27L96 -3C250 0 250 0 261 0C292 0 402 -3 418 -3Z" stroke="rgb(0, 0, 0)" stroke-width="8" fill="rgb(0, 0, 0)" style="transform:matrix(0.00833,0,0,-0.00833,0,0);"></path></g></g></g></g><g style="transform:matrix(1,0,0,1,45.453125,30.509375);"><path d="M499 116C469 116 442 88 442 58C442 28 469 0 498 0C530 0 558 27 558 58C558 88 530 116 499 116ZM166 116C136 116 109 88 109 58C109 28 136 0 165 0C197 0 225 27 225 58C225 88 197 116 166 116ZM832 116C802 116 775 88 775 58C775 28 802 0 831 0C863 0 891 27 891 58C891 88 863 116 832 116ZM1271 204L1242 77C1238 60 1236 42 1236 26C1236 4 1245 -9 1260 -9C1283 -9 1324 17 1406 85L1399 106C1375 86 1346 59 1324 59C1315 59 1309 68 1309 82C1309 87 1309 90 1310 93L1402 472L1392 481L1359 463C1318 478 1301 482 1274 482C1246 482 1226 477 1199 464C1137 433 1104 403 1079 354C1035 265 1004 145 1004 67C1004 23 1019 -11 1038 -11C1075 -11 1155 41 1271 204ZM1319 414C1297 305 1278 253 1244 201C1187 117 1126 59 1094 59C1082 59 1076 72 1076 99C1076 163 1104 280 1139 360C1163 415 1186 433 1234 433C1257 433 1275 429 1319 414Z" stroke="rgb(0, 0, 0)" stroke-width="8" fill="rgb(0, 0, 0)" style="transform:matrix(0.0119,0,0,-0.0119,0,0);"></path></g><g><g><g><g style="transform:matrix(1,0,0,1,62.953125,31.61125);"><path d="M582 103L237 692L75 692L70 664L105 662C150 660 184 615 185 606L92 102C80 40 74 32 38 28L7 25L2 -3L113 0C125 0 126 0 223 -3L228 25L186 28C146 31 137 39 137 72C137 80 138 91 140 102L220 566L558 -11L608 -11L702 542C723 655 725 659 762 662L799 664L802 691L589 692L584 664L631 662C657 661 667 654 667 638C667 631 584 116 582 103Z" stroke="rgb(0, 0, 0)" stroke-width="8" fill="rgb(0, 0, 0)" style="transform:matrix(0.00833,0,0,-0.00833,0,0);"></path></g><g><g><g><g style="transform:matrix(1,0,0,1,69.65625,34.081);"><path d="M418 -3L418 27L366 30C311 33 301 44 301 96L301 700L60 598L67 548L217 614L217 96C217 44 206 33 152 30L96 27L96 -3C250 0 250 0 261 0C292 0 402 -3 418 -3Z" stroke="rgb(0, 0, 0)" stroke-width="8" fill="rgb(0, 0, 0)" style="transform:matrix(0.005831,0,0,-0.005831,0,0);"></path></g></g></g></g></g></g></g></g></g></g><g style="transform:matrix(1,0,0,1,74.921875,27.5);"><path d="M1484 259C1484 576 1226 833 909 833C592 833 335 576 335 259C335 -56 592 -316 909 -316C1226 -316 1484 -56 1484 259ZM1429 300L937 300L937 779C1201 754 1400 560 1429 300ZM878 300L390 300C420 562 616 754 878 779ZM1430 236C1408 -34 1206 -236 937 -260L937 236ZM878 -261C609 -234 411 -32 389 236L878 236Z" stroke="rgb(0, 0, 0)" stroke-width="8" fill="rgb(0, 0, 0)" style="transform:matrix(0.017,0,0,-0.017,0,0);"></path></g><g><g><g><g style="transform:matrix(1,0,0,1,102.09375,30.509375);"><path d="M342 330L365 330C373 395 380 432 389 458C365 473 330 482 293 482C248 483 175 463 118 400C64 352 25 241 25 136C25 40 67 -11 147 -11C201 -11 249 9 304 54L354 95L346 115L331 105C259 57 221 40 186 40C130 40 101 80 101 159C101 267 136 371 185 409C206 425 230 433 261 433C306 433 342 414 342 390ZM610 123C583 114 565 108 512 93C505 17 480 -48 422 -144L436 -155L477 -136C558 -31 596 32 624 109ZM1055 -16C1101 -16 1168 54 1200 84L1200 97L1187 97C1168 79 1144 55 1117 55C1072 55 1079 184 1079 216C1129 278 1175 343 1213 413C1206 428 1199 444 1191 459L1180 459C1166 391 1111 315 1075 257C1077 336 1100 472 987 473C819 473 682 243 679 93C678 33 698 -16 766 -16C858 -16 952 64 1012 131C1012 96 1003 -15 1055 -16ZM939 437C1026 437 1013 224 1012 164C969 113 888 28 817 28C764 28 753 70 754 115C755 202 830 437 939 437ZM1453 123C1426 114 1408 108 1355 93C1348 17 1323 -48 1265 -144L1279 -155L1320 -136C1401 -31 1439 32 1467 109ZM1957 205C1957 301 1887 358 1796 360L1796 369C1889 400 1973 479 1974 581C1975 644 1943 680 1879 680C1652 680 1612 463 1587 289C1560 101 1534 -87 1490 -273L1490 -283C1516 -274 1541 -265 1568 -259C1574 -162 1588 -66 1602 29C1737 -84 1957 37 1957 205ZM1714 12C1657 12 1621 45 1622 103C1624 205 1688 570 1776 629C1835 668 1909 631 1904 558C1896 447 1808 371 1702 371C1699 338 1702 378 1698 329C1792 362 1881 309 1876 208C1872 115 1820 12 1714 12Z" stroke="rgb(0, 0, 0)" stroke-width="8" fill="rgb(0, 0, 0)" style="transform:matrix(0.0119,0,0,-0.0119,0,0);"></path></g></g></g></g><g style="transform:matrix(1,0,0,1,127.03125,27.5);"><path d="" stroke="rgb(0, 0, 0)" stroke-width="8" fill="rgb(0, 0, 0)" style="transform:matrix(0.017,0,0,-0.017,0,0);"></path></g><g><svg x="132.765625" style="overflow:visible;" y="6.5" height="31" width="8.5"><path d=" M 6.61 1.70 q 0.00 -0.11 -0.08 -0.11 q -0.03 0.00 -0.08 0.03 q -1.01 0.74 -1.75 1.74 t -1.37 2.51 t -0.95 3.72 t -0.33 5.07 v 0.83 h 1.68 v -0.83 q 0.00 -1.61 0.04 -2.79 t 0.22 -2.74 t 0.50 -2.72 t 0.91 -2.34 t 1.43 -1.99 q 0.12 -0.13 0.12 -0.39 z   M 0.90 15.50 v 0.00 h 1.68 v 0.00 z" style="fill:rgb(0, 0, 0);stroke-width:1px;stroke:none;"></path><path d=" M 6.61 29.30 q 0.00 0.11 -0.08 0.11 q -0.03 0.00 -0.08 -0.03 q -1.01 -0.74 -1.75 -1.74 t -1.37 -2.51 t -0.95 -3.72 t -0.33 -5.07 v -0.83 h 1.68 v 0.83 q 0.00 1.61 0.04 2.79 t 0.22 2.74 t 0.50 2.72 t 0.91 2.34 t 1.43 1.99 q 0.12 0.13 0.12 0.39 z" style="fill:rgb(0, 0, 0);stroke-width:1px;stroke:none;"></path></svg></g><g style="transform:matrix(1,0,0,1,139.578125,27.5);"><path d="M416 25L416 -3C464 -1 509 0 551 0C591 0 636 -1 684 -3L684 25L659 27C618 30 605 37 591 61L420 368L641 620C671 653 680 659 706 662L734 664L734 692L620 689C608 689 594 689 505 692L505 664L538 662C570 660 583 655 583 643C583 632 578 623 560 601L399 405L295 604C286 622 281 634 281 642C281 654 294 660 324 662L361 664L361 692L315 691C274 690 244 689 228 689C211 689 181 690 140 691L95 692L95 664L121 662C170 657 182 650 202 613L348 343L110 61C95 43 72 31 48 28L20 25L20 -3C69 -1 110 0 145 0C181 0 221 -1 264 -3L264 25L232 28C194 32 177 38 177 50C177 58 181 67 187 75L369 306L488 80C497 62 502 49 502 40C502 32 495 29 470 29L454 28Z" stroke="rgb(0, 0, 0)" stroke-width="8" fill="rgb(0, 0, 0)" style="transform:matrix(0.017,0,0,-0.017,0,0);"></path></g><g><g><g><g style="transform:matrix(1,0,0,1,152.796875,17.290625);"><path d="M271 204L242 77C238 60 236 42 236 26C236 4 245 -9 260 -9C283 -9 324 17 406 85L399 106C375 86 346 59 324 59C315 59 309 68 309 82C309 87 309 90 310 93L402 472L392 481L359 463C318 478 301 482 274 482C246 482 226 477 199 464C137 433 104 403 79 354C35 265 4 145 4 67C4 23 19 -11 38 -11C75 -11 155 41 271 204ZM319 414C297 305 278 253 244 201C187 117 126 59 94 59C82 59 76 72 76 99C76 163 104 280 139 360C163 415 186 433 234 433C257 433 275 429 319 414Z" stroke="rgb(0, 0, 0)" stroke-width="8" fill="rgb(0, 0, 0)" style="transform:matrix(0.0119,0,0,-0.0119,0,0);"></path></g><g><g><g><g style="transform:matrix(1,0,0,1,158.40625,19.3925);"><path d="M418 -3L418 27L366 30C311 33 301 44 301 96L301 700L60 598L67 548L217 614L217 96C217 44 206 33 152 30L96 27L96 -3C250 0 250 0 261 0C292 0 402 -3 418 -3Z" stroke="rgb(0, 0, 0)" stroke-width="8" fill="rgb(0, 0, 0)" style="transform:matrix(0.00833,0,0,-0.00833,0,0);"></path></g></g></g></g><g style="transform:matrix(1,0,0,1,163.28125,17.290625);"><path d="M499 116C469 116 442 88 442 58C442 28 469 0 498 0C530 0 558 27 558 58C558 88 530 116 499 116ZM166 116C136 116 109 88 109 58C109 28 136 0 165 0C197 0 225 27 225 58C225 88 197 116 166 116ZM832 116C802 116 775 88 775 58C775 28 802 0 831 0C863 0 891 27 891 58C891 88 863 116 832 116ZM1271 204L1242 77C1238 60 1236 42 1236 26C1236 4 1245 -9 1260 -9C1283 -9 1324 17 1406 85L1399 106C1375 86 1346 59 1324 59C1315 59 1309 68 1309 82C1309 87 1309 90 1310 93L1402 472L1392 481L1359 463C1318 478 1301 482 1274 482C1246 482 1226 477 1199 464C1137 433 1104 403 1079 354C1035 265 1004 145 1004 67C1004 23 1019 -11 1038 -11C1075 -11 1155 41 1271 204ZM1319 414C1297 305 1278 253 1244 201C1187 117 1126 59 1094 59C1082 59 1076 72 1076 99C1076 163 1104 280 1139 360C1163 415 1186 433 1234 433C1257 433 1275 429 1319 414Z" stroke="rgb(0, 0, 0)" stroke-width="8" fill="rgb(0, 0, 0)" style="transform:matrix(0.0119,0,0,-0.0119,0,0);"></path></g><g><g><g><g style="transform:matrix(1,0,0,1,180.78125,18.3925);"><path d="M582 103L237 692L75 692L70 664L105 662C150 660 184 615 185 606L92 102C80 40 74 32 38 28L7 25L2 -3L113 0C125 0 126 0 223 -3L228 25L186 28C146 31 137 39 137 72C137 80 138 91 140 102L220 566L558 -11L608 -11L702 542C723 655 725 659 762 662L799 664L802 691L589 692L584 664L631 662C657 661 667 654 667 638C667 631 584 116 582 103Z" stroke="rgb(0, 0, 0)" stroke-width="8" fill="rgb(0, 0, 0)" style="transform:matrix(0.00833,0,0,-0.00833,0,0);"></path></g><g><g><g><g style="transform:matrix(1,0,0,1,187.484375,20.86225);"><path d="M418 -3L418 27L366 30C311 33 301 44 301 96L301 700L60 598L67 548L217 614L217 96C217 44 206 33 152 30L96 27L96 -3C250 0 250 0 261 0C292 0 402 -3 418 -3Z" stroke="rgb(0, 0, 0)" stroke-width="8" fill="rgb(0, 0, 0)" style="transform:matrix(0.005831,0,0,-0.005831,0,0);"></path></g></g></g></g></g></g></g></g></g><g><g><g style="transform:matrix(1,0,0,1,152.328125,31.165625);"><path d="M342 330L365 330C373 395 380 432 389 458C365 473 330 482 293 482C248 483 175 463 118 400C64 352 25 241 25 136C25 40 67 -11 147 -11C201 -11 249 9 304 54L354 95L346 115L331 105C259 57 221 40 186 40C130 40 101 80 101 159C101 267 136 371 185 409C206 425 230 433 261 433C306 433 342 414 342 390ZM610 123C583 114 565 108 512 93C505 17 480 -48 422 -144L436 -155L477 -136C558 -31 596 32 624 109ZM1055 -16C1101 -16 1168 54 1200 84L1200 97L1187 97C1168 79 1144 55 1117 55C1072 55 1079 184 1079 216C1129 278 1175 343 1213 413C1206 428 1199 444 1191 459L1180 459C1166 391 1111 315 1075 257C1077 336 1100 472 987 473C819 473 682 243 679 93C678 33 698 -16 766 -16C858 -16 952 64 1012 131C1012 96 1003 -15 1055 -16ZM939 437C1026 437 1013 224 1012 164C969 113 888 28 817 28C764 28 753 70 754 115C755 202 830 437 939 437Z" stroke="rgb(0, 0, 0)" stroke-width="8" fill="rgb(0, 0, 0)" style="transform:matrix(0.0119,0,0,-0.0119,0,0);"></path></g></g></g></g><g style="transform:matrix(1,0,0,1,192.75,27.5);"><path d="" stroke="rgb(0, 0, 0)" stroke-width="8" fill="rgb(0, 0, 0)" style="transform:matrix(0.017,0,0,-0.017,0,0);"></path></g><g style="transform:matrix(1,0,0,1,199.96875,27.5);"><path d="M652 271C652 445 509 587 335 587C160 587 18 445 18 271C18 96 160 -46 335 -46C509 -46 652 96 652 271ZM507 477L335 304L162 477C208 516 269 540 335 540C400 540 460 516 507 477ZM604 271C604 205 580 144 541 98L368 271L541 443C580 397 604 336 604 271ZM301 271L128 98C89 144 65 205 65 271C65 336 89 397 128 443ZM507 64C460 25 400 1 335 1C269 1 208 25 162 64L335 237Z" stroke="rgb(0, 0, 0)" stroke-width="8" fill="rgb(0, 0, 0)" style="transform:matrix(0.017,0,0,-0.017,0,0);"></path></g><g style="transform:matrix(1,0,0,1,214.3125,27.5);"><path d="M154 543C154 271 152 41 150 37L44 35L44 -3C116 -2 244 -1 266 -1C302 0 412 -1 426 -1C442 -1 498 -2 556 -3L556 35L482 38C436 40 412 56 412 86L412 417C412 499 416 564 424 679L410 689C264 640 124 599 48 585C48 559 54 540 66 513ZM194 557L312 592L312 39L194 39Z" stroke="rgb(0, 0, 0)" stroke-width="8" fill="rgb(0, 0, 0)" style="transform:matrix(0.017,0,0,-0.017,0,0);"></path></g><g><g><g><g style="transform:matrix(1,0,0,1,225,30.509375);"><path d="M24 388L31 368L63 389C100 412 103 414 110 414C121 414 128 404 128 389C128 338 87 145 46 2L53 -9C78 -2 101 4 123 8C142 134 163 199 209 268C263 352 338 414 383 414C394 414 400 405 400 390C400 372 397 351 389 319L337 107C328 70 324 47 324 31C324 6 335 -9 354 -9C380 -9 416 12 514 85L504 103L478 86C449 67 427 56 417 56C410 56 404 65 404 76C404 81 405 92 406 96L472 372C479 401 483 429 483 446C483 469 472 482 452 482C410 482 341 444 282 389C244 354 216 320 164 247L202 408C206 426 208 438 208 449C208 470 200 482 185 482C164 482 125 460 52 408Z" stroke="rgb(0, 0, 0)" stroke-width="8" fill="rgb(0, 0, 0)" style="transform:matrix(0.0119,0,0,-0.0119,0,0);"></path></g><g><g><g><g style="transform:matrix(1,0,0,1,231.9375,31.61125);"><path d="M271 204L242 77C238 60 236 42 236 26C236 4 245 -9 260 -9C283 -9 324 17 406 85L399 106C375 86 346 59 324 59C315 59 309 68 309 82C309 87 309 90 310 93L402 472L392 481L359 463C318 478 301 482 274 482C246 482 226 477 199 464C137 433 104 403 79 354C35 265 4 145 4 67C4 23 19 -11 38 -11C75 -11 155 41 271 204ZM319 414C297 305 278 253 244 201C187 117 126 59 94 59C82 59 76 72 76 99C76 163 104 280 139 360C163 415 186 433 234 433C257 433 275 429 319 414Z" stroke="rgb(0, 0, 0)" stroke-width="8" fill="rgb(0, 0, 0)" style="transform:matrix(0.00833,0,0,-0.00833,0,0);"></path></g><g><g><g><g style="transform:matrix(1,0,0,1,235.859375,34.081);"><path d="M418 -3L418 27L366 30C311 33 301 44 301 96L301 700L60 598L67 548L217 614L217 96C217 44 206 33 152 30L96 27L96 -3C250 0 250 0 261 0C292 0 402 -3 418 -3Z" stroke="rgb(0, 0, 0)" stroke-width="8" fill="rgb(0, 0, 0)" style="transform:matrix(0.005831,0,0,-0.005831,0,0);"></path></g></g></g></g></g></g></g><g style="transform:matrix(1,0,0,1,240.015625,30.509375);"><path d="M611 37L376 271L611 505L568 547L335 313L101 547L59 505L293 271L59 37L101 -5L335 229L568 -5ZM1167 116C1137 116 1110 88 1110 58C1110 28 1137 0 1166 0C1198 0 1226 27 1226 58C1226 88 1198 116 1167 116ZM834 116C804 116 777 88 777 58C777 28 804 0 833 0C865 0 893 27 893 58C893 88 865 116 834 116ZM1500 116C1470 116 1443 88 1443 58C1443 28 1470 0 1499 0C1531 0 1559 27 1559 58C1559 88 1531 116 1500 116ZM2279 37L2044 271L2279 505L2236 547L2003 313L1769 547L1727 505L1961 271L1727 37L1769 -5L2003 229L2236 -5ZM2360 388L2367 368L2399 389C2436 412 2439 414 2446 414C2457 414 2464 404 2464 389C2464 338 2423 145 2382 2L2389 -9C2414 -2 2437 4 2459 8C2478 134 2499 199 2545 268C2599 352 2674 414 2719 414C2730 414 2736 405 2736 390C2736 372 2733 351 2725 319L2673 107C2664 70 2660 47 2660 31C2660 6 2671 -9 2690 -9C2716 -9 2752 12 2850 85L2840 103L2814 86C2785 67 2763 56 2753 56C2746 56 2740 65 2740 76C2740 81 2741 92 2742 96L2808 372C2815 401 2819 429 2819 446C2819 469 2808 482 2788 482C2746 482 2677 444 2618 389C2580 354 2552 320 2500 247L2538 408C2542 426 2544 438 2544 449C2544 470 2536 482 2521 482C2500 482 2461 460 2388 408Z" stroke="rgb(0, 0, 0)" stroke-width="8" fill="rgb(0, 0, 0)" style="transform:matrix(0.0119,0,0,-0.0119,0,0);"></path></g><g><g><g><g style="transform:matrix(1,0,0,1,274.75,31.61125);"><path d="M271 204L242 77C238 60 236 42 236 26C236 4 245 -9 260 -9C283 -9 324 17 406 85L399 106C375 86 346 59 324 59C315 59 309 68 309 82C309 87 309 90 310 93L402 472L392 481L359 463C318 478 301 482 274 482C246 482 226 477 199 464C137 433 104 403 79 354C35 265 4 145 4 67C4 23 19 -11 38 -11C75 -11 155 41 271 204ZM319 414C297 305 278 253 244 201C187 117 126 59 94 59C82 59 76 72 76 99C76 163 104 280 139 360C163 415 186 433 234 433C257 433 275 429 319 414Z" stroke="rgb(0, 0, 0)" stroke-width="8" fill="rgb(0, 0, 0)" style="transform:matrix(0.00833,0,0,-0.00833,0,0);"></path></g><g><g><g><g style="transform:matrix(1,0,0,1,278.671875,33.081);"><path d="M582 103L237 692L75 692L70 664L105 662C150 660 184 615 185 606L92 102C80 40 74 32 38 28L7 25L2 -3L113 0C125 0 126 0 223 -3L228 25L186 28C146 31 137 39 137 72C137 80 138 91 140 102L220 566L558 -11L608 -11L702 542C723 655 725 659 762 662L799 664L802 691L589 692L584 664L631 662C657 661 667 654 667 638C667 631 584 116 582 103Z" stroke="rgb(0, 0, 0)" stroke-width="8" fill="rgb(0, 0, 0)" style="transform:matrix(0.005831,0,0,-0.005831,0,0);"></path></g><g><g><g><g style="transform:matrix(1,0,0,1,283.359375,35.11295);"><path d="M418 -3L418 27L366 30C311 33 301 44 301 96L301 700L60 598L67 548L217 614L217 96C217 44 206 33 152 30L96 27L96 -3C250 0 250 0 261 0C292 0 402 -3 418 -3Z" stroke="rgb(0, 0, 0)" stroke-width="8" fill="rgb(0, 0, 0)" style="transform:matrix(0.0040817,0,0,-0.0040817,0,0);"></path></g></g></g></g></g></g></g></g></g></g></g></g></g><g><svg x="286.453125" style="overflow:visible;" y="6.5" height="31" width="8.5"><path d=" M 1.69 1.70 q 0.00 -0.11 0.08 -0.11 q 0.03 0.00 0.08 0.03 q 1.01 0.74 1.75 1.74 t 1.37 2.51 t 0.95 3.72 t 0.33 5.07 v 0.83 h -1.68 v -0.83 q 0.00 -1.61 -0.04 -2.79 t -0.22 -2.74 t -0.50 -2.72 t -0.91 -2.34 t -1.43 -1.99 q -0.12 -0.13 -0.12 -0.39 z  M 7.40 15.50 v 0.00 h -1.68 v 0.00 z" style="fill:rgb(0, 0, 0);stroke-width:1px;stroke:none;"></path><path d=" M 1.69 29.30 q 0.00 0.11 0.08 0.11 q 0.03 0.00 0.08 -0.03 q 1.01 -0.74 1.75 -1.74 t 1.37 -2.51 t 0.95 -3.72 t 0.33 -5.07 v -0.83 h -1.68 v 0.83 q 0.00 1.61 -0.04 2.79 t -0.22 2.74 t -0.50 2.72 t -0.91 2.34 t -1.43 1.99 q -0.12 0.13 -0.12 0.39 z" style="fill:rgb(0, 0, 0);stroke-width:1px;stroke:none;"></path></svg></g><g style="transform:matrix(1,0,0,1,296.140625,27.5);"><path d="" stroke="rgb(0, 0, 0)" stroke-width="8" fill="rgb(0, 0, 0)" style="transform:matrix(0.017,0,0,-0.017,0,0);"></path></g><g style="transform:matrix(1,0,0,1,305.359375,27.5);"><path d="M604 347L604 406L65 406L65 347ZM604 134L604 193L65 193L65 134Z" stroke="rgb(0, 0, 0)" stroke-width="8" fill="rgb(0, 0, 0)" style="transform:matrix(0.017,0,0,-0.017,0,0);"></path></g></g></g></svg>
</svg>
