<svg xmlns="http://www.w3.org/2000/svg" width="807.9969482421875" height="188.19444274902344" style="
        width:807.9969482421875px;
        height:188.19444274902344px;
        background: transparent;
        fill: none;
">
        
        
        <svg xmlns="http://www.w3.org/2000/svg" class="role-diagram-draw-area"><g class="shapes-region" style="stroke: black; fill: none;"><g class="arrow-line"><path class="connection real" stroke-dasharray="" d="  M211,33.2 C210.84,82.16 162.82,54.32 161.05,100.29" style="stroke: rgb(0, 0, 0); stroke-width: 1; fill: none;"/><g stroke="none" fill="#000" transform="matrix(-0.0033161195010590135,-0.9999945016606114,0.9999945016606114,-0.0033161195010590135,161,103.19792175292969)" style="stroke: none; fill: rgb(0, 0, 0); stroke-width: 1;"><path d=" M8.93,-4.29 L0,0 L8.93,4.29 Z"/></g></g><g class="arrow-line"><path class="connection real" stroke-dasharray="" d="  M161,33.2 C161.16,83.16 211.16,53.16 211,103.2" style="stroke: rgb(255, 255, 255); stroke-width: 6; fill: none;"/></g><g class="arrow-line"><path class="connection real" stroke-dasharray="" d="  M161,33.2 C161.16,82.16 209.18,54.32 210.95,100.29" style="stroke: rgb(0, 0, 0); stroke-width: 1; fill: none;"/><g stroke="none" fill="#000" transform="matrix(0.0033161195010586457,-0.9999945016606114,0.9999945016606114,0.0033161195010586457,211,103.19792175292972)" style="stroke: none; fill: rgb(0, 0, 0); stroke-width: 1;"><path d=" M8.93,-4.29 L0,0 L8.93,4.29 Z"/></g></g><g class="arrow-line"><path class="connection real" stroke-dasharray="" d="  M161,103.2 C161.16,153.16 210.16,123.16 210,173.2" style="stroke: rgb(0, 0, 0); stroke-width: 1; fill: none;"/></g><g class="arrow-line"><path class="connection real" stroke-dasharray="" d="  M210,103.2 C209.84,153.16 159.84,123.16 160,173.2" style="stroke: rgb(255, 255, 255); stroke-width: 6; fill: none;"/></g><g class="arrow-line"><path class="connection real" stroke-dasharray="" d="  M211,103.2 C210.84,153.16 159.84,123.16 160,173.2" style="stroke: rgb(0, 0, 0); stroke-width: 1; fill: none;"/></g><g class="arrow-line"><path class="connection real" stroke-dasharray="" d="  M260,33.2 L260,100.2" style="stroke: rgb(0, 0, 0); stroke-width: 1; fill: none;"/><g stroke="none" fill="#000" transform="matrix(-1.8369701987210297e-16,-1,1,-1.8369701987210297e-16,260,103.19792175292969)" style="stroke: none; fill: rgb(0, 0, 0); stroke-width: 1;"><path d=" M8.93,-4.29 L0,0 L8.93,4.29 Z"/></g></g><g class="arrow-line"><path class="connection real" stroke-dasharray="" d="  M260,93.2 L260,173.2" style="stroke: rgb(0, 0, 0); stroke-width: 1; fill: none;"/></g><g class="arrow-line"><path class="connection real" stroke-dasharray="" d="  M300,33.2 L300,100.2" style="stroke: rgb(0, 0, 0); stroke-width: 1; fill: none;"/><g stroke="none" fill="#000" transform="matrix(-1.8369701987210297e-16,-1,1,-1.8369701987210297e-16,300,103.19792175292969)" style="stroke: none; fill: rgb(0, 0, 0); stroke-width: 1;"><path d=" M8.93,-4.29 L0,0 L8.93,4.29 Z"/></g></g><g class="arrow-line"><path class="connection real" stroke-dasharray="" d="  M300,93.2 L300,173.2" style="stroke: rgb(0, 0, 0); stroke-width: 1; fill: none;"/></g><g class="arrow-line"><path class="connection real" stroke-dasharray="" d="  M600,33.2 C599.84,82.16 551.82,54.32 550.05,100.29" style="stroke: rgb(0, 0, 0); stroke-width: 1; fill: none;"/><g stroke="none" fill="#000" transform="matrix(-0.0033161195010590135,-0.9999945016606114,0.9999945016606114,-0.0033161195010590135,549.9996032494005,103.19792175292969)" style="stroke: none; fill: rgb(0, 0, 0); stroke-width: 1;"><path d=" M8.93,-4.29 L0,0 L8.93,4.29 Z"/></g></g><g class="arrow-line"><path class="connection real" stroke-dasharray="" d="  M550,33.2 C550.16,83.16 600.16,53.16 600,103.2" style="stroke: rgb(255, 255, 255); stroke-width: 6; fill: none;"/></g><g class="arrow-line"><path class="connection real" stroke-dasharray="" d="  M550,33.2 C550.16,82.16 598.18,54.32 599.95,100.29" style="stroke: rgb(0, 0, 0); stroke-width: 1; fill: none;"/><g stroke="none" fill="#000" transform="matrix(0.0033161195010586457,-0.9999945016606114,0.9999945016606114,0.0033161195010586457,599.9996032494005,103.19792175292969)" style="stroke: none; fill: rgb(0, 0, 0); stroke-width: 1;"><path d=" M8.93,-4.29 L0,0 L8.93,4.29 Z"/></g></g><g class="arrow-line"><path class="connection real" stroke-dasharray="" d="  M600,103.2 C599.84,153.16 549.84,123.16 550,173.2" style="stroke: rgb(0, 0, 0); stroke-width: 1; fill: none;"/></g><g class="arrow-line"><path class="connection real" stroke-dasharray="" d="  M550,103.2 C550.16,153.16 600.16,123.16 600,173.2" style="stroke: rgb(255, 255, 255); stroke-width: 6; fill: none;"/></g><g class="arrow-line"><path class="connection real" stroke-dasharray="" d="  M550,103.2 C550.16,153.16 600.16,123.16 600,173.2" style="stroke: rgb(0, 0, 0); stroke-width: 1; fill: none;"/></g><g/></g><g/><g/><g/></svg>
        <svg xmlns="http://www.w3.org/2000/svg" width="806.0004272460938" height="186.19790649414062" style="width:806.0004272460938px;height:186.19790649414062px;font-family:Asana-Math, Asana;background:transparent;"><g><g><g><svg x="13.6339111328125" style="overflow:visible;" y="89.14387512207031" height="27.99479103088379" width="8.49609375"><path d=" M 6.61 1.70 q 0.00 -0.10 -0.08 -0.10 q -0.03 0.00 -0.08 0.03 q -1.01 0.66 -1.75 1.55 t -1.37 2.24 t -0.95 3.32 t -0.33 4.52 v 0.74 h 1.68 v -0.74 q 0.00 -1.43 0.04 -2.48 t 0.22 -2.44 t 0.50 -2.43 t 0.91 -2.08 t 1.43 -1.77 q 0.12 -0.11 0.12 -0.35 z   M 0.90 14.00 v 0.00 h 1.68 v 0.00 z" style="fill:rgb(0, 0, 0);stroke-width:1px;stroke:none;"></path><path d=" M 6.61 26.29 q 0.00 0.10 -0.08 0.10 q -0.03 0.00 -0.08 -0.03 q -1.01 -0.66 -1.75 -1.55 t -1.37 -2.24 t -0.95 -3.32 t -0.33 -4.52 v -0.74 h 1.68 v 0.74 q 0.00 1.43 0.04 2.48 t 0.22 2.44 t 0.50 2.43 t 0.91 2.08 t 1.43 1.77 q 0.12 0.11 0.12 0.35 z" style="fill:rgb(0, 0, 0);stroke-width:1px;stroke:none;"></path></svg></g><g style="transform:matrix(1,0,0,1,20.437286376953125,107.14213562011719);"><path d="M63 278L63 281C118 423 114 402 279 408C237 307 190 180 187 71C183 -74 360 -4 411 59L411 65L397 75L397 74C374 56 347 33 318 33C198 33 313 370 326 412C371 413 431 411 476 420L476 463L108 463C81 448 56 310 48 278Z" stroke="rgb(0, 0, 0)" stroke-width="8" fill="rgb(0, 0, 0)" style="transform:matrix(0.017,0,0,-0.017,0,0);"></path></g><g><g><g></g></g><g><g><g style="transform:matrix(1,0,0,1,29.768890380859375,111.79692687988282);"><path d="M310 96L239 624C237 646 241 661 281 662L323 664L323 692L282 691C245 690 217 689 199 689C181 689 153 690 116 691L75 692L75 664L100 662C144 659 152 651 159 614L247 -8L296 -8L674 611C699 651 707 658 736 662L754 664L754 692L724 691C697 690 674 689 658 689C648 689 621 690 580 691L534 692L534 664L560 662C598 659 617 649 617 630C617 619 613 608 601 588ZM925 123C898 114 880 108 827 93C820 17 795 -48 737 -144L751 -155L792 -136C873 -31 911 32 939 109ZM1273 692L1234 691C1196 689 1172 689 1152 689C1140 689 1118 690 1080 691L1041 692L1041 664L1059 662C1100 656 1108 645 1112 588L1144 158C1149 92 1151 44 1152 -8L1202 -8C1216 27 1234 66 1252 102L1476 546L1588 154C1603 102 1614 53 1627 -8L1678 -8L1685 18C1695 58 1703 85 1716 124L1887 631C1893 648 1908 660 1930 662L1950 664L1950 692L1918 691C1889 690 1867 689 1853 689C1840 689 1818 690 1788 691L1755 692L1750 664L1789 662C1818 661 1830 653 1830 639C1830 626 1827 608 1821 590L1674 128L1516 700L1498 700C1486 673 1464 624 1446 588L1222 132L1191 616C1191 646 1204 660 1236 662L1273 664Z" stroke="rgb(0, 0, 0)" stroke-width="8" fill="rgb(0, 0, 0)" style="transform:matrix(0.0119,0,0,-0.0119,0,0);"></path></g></g></g></g><g><svg x="51.86090087890625" style="overflow:visible;" y="89.14387512207031" height="27.99479103088379" width="8.49609375"><path d=" M 1.69 1.70 q 0.00 -0.10 0.08 -0.10 q 0.03 0.00 0.08 0.03 q 1.01 0.66 1.75 1.55 t 1.37 2.24 t 0.95 3.32 t 0.33 4.52 v 0.74 h -1.68 v -0.74 q 0.00 -1.43 -0.04 -2.48 t -0.22 -2.44 t -0.50 -2.43 t -0.91 -2.08 t -1.43 -1.77 q -0.12 -0.11 -0.12 -0.35 z  M 7.40 14.00 v 0.00 h -1.68 v 0.00 z" style="fill:rgb(0, 0, 0);stroke-width:1px;stroke:none;"></path><path d=" M 1.69 26.29 q 0.00 0.10 0.08 0.10 q 0.03 0.00 0.08 -0.03 q 1.01 -0.66 1.75 -1.55 t 1.37 -2.24 t 0.95 -3.32 t 0.33 -4.52 v -0.74 h -1.68 v 0.74 q 0.00 1.43 -0.04 2.48 t -0.22 2.44 t -0.50 2.43 t -0.91 2.08 t -1.43 1.77 q -0.12 0.11 -0.12 0.35 z" style="fill:rgb(0, 0, 0);stroke-width:1px;stroke:none;"></path></svg></g><g><g><g><g style="transform:matrix(1,0,0,1,60.3135986328125,95.45577087402344);"><path d="M555 243L555 299L51 299L51 243ZM1023 -3L1023 27L971 30C916 33 906 44 906 96L906 700L665 598L672 548L822 614L822 96C822 44 811 33 757 30L701 27L701 -3C855 0 855 0 866 0C897 0 1007 -3 1023 -3Z" stroke="rgb(0, 0, 0)" stroke-width="8" fill="rgb(0, 0, 0)" style="transform:matrix(0.0119,0,0,-0.0119,0,0);"></path></g></g></g></g><g style="transform:matrix(1,0,0,1,77.25152587890625,107.14213562011719);"><path d="M342 271C342 352 277 417 195 417C112 417 47 352 47 271C47 188 112 124 195 124C277 124 342 188 342 271ZM304 271C304 209 254 161 195 161C133 161 85 209 85 271C85 331 133 380 195 380C254 380 304 331 304 271Z" stroke="rgb(0, 0, 0)" stroke-width="8" fill="rgb(0, 0, 0)" style="transform:matrix(0.017,0,0,-0.017,0,0);"></path></g><g style="transform:matrix(1,0,0,1,86.61569213867188,107.14213562011719);"><path d="M63 278L63 281C118 423 114 402 279 408C237 307 190 180 187 71C183 -74 360 -4 411 59L411 65L397 75L397 74C374 56 347 33 318 33C198 33 313 370 326 412C371 413 431 411 476 420L476 463L108 463C81 448 56 310 48 278Z" stroke="rgb(0, 0, 0)" stroke-width="8" fill="rgb(0, 0, 0)" style="transform:matrix(0.017,0,0,-0.017,0,0);"></path></g><g><g><g><g style="transform:matrix(1,0,0,1,95.947265625,110.13677062988282);"><path d="M310 96L239 624C237 646 241 661 281 662L323 664L323 692L282 691C245 690 217 689 199 689C181 689 153 690 116 691L75 692L75 664L100 662C144 659 152 651 159 614L247 -8L296 -8L674 611C699 651 707 658 736 662L754 664L754 692L724 691C697 690 674 689 658 689C648 689 621 690 580 691L534 692L534 664L560 662C598 659 617 649 617 630C617 619 613 608 601 588ZM925 123C898 114 880 108 827 93C820 17 795 -48 737 -144L751 -155L792 -136C873 -31 911 32 939 109ZM1273 692L1234 691C1196 689 1172 689 1152 689C1140 689 1118 690 1080 691L1041 692L1041 664L1059 662C1100 656 1108 645 1112 588L1144 158C1149 92 1151 44 1152 -8L1202 -8C1216 27 1234 66 1252 102L1476 546L1588 154C1603 102 1614 53 1627 -8L1678 -8L1685 18C1695 58 1703 85 1716 124L1887 631C1893 648 1908 660 1930 662L1950 664L1950 692L1918 691C1889 690 1867 689 1853 689C1840 689 1818 690 1788 691L1755 692L1750 664L1789 662C1818 661 1830 653 1830 639C1830 626 1827 608 1821 590L1674 128L1516 700L1498 700C1486 673 1464 624 1446 588L1222 132L1191 616C1191 646 1204 660 1236 662L1273 664Z" stroke="rgb(0, 0, 0)" stroke-width="8" fill="rgb(0, 0, 0)" style="transform:matrix(0.0119,0,0,-0.0119,0,0);"></path></g></g></g></g><g style="transform:matrix(1,0,0,1,119.73199462890625,107.14213562011719);"><path d="" stroke="rgb(0, 0, 0)" stroke-width="8" fill="rgb(0, 0, 0)" style="transform:matrix(0.017,0,0,-0.017,0,0);"></path></g><g style="transform:matrix(1,0,0,1,128.82489013671875,107.14213562011719);"><path d="M604 347L604 406L65 406L65 347ZM604 134L604 193L65 193L65 134Z" stroke="rgb(0, 0, 0)" stroke-width="8" fill="rgb(0, 0, 0)" style="transform:matrix(0.017,0,0,-0.017,0,0);"></path></g></g></g><g><g><g style="transform:matrix(1,0,0,1,426.7469482421875,107.24522399902344);"><path d="M63 278L63 281C118 423 114 402 279 408C237 307 190 180 187 71C183 -74 360 -4 411 59L411 65L397 75L397 74C374 56 347 33 318 33C198 33 313 370 326 412C371 413 431 411 476 420L476 463L108 463C81 448 56 310 48 278Z" stroke="rgb(0, 0, 0)" stroke-width="8" fill="rgb(0, 0, 0)" style="transform:matrix(0.017,0,0,-0.017,0,0);"></path></g><g><g><g></g></g><g><g><g style="transform:matrix(1,0,0,1,436.07855224609375,111.89998474121094);"><path d="M303 692L264 691C226 689 202 689 182 689C170 689 148 690 110 691L71 692L71 664L89 662C130 656 138 645 142 588L174 158C179 92 181 44 182 -8L232 -8C246 27 264 66 282 102L506 546L618 154C633 102 644 53 657 -8L708 -8L715 18C725 58 733 85 746 124L917 631C923 648 938 660 960 662L980 664L980 692L948 691C919 690 897 689 883 689C870 689 848 690 818 691L785 692L780 664L819 662C848 661 860 653 860 639C860 626 857 608 851 590L704 128L546 700L528 700C516 673 494 624 476 588L252 132L221 616C221 646 234 660 266 662L303 664ZM1147 123C1120 114 1102 108 1049 93C1042 17 1017 -48 959 -144L973 -155L1014 -136C1095 -31 1133 32 1161 109ZM1502 96L1431 624C1429 646 1433 661 1473 662L1515 664L1515 692L1474 691C1437 690 1409 689 1391 689C1373 689 1345 690 1308 691L1267 692L1267 664L1292 662C1336 659 1344 651 1351 614L1439 -8L1488 -8L1866 611C1891 651 1899 658 1928 662L1946 664L1946 692L1916 691C1889 690 1866 689 1850 689C1840 689 1813 690 1772 691L1726 692L1726 664L1752 662C1790 659 1809 649 1809 630C1809 619 1805 608 1793 588Z" stroke="rgb(0, 0, 0)" stroke-width="8" fill="rgb(0, 0, 0)" style="transform:matrix(0.0119,0,0,-0.0119,0,0);"></path></g></g></g></g><g style="transform:matrix(1,0,0,1,462.64105224609375,107.24522399902344);"><path d="M342 271C342 352 277 417 195 417C112 417 47 352 47 271C47 188 112 124 195 124C277 124 342 188 342 271ZM304 271C304 209 254 161 195 161C133 161 85 209 85 271C85 331 133 380 195 380C254 380 304 331 304 271Z" stroke="rgb(0, 0, 0)" stroke-width="8" fill="rgb(0, 0, 0)" style="transform:matrix(0.017,0,0,-0.017,0,0);"></path></g><g style="transform:matrix(1,0,0,1,472.00518798828125,107.24522399902344);"><path d="M63 278L63 281C118 423 114 402 279 408C237 307 190 180 187 71C183 -74 360 -4 411 59L411 65L397 75L397 74C374 56 347 33 318 33C198 33 313 370 326 412C371 413 431 411 476 420L476 463L108 463C81 448 56 310 48 278Z" stroke="rgb(0, 0, 0)" stroke-width="8" fill="rgb(0, 0, 0)" style="transform:matrix(0.017,0,0,-0.017,0,0);"></path></g><g><g><g><g style="transform:matrix(1,0,0,1,481.3367919921875,110.23982849121094);"><path d="M310 96L239 624C237 646 241 661 281 662L323 664L323 692L282 691C245 690 217 689 199 689C181 689 153 690 116 691L75 692L75 664L100 662C144 659 152 651 159 614L247 -8L296 -8L674 611C699 651 707 658 736 662L754 664L754 692L724 691C697 690 674 689 658 689C648 689 621 690 580 691L534 692L534 664L560 662C598 659 617 649 617 630C617 619 613 608 601 588ZM925 123C898 114 880 108 827 93C820 17 795 -48 737 -144L751 -155L792 -136C873 -31 911 32 939 109ZM1273 692L1234 691C1196 689 1172 689 1152 689C1140 689 1118 690 1080 691L1041 692L1041 664L1059 662C1100 656 1108 645 1112 588L1144 158C1149 92 1151 44 1152 -8L1202 -8C1216 27 1234 66 1252 102L1476 546L1588 154C1603 102 1614 53 1627 -8L1678 -8L1685 18C1695 58 1703 85 1716 124L1887 631C1893 648 1908 660 1930 662L1950 664L1950 692L1918 691C1889 690 1867 689 1853 689C1840 689 1818 690 1788 691L1755 692L1750 664L1789 662C1818 661 1830 653 1830 639C1830 626 1827 608 1821 590L1674 128L1516 700L1498 700C1486 673 1464 624 1446 588L1222 132L1191 616C1191 646 1204 660 1236 662L1273 664Z" stroke="rgb(0, 0, 0)" stroke-width="8" fill="rgb(0, 0, 0)" style="transform:matrix(0.0119,0,0,-0.0119,0,0);"></path></g></g></g></g><g style="transform:matrix(1,0,0,1,505.12152099609375,107.24522399902344);"><path d="" stroke="rgb(0, 0, 0)" stroke-width="8" fill="rgb(0, 0, 0)" style="transform:matrix(0.017,0,0,-0.017,0,0);"></path></g><g style="transform:matrix(1,0,0,1,514.2144165039062,107.24522399902344);"><path d="M604 347L604 406L65 406L65 347ZM604 134L604 193L65 193L65 134Z" stroke="rgb(0, 0, 0)" stroke-width="8" fill="rgb(0, 0, 0)" style="transform:matrix(0.017,0,0,-0.017,0,0);"></path></g></g></g><g><g><g style="transform:matrix(1,0,0,1,231.07098388671875,107.12586975097656);"><path d="M604 347L604 406L65 406L65 347ZM604 134L604 193L65 193L65 134Z" stroke="rgb(0, 0, 0)" stroke-width="8" fill="rgb(0, 0, 0)" style="transform:matrix(0.017,0,0,-0.017,0,0);"></path></g></g></g><g><g><g style="transform:matrix(1,0,0,1,155.3602294921875,30.118484497070312);"><path d="M310 96L239 624C237 646 241 661 281 662L323 664L323 692L282 691C245 690 217 689 199 689C181 689 153 690 116 691L75 692L75 664L100 662C144 659 152 651 159 614L247 -8L296 -8L674 611C699 651 707 658 736 662L754 664L754 692L724 691C697 690 674 689 658 689C648 689 621 690 580 691L534 692L534 664L560 662C598 659 617 649 617 630C617 619 613 608 601 588Z" stroke="rgb(0, 0, 0)" stroke-width="8" fill="rgb(0, 0, 0)" style="transform:matrix(0.017,0,0,-0.017,0,0);"></path></g></g></g><g><g><g style="transform:matrix(1,0,0,1,201.974853515625,30.118484497070312);"><path d="M303 692L264 691C226 689 202 689 182 689C170 689 148 690 110 691L71 692L71 664L89 662C130 656 138 645 142 588L174 158C179 92 181 44 182 -8L232 -8C246 27 264 66 282 102L506 546L618 154C633 102 644 53 657 -8L708 -8L715 18C725 58 733 85 746 124L917 631C923 648 938 660 960 662L980 664L980 692L948 691C919 690 897 689 883 689C870 689 848 690 818 691L785 692L780 664L819 662C848 661 860 653 860 639C860 626 857 608 851 590L704 128L546 700L528 700C516 673 494 624 476 588L252 132L221 616C221 646 234 660 266 662L303 664Z" stroke="rgb(0, 0, 0)" stroke-width="8" fill="rgb(0, 0, 0)" style="transform:matrix(0.017,0,0,-0.017,0,0);"></path></g></g></g><g><g><g style="transform:matrix(1,0,0,1,255.3602294921875,30.118484497070312);"><path d="M310 96L239 624C237 646 241 661 281 662L323 664L323 692L282 691C245 690 217 689 199 689C181 689 153 690 116 691L75 692L75 664L100 662C144 659 152 651 159 614L247 -8L296 -8L674 611C699 651 707 658 736 662L754 664L754 692L724 691C697 690 674 689 658 689C648 689 621 690 580 691L534 692L534 664L560 662C598 659 617 649 617 630C617 619 613 608 601 588Z" stroke="rgb(0, 0, 0)" stroke-width="8" fill="rgb(0, 0, 0)" style="transform:matrix(0.017,0,0,-0.017,0,0);"></path></g></g></g><g><g><g style="transform:matrix(1,0,0,1,291.9813232421875,30.118484497070312);"><path d="M303 692L264 691C226 689 202 689 182 689C170 689 148 690 110 691L71 692L71 664L89 662C130 656 138 645 142 588L174 158C179 92 181 44 182 -8L232 -8C246 27 264 66 282 102L506 546L618 154C633 102 644 53 657 -8L708 -8L715 18C725 58 733 85 746 124L917 631C923 648 938 660 960 662L980 664L980 692L948 691C919 690 897 689 883 689C870 689 848 690 818 691L785 692L780 664L819 662C848 661 860 653 860 639C860 626 857 608 851 590L704 128L546 700L528 700C516 673 494 624 476 588L252 132L221 616C221 646 234 660 266 662L303 664Z" stroke="rgb(0, 0, 0)" stroke-width="8" fill="rgb(0, 0, 0)" style="transform:matrix(0.017,0,0,-0.017,0,0);"></path></g></g></g><g><g><g style="transform:matrix(1,0,0,1,545.3667602539062,30.118484497070312);"><path d="M310 96L239 624C237 646 241 661 281 662L323 664L323 692L282 691C245 690 217 689 199 689C181 689 153 690 116 691L75 692L75 664L100 662C144 659 152 651 159 614L247 -8L296 -8L674 611C699 651 707 658 736 662L754 664L754 692L724 691C697 690 674 689 658 689C648 689 621 690 580 691L534 692L534 664L560 662C598 659 617 649 617 630C617 619 613 608 601 588Z" stroke="rgb(0, 0, 0)" stroke-width="8" fill="rgb(0, 0, 0)" style="transform:matrix(0.017,0,0,-0.017,0,0);"></path></g></g></g><g><g><g style="transform:matrix(1,0,0,1,591.9813232421875,30.118484497070312);"><path d="M303 692L264 691C226 689 202 689 182 689C170 689 148 690 110 691L71 692L71 664L89 662C130 656 138 645 142 588L174 158C179 92 181 44 182 -8L232 -8C246 27 264 66 282 102L506 546L618 154C633 102 644 53 657 -8L708 -8L715 18C725 58 733 85 746 124L917 631C923 648 938 660 960 662L980 664L980 692L948 691C919 690 897 689 883 689C870 689 848 690 818 691L785 692L780 664L819 662C848 661 860 653 860 639C860 626 857 608 851 590L704 128L546 700L528 700C516 673 494 624 476 588L252 132L221 616C221 646 234 660 266 662L303 664Z" stroke="rgb(0, 0, 0)" stroke-width="8" fill="rgb(0, 0, 0)" style="transform:matrix(0.017,0,0,-0.017,0,0);"></path></g></g></g></svg>
</svg>
